<mxfile host="app.diagrams.net" modified="2023-05-15T03:32:27.402Z" agent="Mozilla/5.0 (Windows NT 10.0; Win64; x64) AppleWebKit/537.36 (KHTML, like Gecko) Chrome/113.0.0.0 Safari/537.36" etag="rRWOOli0XM5ah4UPTCYu" version="21.3.0" type="github">
  <diagram id="OHugUGV6JcLkJLT_VvOv" name="第 1 页">
    <mxGraphModel dx="2048" dy="731" grid="1" gridSize="10" guides="1" tooltips="1" connect="1" arrows="1" fold="1" page="1" pageScale="1" pageWidth="827" pageHeight="1169" math="1" shadow="0">
      <root>
        <mxCell id="0" />
        <mxCell id="1" parent="0" />
        <mxCell id="EiaWENK0sWJ-y4MaInz0-131" style="edgeStyle=orthogonalEdgeStyle;rounded=0;orthogonalLoop=1;jettySize=auto;html=1;exitX=0.5;exitY=0;exitDx=0;exitDy=0;entryX=0;entryY=0.5;entryDx=0;entryDy=0;strokeWidth=3;" parent="1" source="EiaWENK0sWJ-y4MaInz0-97" target="EiaWENK0sWJ-y4MaInz0-127" edge="1">
          <mxGeometry relative="1" as="geometry" />
        </mxCell>
        <mxCell id="EiaWENK0sWJ-y4MaInz0-97" value="" style="rounded=1;whiteSpace=wrap;html=1;dashed=1;" parent="1" vertex="1">
          <mxGeometry x="385.13" y="620" width="44.87" height="290" as="geometry" />
        </mxCell>
        <mxCell id="EiaWENK0sWJ-y4MaInz0-30" style="edgeStyle=orthogonalEdgeStyle;rounded=0;orthogonalLoop=1;jettySize=auto;html=1;exitX=1;exitY=0.5;exitDx=0;exitDy=0;entryX=0.75;entryY=1;entryDx=0;entryDy=0;strokeWidth=3;strokeColor=#3399FF;" parent="1" source="EiaWENK0sWJ-y4MaInz0-28" target="EiaWENK0sWJ-y4MaInz0-20" edge="1">
          <mxGeometry relative="1" as="geometry">
            <Array as="points">
              <mxPoint x="250" y="868" />
              <mxPoint x="250" y="816" />
            </Array>
          </mxGeometry>
        </mxCell>
        <mxCell id="EiaWENK0sWJ-y4MaInz0-28" value="" style="ellipse;whiteSpace=wrap;html=1;aspect=fixed;fillColor=#33FFFF;strokeColor=none;opacity=50;" parent="1" vertex="1">
          <mxGeometry x="75.53" y="787.81" width="160" height="160" as="geometry" />
        </mxCell>
        <mxCell id="EiaWENK0sWJ-y4MaInz0-78" style="edgeStyle=orthogonalEdgeStyle;rounded=0;orthogonalLoop=1;jettySize=auto;html=1;exitX=0.25;exitY=0;exitDx=0;exitDy=0;entryX=0;entryY=0.5;entryDx=0;entryDy=0;strokeWidth=3;strokeColor=#FF6666;" parent="1" source="EiaWENK0sWJ-y4MaInz0-20" target="EiaWENK0sWJ-y4MaInz0-36" edge="1">
          <mxGeometry relative="1" as="geometry" />
        </mxCell>
        <mxCell id="EiaWENK0sWJ-y4MaInz0-80" style="edgeStyle=orthogonalEdgeStyle;rounded=0;orthogonalLoop=1;jettySize=auto;html=1;exitX=0.75;exitY=0;exitDx=0;exitDy=0;entryX=0;entryY=0.5;entryDx=0;entryDy=0;strokeWidth=3;strokeColor=#3399FF;" parent="1" source="EiaWENK0sWJ-y4MaInz0-20" target="EiaWENK0sWJ-y4MaInz0-57" edge="1">
          <mxGeometry relative="1" as="geometry" />
        </mxCell>
        <mxCell id="EiaWENK0sWJ-y4MaInz0-20" value="" style="shape=trapezoid;perimeter=trapezoidPerimeter;whiteSpace=wrap;html=1;fixedSize=1;rotation=90;" parent="1" vertex="1">
          <mxGeometry x="247.42" y="740.39" width="128.47" height="86.72" as="geometry" />
        </mxCell>
        <mxCell id="EiaWENK0sWJ-y4MaInz0-29" style="edgeStyle=orthogonalEdgeStyle;rounded=0;orthogonalLoop=1;jettySize=auto;html=1;exitX=1;exitY=0.5;exitDx=0;exitDy=0;entryX=0.25;entryY=1;entryDx=0;entryDy=0;strokeWidth=3;fontColor=#FF6666;strokeColor=#FF6666;" parent="1" source="EiaWENK0sWJ-y4MaInz0-22" target="EiaWENK0sWJ-y4MaInz0-20" edge="1">
          <mxGeometry relative="1" as="geometry">
            <Array as="points">
              <mxPoint x="250" y="691" />
              <mxPoint x="250" y="752" />
            </Array>
          </mxGeometry>
        </mxCell>
        <mxCell id="EiaWENK0sWJ-y4MaInz0-22" value="" style="ellipse;whiteSpace=wrap;html=1;aspect=fixed;fillColor=#FFcccc;strokeColor=none;opacity=50;" parent="1" vertex="1">
          <mxGeometry x="75.53999999999999" y="610.9399999999999" width="160" height="160" as="geometry" />
        </mxCell>
        <mxCell id="vVpYJYiZT_mGHktkTp3d-77" value="" style="ellipse;whiteSpace=wrap;html=1;aspect=fixed;container=0;fillColor=#FF6666;" parent="1" vertex="1">
          <mxGeometry x="108" y="636.53" width="21.07" height="21.07" as="geometry" />
        </mxCell>
        <mxCell id="vVpYJYiZT_mGHktkTp3d-86" style="edgeStyle=none;rounded=0;orthogonalLoop=1;jettySize=auto;html=1;exitX=0;exitY=0;exitDx=0;exitDy=0;entryX=1;entryY=1;entryDx=0;entryDy=0;strokeColor=default;startArrow=none;startFill=0;" parent="1" source="vVpYJYiZT_mGHktkTp3d-78" target="vVpYJYiZT_mGHktkTp3d-77" edge="1">
          <mxGeometry relative="1" as="geometry" />
        </mxCell>
        <mxCell id="vVpYJYiZT_mGHktkTp3d-78" value="" style="ellipse;whiteSpace=wrap;html=1;aspect=fixed;container=0;fillColor=#FF6666;" parent="1" vertex="1">
          <mxGeometry x="142" y="678.4" width="21.07" height="21.07" as="geometry" />
        </mxCell>
        <mxCell id="vVpYJYiZT_mGHktkTp3d-79" value="" style="ellipse;whiteSpace=wrap;html=1;aspect=fixed;container=0;fillColor=#FF6666;" parent="1" vertex="1">
          <mxGeometry x="98" y="696.89" width="21.07" height="21.07" as="geometry" />
        </mxCell>
        <mxCell id="vVpYJYiZT_mGHktkTp3d-87" style="edgeStyle=none;rounded=0;orthogonalLoop=1;jettySize=auto;html=1;exitX=0;exitY=1;exitDx=0;exitDy=0;entryX=1;entryY=0.5;entryDx=0;entryDy=0;strokeColor=default;startArrow=none;startFill=0;" parent="1" source="vVpYJYiZT_mGHktkTp3d-78" target="vVpYJYiZT_mGHktkTp3d-79" edge="1">
          <mxGeometry relative="1" as="geometry" />
        </mxCell>
        <mxCell id="vVpYJYiZT_mGHktkTp3d-80" value="" style="ellipse;whiteSpace=wrap;html=1;aspect=fixed;container=0;fillColor=#FF6666;" parent="1" vertex="1">
          <mxGeometry x="138" y="734.71" width="21.07" height="21.07" as="geometry" />
        </mxCell>
        <mxCell id="vVpYJYiZT_mGHktkTp3d-90" style="edgeStyle=none;rounded=0;orthogonalLoop=1;jettySize=auto;html=1;exitX=0;exitY=1;exitDx=0;exitDy=0;entryX=1;entryY=0;entryDx=0;entryDy=0;strokeColor=default;startArrow=none;startFill=0;" parent="1" source="vVpYJYiZT_mGHktkTp3d-81" target="vVpYJYiZT_mGHktkTp3d-78" edge="1">
          <mxGeometry relative="1" as="geometry" />
        </mxCell>
        <mxCell id="vVpYJYiZT_mGHktkTp3d-81" value="" style="ellipse;whiteSpace=wrap;html=1;aspect=fixed;container=0;fillColor=#FF6666;" parent="1" vertex="1">
          <mxGeometry x="188" y="636.53" width="21.07" height="21.07" as="geometry" />
        </mxCell>
        <mxCell id="vVpYJYiZT_mGHktkTp3d-88" style="edgeStyle=none;rounded=0;orthogonalLoop=1;jettySize=auto;html=1;exitX=0;exitY=0;exitDx=0;exitDy=0;entryX=1;entryY=1;entryDx=0;entryDy=0;strokeColor=default;startArrow=none;startFill=0;" parent="1" source="vVpYJYiZT_mGHktkTp3d-82" target="vVpYJYiZT_mGHktkTp3d-78" edge="1">
          <mxGeometry relative="1" as="geometry" />
        </mxCell>
        <mxCell id="vVpYJYiZT_mGHktkTp3d-89" style="edgeStyle=none;rounded=0;orthogonalLoop=1;jettySize=auto;html=1;exitX=0;exitY=1;exitDx=0;exitDy=0;strokeColor=default;startArrow=none;startFill=0;" parent="1" source="vVpYJYiZT_mGHktkTp3d-82" edge="1">
          <mxGeometry relative="1" as="geometry">
            <mxPoint x="158" y="745.53" as="targetPoint" />
          </mxGeometry>
        </mxCell>
        <mxCell id="vVpYJYiZT_mGHktkTp3d-82" value="" style="ellipse;whiteSpace=wrap;html=1;aspect=fixed;container=0;fillColor=#FF6666;" parent="1" vertex="1">
          <mxGeometry x="188" y="701.47" width="21.07" height="21.07" as="geometry" />
        </mxCell>
        <mxCell id="EiaWENK0sWJ-y4MaInz0-6" value="" style="ellipse;whiteSpace=wrap;html=1;aspect=fixed;container=0;fillColor=#3399FF;" parent="1" vertex="1">
          <mxGeometry x="110" y="812.53" width="21.07" height="21.07" as="geometry" />
        </mxCell>
        <mxCell id="EiaWENK0sWJ-y4MaInz0-7" style="edgeStyle=none;rounded=0;orthogonalLoop=1;jettySize=auto;html=1;exitX=0;exitY=0;exitDx=0;exitDy=0;entryX=1;entryY=1;entryDx=0;entryDy=0;strokeColor=default;startArrow=none;startFill=0;" parent="1" source="EiaWENK0sWJ-y4MaInz0-8" target="EiaWENK0sWJ-y4MaInz0-6" edge="1">
          <mxGeometry relative="1" as="geometry" />
        </mxCell>
        <mxCell id="EiaWENK0sWJ-y4MaInz0-8" value="" style="ellipse;whiteSpace=wrap;html=1;aspect=fixed;container=0;fillColor=#3399FF;" parent="1" vertex="1">
          <mxGeometry x="140" y="856.4" width="21.07" height="21.07" as="geometry" />
        </mxCell>
        <mxCell id="EiaWENK0sWJ-y4MaInz0-9" value="" style="ellipse;whiteSpace=wrap;html=1;aspect=fixed;container=0;fillColor=#3399FF;" parent="1" vertex="1">
          <mxGeometry x="100" y="872.89" width="21.07" height="21.07" as="geometry" />
        </mxCell>
        <mxCell id="EiaWENK0sWJ-y4MaInz0-10" style="edgeStyle=none;rounded=0;orthogonalLoop=1;jettySize=auto;html=1;exitX=0;exitY=1;exitDx=0;exitDy=0;entryX=1;entryY=0.5;entryDx=0;entryDy=0;strokeColor=default;startArrow=none;startFill=0;" parent="1" source="EiaWENK0sWJ-y4MaInz0-8" target="EiaWENK0sWJ-y4MaInz0-9" edge="1">
          <mxGeometry relative="1" as="geometry" />
        </mxCell>
        <mxCell id="EiaWENK0sWJ-y4MaInz0-17" style="rounded=0;orthogonalLoop=1;jettySize=auto;html=1;exitX=0;exitY=0.5;exitDx=0;exitDy=0;entryX=0.5;entryY=1;entryDx=0;entryDy=0;" parent="1" source="EiaWENK0sWJ-y4MaInz0-11" target="EiaWENK0sWJ-y4MaInz0-9" edge="1">
          <mxGeometry relative="1" as="geometry" />
        </mxCell>
        <mxCell id="EiaWENK0sWJ-y4MaInz0-11" value="" style="ellipse;whiteSpace=wrap;html=1;aspect=fixed;container=0;fillColor=#3399FF;" parent="1" vertex="1">
          <mxGeometry x="140" y="910.71" width="21.07" height="21.07" as="geometry" />
        </mxCell>
        <mxCell id="EiaWENK0sWJ-y4MaInz0-12" style="edgeStyle=none;rounded=0;orthogonalLoop=1;jettySize=auto;html=1;exitX=0;exitY=0.5;exitDx=0;exitDy=0;entryX=1;entryY=0.5;entryDx=0;entryDy=0;strokeColor=default;startArrow=none;startFill=0;" parent="1" source="EiaWENK0sWJ-y4MaInz0-13" target="EiaWENK0sWJ-y4MaInz0-6" edge="1">
          <mxGeometry relative="1" as="geometry" />
        </mxCell>
        <mxCell id="EiaWENK0sWJ-y4MaInz0-18" style="rounded=0;orthogonalLoop=1;jettySize=auto;html=1;exitX=0;exitY=1;exitDx=0;exitDy=0;entryX=1;entryY=0.5;entryDx=0;entryDy=0;" parent="1" source="EiaWENK0sWJ-y4MaInz0-13" target="EiaWENK0sWJ-y4MaInz0-8" edge="1">
          <mxGeometry relative="1" as="geometry" />
        </mxCell>
        <mxCell id="EiaWENK0sWJ-y4MaInz0-13" value="" style="ellipse;whiteSpace=wrap;html=1;aspect=fixed;container=0;fillColor=#3399FF;" parent="1" vertex="1">
          <mxGeometry x="190" y="823.53" width="21.07" height="21.07" as="geometry" />
        </mxCell>
        <mxCell id="EiaWENK0sWJ-y4MaInz0-15" style="edgeStyle=none;rounded=0;orthogonalLoop=1;jettySize=auto;html=1;exitX=0;exitY=1;exitDx=0;exitDy=0;strokeColor=default;startArrow=none;startFill=0;" parent="1" source="EiaWENK0sWJ-y4MaInz0-16" edge="1">
          <mxGeometry relative="1" as="geometry">
            <mxPoint x="160" y="921.53" as="targetPoint" />
          </mxGeometry>
        </mxCell>
        <mxCell id="EiaWENK0sWJ-y4MaInz0-16" value="" style="ellipse;whiteSpace=wrap;html=1;aspect=fixed;container=0;fillColor=#3399FF;" parent="1" vertex="1">
          <mxGeometry x="190" y="877.47" width="21.07" height="21.07" as="geometry" />
        </mxCell>
        <mxCell id="vVpYJYiZT_mGHktkTp3d-14" value="$$F$$" style="text;html=1;strokeColor=none;fillColor=none;align=center;verticalAlign=middle;whiteSpace=wrap;rounded=0;shadow=0;fontSize=16;" parent="1" vertex="1">
          <mxGeometry x="281.65" y="768.75" width="60" height="30" as="geometry" />
        </mxCell>
        <mxCell id="EiaWENK0sWJ-y4MaInz0-81" value="&lt;font style=&quot;font-size: 16px;&quot;&gt;$$h_{v}$$&lt;/font&gt;" style="text;html=1;strokeColor=none;fillColor=none;align=center;verticalAlign=middle;whiteSpace=wrap;rounded=0;shadow=0;fontSize=16;" parent="1" vertex="1">
          <mxGeometry x="389.5" y="791.2399999999999" width="37" height="35.87" as="geometry" />
        </mxCell>
        <mxCell id="EiaWENK0sWJ-y4MaInz0-95" value="&lt;font style=&quot;font-size: 19px;&quot;&gt;$$v$$&lt;/font&gt;" style="text;html=1;strokeColor=none;fillColor=none;align=center;verticalAlign=middle;whiteSpace=wrap;rounded=0;shadow=0;fontSize=16;" parent="1" vertex="1">
          <mxGeometry x="134.04" y="670.9999999999999" width="37" height="35.87" as="geometry" />
        </mxCell>
        <mxCell id="EiaWENK0sWJ-y4MaInz0-96" value="&lt;font style=&quot;font-size: 19px;&quot;&gt;$$v$$&lt;/font&gt;" style="text;html=1;strokeColor=none;fillColor=none;align=center;verticalAlign=middle;whiteSpace=wrap;rounded=0;shadow=0;fontSize=16;" parent="1" vertex="1">
          <mxGeometry x="132.03" y="848.9999999999999" width="37" height="35.87" as="geometry" />
        </mxCell>
        <mxCell id="vVpYJYiZT_mGHktkTp3d-12" value="&lt;font style=&quot;font-size: 16px;&quot;&gt;$$h_{v}$$&lt;/font&gt;" style="text;html=1;strokeColor=none;fillColor=none;align=center;verticalAlign=middle;whiteSpace=wrap;rounded=0;shadow=0;fontSize=16;" parent="1" vertex="1">
          <mxGeometry x="398" y="627.06" width="20" height="15.94" as="geometry" />
        </mxCell>
        <mxCell id="EiaWENK0sWJ-y4MaInz0-136" style="edgeStyle=orthogonalEdgeStyle;rounded=0;orthogonalLoop=1;jettySize=auto;html=1;exitX=1;exitY=0.5;exitDx=0;exitDy=0;" parent="1" source="EiaWENK0sWJ-y4MaInz0-100" edge="1">
          <mxGeometry relative="1" as="geometry">
            <mxPoint x="730" y="781" as="targetPoint" />
          </mxGeometry>
        </mxCell>
        <mxCell id="EiaWENK0sWJ-y4MaInz0-100" value="" style="triangle;whiteSpace=wrap;html=1;" parent="1" vertex="1">
          <mxGeometry x="649.4100000000001" y="735.8399999999999" width="60.5" height="90" as="geometry" />
        </mxCell>
        <mxCell id="EiaWENK0sWJ-y4MaInz0-112" value="" style="edgeStyle=orthogonalEdgeStyle;rounded=0;orthogonalLoop=1;jettySize=auto;exitX=1;exitY=0.5;exitDx=0;exitDy=0;entryX=0.5;entryY=1;entryDx=0;entryDy=0;curved=1;strokeColor=#FF6666;strokeWidth=3;textOpacity=50;" parent="1" source="EiaWENK0sWJ-y4MaInz0-101" target="EiaWENK0sWJ-y4MaInz0-106" edge="1">
          <mxGeometry relative="1" as="geometry" />
        </mxCell>
        <mxCell id="EiaWENK0sWJ-y4MaInz0-115" style="edgeStyle=orthogonalEdgeStyle;rounded=0;orthogonalLoop=1;jettySize=auto;html=1;exitX=1;exitY=0.5;exitDx=0;exitDy=0;entryX=0.5;entryY=0;entryDx=0;entryDy=0;curved=1;strokeWidth=3;strokeColor=#3399FF;textOpacity=50;" parent="1" source="EiaWENK0sWJ-y4MaInz0-101" target="EiaWENK0sWJ-y4MaInz0-114" edge="1">
          <mxGeometry relative="1" as="geometry" />
        </mxCell>
        <mxCell id="EiaWENK0sWJ-y4MaInz0-101" value="" style="triangle;whiteSpace=wrap;html=1;" parent="1" vertex="1">
          <mxGeometry x="469.5" y="738.7" width="60.5" height="90.1" as="geometry" />
        </mxCell>
        <mxCell id="EiaWENK0sWJ-y4MaInz0-104" style="edgeStyle=orthogonalEdgeStyle;rounded=0;orthogonalLoop=1;jettySize=auto;html=1;exitX=1;exitY=0.5;exitDx=0;exitDy=0;entryX=0;entryY=0.25;entryDx=0;entryDy=0;strokeWidth=3;strokeColor=#FF6666;" parent="1" source="EiaWENK0sWJ-y4MaInz0-36" target="EiaWENK0sWJ-y4MaInz0-101" edge="1">
          <mxGeometry relative="1" as="geometry">
            <mxPoint x="447" y="703" as="sourcePoint" />
          </mxGeometry>
        </mxCell>
        <mxCell id="EiaWENK0sWJ-y4MaInz0-105" style="edgeStyle=orthogonalEdgeStyle;rounded=0;orthogonalLoop=1;jettySize=auto;html=1;exitX=1;exitY=0.5;exitDx=0;exitDy=0;entryX=0;entryY=0.75;entryDx=0;entryDy=0;strokeWidth=3;strokeColor=#3399FF;" parent="1" source="EiaWENK0sWJ-y4MaInz0-57" target="EiaWENK0sWJ-y4MaInz0-101" edge="1">
          <mxGeometry relative="1" as="geometry">
            <mxPoint x="448" y="880" as="sourcePoint" />
          </mxGeometry>
        </mxCell>
        <mxCell id="EiaWENK0sWJ-y4MaInz0-83" value="$$D_{w}$$" style="text;html=1;strokeColor=none;fillColor=none;align=center;verticalAlign=middle;whiteSpace=wrap;rounded=0;shadow=0;fontSize=16;" parent="1" vertex="1">
          <mxGeometry x="479.5" y="773.1300000000001" width="30.09" height="21.25" as="geometry" />
        </mxCell>
        <mxCell id="EiaWENK0sWJ-y4MaInz0-139" style="edgeStyle=orthogonalEdgeStyle;rounded=0;orthogonalLoop=1;jettySize=auto;html=1;exitX=1;exitY=0.5;exitDx=0;exitDy=0;endArrow=none;endFill=0;strokeWidth=3;strokeColor=#FF6666;" parent="1" source="EiaWENK0sWJ-y4MaInz0-106" edge="1">
          <mxGeometry relative="1" as="geometry">
            <mxPoint x="590" y="744" as="targetPoint" />
          </mxGeometry>
        </mxCell>
        <mxCell id="EiaWENK0sWJ-y4MaInz0-106" value="" style="whiteSpace=wrap;html=1;aspect=fixed;fillColor=#FF6666;" parent="1" vertex="1">
          <mxGeometry x="550.0000000000001" y="734.3299999999998" width="20" height="20" as="geometry" />
        </mxCell>
        <mxCell id="EiaWENK0sWJ-y4MaInz0-55" value="" style="group;fillColor=#3399FF;container=0;" parent="1" vertex="1" connectable="0">
          <mxGeometry x="398" y="825.0000000000001" width="20" height="80" as="geometry" />
        </mxCell>
        <mxCell id="EiaWENK0sWJ-y4MaInz0-56" value="" style="rounded=0;whiteSpace=wrap;html=1;container=0;fillColor=#3399FF;" parent="1" vertex="1">
          <mxGeometry x="398" y="825.0000000000001" width="20" height="20" as="geometry" />
        </mxCell>
        <mxCell id="EiaWENK0sWJ-y4MaInz0-57" value="" style="rounded=0;whiteSpace=wrap;html=1;container=0;fillColor=#3399FF;" parent="1" vertex="1">
          <mxGeometry x="398" y="845.0000000000001" width="20" height="20" as="geometry" />
        </mxCell>
        <mxCell id="4302Krz3ayCRn5l8homN-4" style="edgeStyle=orthogonalEdgeStyle;rounded=0;orthogonalLoop=1;jettySize=auto;html=1;exitX=1;exitY=0.5;exitDx=0;exitDy=0;strokeWidth=3;strokeColor=#3399ff;" parent="1" source="EiaWENK0sWJ-y4MaInz0-58" edge="1">
          <mxGeometry relative="1" as="geometry">
            <mxPoint x="610" y="805" as="targetPoint" />
            <Array as="points">
              <mxPoint x="590" y="875" />
              <mxPoint x="590" y="805" />
            </Array>
          </mxGeometry>
        </mxCell>
        <mxCell id="EiaWENK0sWJ-y4MaInz0-58" value="" style="rounded=0;whiteSpace=wrap;html=1;container=0;fillColor=#3399FF;" parent="1" vertex="1">
          <mxGeometry x="398" y="865.0000000000001" width="20" height="20" as="geometry" />
        </mxCell>
        <mxCell id="EiaWENK0sWJ-y4MaInz0-59" value="" style="rounded=0;whiteSpace=wrap;html=1;container=0;fillColor=#3399FF;" parent="1" vertex="1">
          <mxGeometry x="398" y="885.0000000000001" width="20" height="20" as="geometry" />
        </mxCell>
        <mxCell id="EiaWENK0sWJ-y4MaInz0-123" style="edgeStyle=orthogonalEdgeStyle;rounded=0;orthogonalLoop=1;jettySize=auto;html=1;exitX=1;exitY=0.5;exitDx=0;exitDy=0;endArrow=none;endFill=0;strokeWidth=3;strokeColor=#3399FF;" parent="1" source="EiaWENK0sWJ-y4MaInz0-114" edge="1">
          <mxGeometry relative="1" as="geometry">
            <mxPoint x="590" y="829" as="targetPoint" />
          </mxGeometry>
        </mxCell>
        <mxCell id="EiaWENK0sWJ-y4MaInz0-114" value="" style="whiteSpace=wrap;html=1;aspect=fixed;fillColor=#3399FF;" parent="1" vertex="1">
          <mxGeometry x="550.0000000000001" y="818.7899999999998" width="20" height="20" as="geometry" />
        </mxCell>
        <mxCell id="EiaWENK0sWJ-y4MaInz0-118" value="&lt;font style=&quot;font-size: 16px;&quot;&gt;$$w_{v}$$&lt;/font&gt;" style="text;html=1;strokeColor=none;fillColor=none;align=center;verticalAlign=middle;whiteSpace=wrap;rounded=0;shadow=0;fontSize=16;" parent="1" vertex="1">
          <mxGeometry x="550" y="717.96" width="20" height="11.87" as="geometry" />
        </mxCell>
        <mxCell id="EiaWENK0sWJ-y4MaInz0-119" value="&lt;font style=&quot;font-size: 16px;&quot;&gt;$$w_{v}$$&lt;/font&gt;" style="text;html=1;strokeColor=none;fillColor=none;align=center;verticalAlign=middle;whiteSpace=wrap;rounded=0;shadow=0;fontSize=16;" parent="1" vertex="1">
          <mxGeometry x="550" y="840.21" width="20" height="8.79" as="geometry" />
        </mxCell>
        <mxCell id="EiaWENK0sWJ-y4MaInz0-90" value="$$D$$" style="text;html=1;strokeColor=none;fillColor=none;align=center;verticalAlign=middle;whiteSpace=wrap;rounded=0;shadow=0;fontSize=16;" parent="1" vertex="1">
          <mxGeometry x="665.2700000000001" y="765.9" width="20.82" height="30" as="geometry" />
        </mxCell>
        <mxCell id="EiaWENK0sWJ-y4MaInz0-134" style="edgeStyle=orthogonalEdgeStyle;rounded=0;orthogonalLoop=1;jettySize=auto;html=1;exitX=1;exitY=0.5;exitDx=0;exitDy=0;strokeWidth=1;" parent="1" source="EiaWENK0sWJ-y4MaInz0-127" edge="1">
          <mxGeometry relative="1" as="geometry">
            <mxPoint x="720" y="628" as="targetPoint" />
          </mxGeometry>
        </mxCell>
        <mxCell id="EiaWENK0sWJ-y4MaInz0-127" value="" style="triangle;whiteSpace=wrap;html=1;" parent="1" vertex="1">
          <mxGeometry x="633" y="588" width="60" height="80" as="geometry" />
        </mxCell>
        <mxCell id="EiaWENK0sWJ-y4MaInz0-128" value="$$C$$" style="text;html=1;strokeColor=none;fillColor=none;align=center;verticalAlign=middle;whiteSpace=wrap;rounded=0;shadow=0;fontSize=16;" parent="1" vertex="1">
          <mxGeometry x="643.5" y="613" width="20.82" height="30" as="geometry" />
        </mxCell>
        <mxCell id="EiaWENK0sWJ-y4MaInz0-135" value="Goodware or Malware?" style="text;html=1;strokeColor=none;fillColor=none;align=center;verticalAlign=middle;whiteSpace=wrap;rounded=0;" parent="1" vertex="1">
          <mxGeometry x="719.91" y="613" width="60" height="30" as="geometry" />
        </mxCell>
        <mxCell id="EiaWENK0sWJ-y4MaInz0-137" value="Source&lt;br&gt;or&lt;br&gt;Target?" style="text;html=1;strokeColor=none;fillColor=none;align=center;verticalAlign=middle;whiteSpace=wrap;rounded=0;" parent="1" vertex="1">
          <mxGeometry x="720" y="765.9000000000001" width="60" height="30" as="geometry" />
        </mxCell>
        <mxCell id="EiaWENK0sWJ-y4MaInz0-138" style="edgeStyle=orthogonalEdgeStyle;rounded=0;orthogonalLoop=1;jettySize=auto;html=1;exitX=1;exitY=0.5;exitDx=0;exitDy=0;strokeWidth=3;strokeColor=#FF6666;" parent="1" source="EiaWENK0sWJ-y4MaInz0-35" edge="1">
          <mxGeometry relative="1" as="geometry">
            <mxPoint x="610" y="760" as="targetPoint" />
            <Array as="points">
              <mxPoint x="590" y="678" />
              <mxPoint x="590" y="760" />
            </Array>
          </mxGeometry>
        </mxCell>
        <mxCell id="EiaWENK0sWJ-y4MaInz0-39" value="" style="group;fillColor=#FF6666;" parent="1" vertex="1" connectable="0">
          <mxGeometry x="397" y="648.0000000000001" width="20" height="80" as="geometry" />
        </mxCell>
        <mxCell id="EiaWENK0sWJ-y4MaInz0-33" value="" style="rounded=0;whiteSpace=wrap;html=1;container=0;fillColor=#FF6666;" parent="EiaWENK0sWJ-y4MaInz0-39" vertex="1">
          <mxGeometry width="20" height="20" as="geometry" />
        </mxCell>
        <mxCell id="EiaWENK0sWJ-y4MaInz0-35" value="" style="rounded=0;whiteSpace=wrap;html=1;container=0;fillColor=#FF6666;" parent="EiaWENK0sWJ-y4MaInz0-39" vertex="1">
          <mxGeometry y="20" width="20" height="20" as="geometry" />
        </mxCell>
        <mxCell id="EiaWENK0sWJ-y4MaInz0-36" value="" style="rounded=0;whiteSpace=wrap;html=1;container=0;fillColor=#FF6666;" parent="EiaWENK0sWJ-y4MaInz0-39" vertex="1">
          <mxGeometry y="40" width="20" height="20" as="geometry" />
        </mxCell>
        <mxCell id="EiaWENK0sWJ-y4MaInz0-37" value="" style="rounded=0;whiteSpace=wrap;html=1;container=0;fillColor=#FF6666;" parent="EiaWENK0sWJ-y4MaInz0-39" vertex="1">
          <mxGeometry y="60" width="20" height="20" as="geometry" />
        </mxCell>
        <mxCell id="EiaWENK0sWJ-y4MaInz0-141" value="" style="endArrow=none;dashed=1;html=1;rounded=0;strokeWidth=3;" parent="1" edge="1">
          <mxGeometry width="50" height="50" relative="1" as="geometry">
            <mxPoint x="450" y="960" as="sourcePoint" />
            <mxPoint x="450" y="570" as="targetPoint" />
          </mxGeometry>
        </mxCell>
        <mxCell id="EiaWENK0sWJ-y4MaInz0-142" value="&lt;font style=&quot;font-size: 16px;&quot;&gt;&lt;b&gt;(b) Graph Representation Learning Module&lt;/b&gt;&lt;/font&gt;" style="text;html=1;strokeColor=none;fillColor=none;align=center;verticalAlign=middle;whiteSpace=wrap;rounded=0;" parent="1" vertex="1">
          <mxGeometry x="76" y="960" width="342" height="22.19" as="geometry" />
        </mxCell>
        <mxCell id="EiaWENK0sWJ-y4MaInz0-143" value="&lt;font style=&quot;font-size: 16px;&quot;&gt;&lt;b&gt;(c) Domain Adversarial Learning Module&lt;/b&gt;&lt;/font&gt;" style="text;html=1;strokeColor=none;fillColor=none;align=center;verticalAlign=middle;whiteSpace=wrap;rounded=0;" parent="1" vertex="1">
          <mxGeometry x="460" y="960" width="340" height="22.19" as="geometry" />
        </mxCell>
        <mxCell id="aqfIlqZua8wNAoRfI1L8-61" style="rounded=0;orthogonalLoop=1;jettySize=auto;html=1;exitX=1;exitY=0.75;exitDx=0;exitDy=0;entryX=0;entryY=0.5;entryDx=0;entryDy=0;" parent="1" source="aqfIlqZua8wNAoRfI1L8-3" target="aqfIlqZua8wNAoRfI1L8-13" edge="1">
          <mxGeometry relative="1" as="geometry" />
        </mxCell>
        <mxCell id="aqfIlqZua8wNAoRfI1L8-62" style="rounded=0;orthogonalLoop=1;jettySize=auto;html=1;exitX=0;exitY=0.5;exitDx=0;exitDy=0;entryX=1;entryY=0.5;entryDx=0;entryDy=0;" parent="1" source="aqfIlqZua8wNAoRfI1L8-3" target="aqfIlqZua8wNAoRfI1L8-12" edge="1">
          <mxGeometry relative="1" as="geometry" />
        </mxCell>
        <mxCell id="aqfIlqZua8wNAoRfI1L8-3" value="" style="shape=image;verticalLabelPosition=bottom;verticalAlign=top;imageAspect=0;aspect=fixed;image=data:image/png,iVBORw0KGgoAAAANSUhEUgAAAMgAAADICAYAAACtWK6eAAAAAXNSR0IArs4c6QAADYtJREFUeF7tnU123LgOhcFy9tHlHfSJex57JYkn9vMq4qwinUzst5JU5rFP76C1kOfiO5RdTllVkggQogTyZtSdECR4gY+g/liO8AcKQIFeBRy0gQJQoF8BAILsgAIDCgAQpAcUACDIASggUwAVRKYbrCpRAIBUEmhMU6YAAJHpBqtKFAAglQQa05QpAEBkusGqEgUASCWBxjRlCgAQmW6wqkQBAHIk0O+/+0+rJ2p+3bhNDXnw11d/vj2h9eOVu69hvpw5ApCOWgEO5+ku/LUnun28dl84glprG+DwK/rRztfRJSB5G0EA0sno/YQhouZpSxf/3LjGWuLH+PvnV78+WdG/u7YA5FA1ANLRpE2aE7ojT+cv/9Q8XLvTmISz1ubsu/9RwzxT4gJAjqh3sLIWuNV6/81/dkS3u+m7LV3Ucs3FAQaA9KjVSaDGbemylASqYQHgQDDUFoD0qFPyVuvN1srR5uHKXWglVGn9AJCBiHZXWvJ0//Afd2k5CbC14kUPgIzotX/bN9zVsrzV6tyhq+I2Ng8H3MUS6VXK3R5srfjhRwWJ0GzKrVboe+fCO6L2v/9H1D530Xz+cva3vyNHn3ZjPW3pVLP/CBlNNgEgkWHrbLWIc1s0QLA6oXPy9IfztKYVrfeeP8R48Pyg0lP76otf0U/OqzDdrRXH9xjnSm4DQBjR7azCvU/ZWyBW9NG5FordA0fGSNFNG3LUeE+b1ZZ+9t2GPvvmw9Py50qFu1bR4j7LhT/RCrxstcJ7S8/JtndX6xWKvYdv0R3rNWxClQkVZvdOVSnXT3oS8XoCIDy9qLtdCZDs7+2Z3U3ZvIVl3zdsrfhyAxC+ZtS94BV0kd8EWyuR5gCEIduRp+sM60U0Nf0cZw4FAUiE6i0Yjj4vdCsVMYODJgAlUjUAMiJU99WMSF1tNCvg1ZmphQYgPQq/XIyHLwtfH+RNHYyZ+m+8oy/4kvC4+gDkiC5FV40eCmv4vFiyAAGQPdUKuAiX5MC+TdGfGEvEASAvqh28byVRswwbXMDvxRGAEB0+/Csj0VNm0Xii+9JPdIkRqHpADp6Mx6hWRxtAUvu7WAlwtMkTXhAMrIRD15ynz4u64+Vos3uJsfVvSx8kz3Fqv3ivtoKI4eh5drCQlxXb2tb3ztXBy5aRlbBmSKoERAzHyPtMS7gLNnb4m/BmRLUX7tUBIkyQdq2N+Qovpf/IBX2oWdQhd8LnPFXeAq4OkM73EaycfLh2UXqdffOe1bFW48hXR8QVlCgKQK3pLKGfqIAvwVENH4Qr5/PQjNfF33zBp+F4ZB+x1wpJVS4SwkiXF9+sGkASVs1dEKNXz9kqSCTE3e/rmVla1fVINYCkbK12CRTzRV5i8jFz9aB5FMQKH3xFjZM6mSXYVwFI0tbqbZRGE0MDxKTEGNkCKVTSZ/cq2WpVAYjqlsfR5umJLrtnSi3hFu8LWL1PwJVf4a/irlbxgChWj/2F/fX0kHDW1fM1/O+fEkiqAHrGb3yc5AiiCqpI8YCoVg+95C2lp+KrSNGATFQ9SklunXkUXkWKBmSu5xE6mWeml9EbF2ZmcsTRYgGZ+Xar5Zxg+x5z+5vd6UIMigVE4V7/QkJkwI3IB5QGZnLgYrmA7B/YbDEytnwudptVJCDYXuWnq9RtVpGAYHuVH5BSn6wDkBlyqcghC70OKRMQXH/MwWCR1yGlAjLPB0tzpOWCxoz54nJB7ka5Uhwgam+rRsmHRvsKlHihXiYgJ+0RPPiTWQFP9N/SDsEuDpDMOYHhClcAgBQeYEwvTQEAkqYfrAtXAIAUHmBML00BAJKmH6wLVwCAFB5gTC9NgUUAsjv4eTeVcGr6rxu3kU4tvKwotYWdXIHVEzWSuIX4vyNab1f0wXla+xX9lPYl9/645WyARP60Mvs3KvCgUDtFGP0xP7+NiFUTRn/a0kX3FBmGV0lNZwGE/a24p/snT19iRIoQPUkwGA8oEAmI4Igk9kKpFafsgCQcrBZ15CUA0UoNQT8RgCTGJ/sLkVkBYVeOwxiNCpQYAEFWwORVgQhAEhbI52EixtCMSDZA1BI319GamirX0tdIbBQWyKBk1E5CS/JsgCSvHL9nPCiQGohaCtfUzwAgynEZ3UloyZ4FEPVvxAe+XlMOhJbOdfQzAIj2Z9C5Xq23CcjALx0BkBlZHAJE+SvP2B8LSlUjCyDaq0fYhz5cu9NjkwcgqSmRYD8MiO5Xnpm+gc8DiPLqEULYV2IBSEKCp5r2ADJRTLJch+QCRHf1CHf7HF0e+3ptomCkpk4d9j2AqF+DvqgZ+6OqKeIDkBT1YPtWAQAiy4gpfqMDFUQWi0mtAIhMXgAi082cFQCRhQyAyHQzZwVAZCEDIDLdzFkBEFnIAIhMN3NWAEQWMgAi082cFQCRhQyAyHQzZwVAZCEDIDLdzFkBEFnIAIhMN3NWAEQWMgAi082cFQCRhQyAyHQzZwVAZCEDIDLdzFkBEFnIAIhMN3NWAEQWMgAi082cFQCRhQyAyHQzZwVAZCEDIDLdzFkBEFnIAIhMN3NWAEQWMgAi082cFQCRhQyAyHQzZwVAZCEDIDLdzFkBEFnIAIhMN3NWAEQWMgAi082cFQCRhQyAyHQzZwVAZCEDIDLdzFkBEFnIAIhMN3NWAEQWMgAi082cFQCRhQyAyHQzZwVAZCEDIDLdzFkBEFnIAIhMN3NWAEQWMgAi082cFQCRhQyAyHQzZwVAZCEDIDLdzFkBEFnIAIhMN3NWAEQWMgAi082cFQCRhQyAyHQzZwVAZCEDIDLdzFkBEFnIAIhMN3NWAEQWMgAi082cFQCRhQyAyHQzZwVAZCEDIDLdzFkBEFnIAIhMN3NWPYD89dWf+xX90J7Pw7Vz2n12+5t8gDDg2Xf/gzyda07maUun/9y4ptvnVMHQ9L3YvnoA+fOrX5+s6F/VefeMpToGEWUB5P03/9kR3Wo637d6ABBNlZl9DSSt+i6iJEDUk3ZAHPWxmDlSdfMhQJR3Ed7R5eOVu59a7ywVRL3EApCp80LW/0Bc3n/3n5ynO1nHh1Z9W2yt/nf9ZAEkDKa4zWoert1pnxCoINopwuhvAJCXRTJcqK8ZPR5vmml7FQbPBoiWQG5LF79u3AaAJKeZfgcjiau0eA0ukNqTygZIcDxZoIiVI3kMbYVr6i8iPqk7ibEFUlvurIDsQRL2oqxS64luH6/dlzEBAMiYQhP+ewQgYSexWtFHwV3Nxm3pcmj3MMXMsgMSJsEUiSUMAJkiTSL7jABk1xNry+1o83DlLiK9UG02CyC7GbR3Nrb0gVa07jxIbMjTxjtqYqrGviIARDU/eJ0xAHldKE/ovM0B1z5I3t9VNJ6ovY3LzQGe08OtZwVk37WwooT/P/Z0nDNhAMJRS7ktE5Du6CEH3hGtc2+jhlRYDCBaoQIgWkoK+kkERDDi5CYAZHKJKxoAgCw/2KggM8YIgMwofuTQACRSqCmaAZApVNXtE4Do6snqDYCw5JqlMQCZRfbnQQHIjOJHDg1AIoWaohkAmUJV3T4BiK6erN4ACEuuWRoDkFlkxxZrRtlZQwMQlly6jVFBdPWcojcAMoWqkX0CkEihZmwGQGYUH4DMKH7k0AAkUqgpmgGQKVTV7VP9gAhd98ruDYDYiO/ZNx8OKWN9sWhjZsv2MtdRPDlVKO5t3iDeFCc55gyK1bFyHcWTU58iAdE+gylnQMyONeNnsVNqViQgbRX529+Ro09Tioe+fytQYvUIsysWENahAMj0JAVyH8WT5CzTuFhAgg7M01OY0qE5EbFOnLGoWNGA7ALSPhtx9PHI6SkWYza3zw05arynzZynjeQSoQpA9sXcnZ4yJvAqHEejeNjybrywVx8be+jfhYeujQ4Z41fqiTOjTiywQXWAxMZgojthyefKph7d2TP/ZL9idbXWDoD0RAyAWEvlafwFIAAkKIAK0pMHAASAAJCB4gNAAAgAASD8/SmuQfialWiBCoIKggqCCsJf21BB+JqVaIEKggqCCoIKwl/bUEH4mpVogQqCCoIKggrCX9tQQfialWiBCoIKggqCCsJf21BB+JqVaIEKggqCCoIKwl/bUEH4mpVogQqCCoIKggrCX9tQQfialWiBCoIKggqCCsJf21BB+JqVaIEKggqCCoIKwl/bUEH4mpVogQqCCoIKggrCX9sm+SEehd/PWKpffIVtWKCC9MRpkh/iUQBkCr880W0NpyRKkAQgA6pp/86I1g/MaP9AkJZfkgRcug0AyQiI1k8EaIOr5dfSk13iHwAZUE11O6P4AzOqfils+ySJZ8UGgIxESuss3Idrp6q1kl84UXEk/qpBs7IqcPxsV+sTuiNP5xy7/bZT/MDMUv2SarRUOwASEZmUX6ua8g5Rkl+OLh+v3H3E9KtuAkAiwy/4taosv760VL8iZV18MwDCDFHE1qbxRPe5nyss1S+mvItrDkASQtKu3id0Tp7+WG3p568bt0noTs10qX6pTTBjRwAko9gYyp4CAMRezOBxRgUASEaxMZQ9BQCIvZjB44wKAJCMYmMoewoAEHsxg8cZFQAgGcXGUPYUACD2YgaPMyoAQDKKjaHsKQBA7MUMHmdUAIBkFBtD2VMAgNiLGTzOqMD/AdgER1AX5I4eAAAAAElFTkSuQmCC" parent="1" vertex="1">
          <mxGeometry x="-50" y="858.8400000000001" width="28" height="28" as="geometry" />
        </mxCell>
        <mxCell id="aqfIlqZua8wNAoRfI1L8-57" style="rounded=0;orthogonalLoop=1;jettySize=auto;html=1;exitX=0.5;exitY=1;exitDx=0;exitDy=0;entryX=0.25;entryY=0;entryDx=0;entryDy=0;" parent="1" source="aqfIlqZua8wNAoRfI1L8-4" target="aqfIlqZua8wNAoRfI1L8-8" edge="1">
          <mxGeometry relative="1" as="geometry" />
        </mxCell>
        <mxCell id="aqfIlqZua8wNAoRfI1L8-4" value="" style="shape=image;verticalLabelPosition=bottom;verticalAlign=top;imageAspect=0;aspect=fixed;image=data:image/png,iVBORw0KGgoAAAANSUhEUgAAAMgAAADICAYAAACtWK6eAAAAAXNSR0IArs4c6QAADXhJREFUeF7tnVt227oOhkllIDsdSdORNHmIm1k0nYW385CckSQZyfZELJ5FyU59k0SAICWQv1/a1RK8/MBHUKJEWYMfFIACgwpYaAMFoMCwAgAE0QEFRhQAIAgPKABAEANQgKcAMghPN1hVogAAqcTRGCZPAQDC0w1WlSgAQCpxNIbJUwCA8HSDVSUKAJBKHI1h8hQAIDzdYFWJAgDkiqPd4+O9ubnZ2vX6o4Y4cE9Pd2a3u7UvL281jJcyRgByplYHh7Wv+39+tpvNH4qg2sp2cLTte9dv5x4AyakHAcg5IMcBY8zWNM0Pu15vtQV+SH/d09Otadv/vsoCkAvZAMglILdmt3s11t7t/2trN5tvIQGnrYx7fHyvYZwxfgEg165BzmdWY4pbarnV6rcx5vlr+H2mrOKaiwIMABlQ6yyA/FLroZQAulhaFTgBUCAYKwtAhgDxWaTQpdbJ0sq5D/vy8kMqoEqrB4CMePRiprX2zf7774PmIMDSiuY9ADKh19ltX9VLrZNbuv24i7u2ooX/dGkAMq2RKeVuD5ZWAc4+KwJAAjRLudTq6v77O/y923eR3H9xv369Gufuj+5afZOsP0BGlUUASKDbzpZaZr+BGHRbtINgt7sz1v5jrPWbc7dH+w8hPeg3Kq3t22vbT8qjMBdLK9zSDdG8lzy4JAqas1l4cJd9n3F+Guc8FIcNxxQKbo1z2w6cpvkcug3tViu/W95nJ9y1IvkBgBDk2ge+f26pD7aju1pfUBxvvhHqFiraw9K2n4dnqkq5fhLSh1wNACFKdrFcsfbtZG1PrC9h8R6W0+sO7JYTBQcgRMG6Vcr5BS+jjuwmWFqxJAcgBNn2F9vHDzISrBdRVPU+zhwKApAA1TswnPu90KVUwAguigCUQNUAyIRQF49mBAqrolgBj86k1hmADCi8vxj3bxYeb+Sl9scc9ftbxX/wJuF16QHIFV2KzhrDCOK5rCvaAJAjUQq4CI/NQEW/YswRB4DsVbvyEhFHzxJscAF/5EUA4vc1Tg9qKCHIY8fgn/16K/1ElxCRqgcEcAyGCSCp/WHFCDi64PEPCHbhtdv5p3P9IQjLuePl3MfhIcauf03znbmPU/XFe7UZhA3HwN7BQh5W7NPBwOPsFw9bhqwx+jLVQlIlIGw4Jp5nWsRdsInD35g3I6q9cK8OEGaAHGbmybfwouoPn9GHSgYdcsfc56nyFnB9gJyeJkgKSbvZBOnlVitHqliqcOCjI+wMakwQgFLDWUI9QQ5fQkcl+sCcOfumCY+Ln7zBJ9Hx8DqCrhWislwghOFdXnbJagCJmDUPHgyePWfLIIEQX7xfT4vRqq5H6gEkYmn1FT8Bhx1EBh8tVC9LB0Es8MJXUDuxg1mCfRWARC2tTr00GRhn74Dn9/HEEkggk/ZjqmSpVQsgchfNfgPu5sYfZH3yzZBF3OLtQ3dwB1z4Ef4q7moVD4hg9jjOBl+nh3RnXfW/v58SyJ83rrV42scURxBVkEVqAEQueywj8JfUi+KzSNGAJMoeSwrQ+ftSeBYpHZC/JwrOH0ql9mDyxoXmgRcLyMy3WzXHBL3vAbe/6ZUuw6JcQDQe7raMmKD3InCDkl7x/BblAnJ8YPP8Opfeg2KXWUUCguXVDDwWuswqExAsr/ITUujdLACSP5TKbLHQ65AyAcH1xxwQFnkdUiog2D2fA5GmmXzjco5uxbRZHCBiT6vGqFqrbYEX6mUCstv5I3jwy6/A/0o7BLs4QPLHBFosWQEAUrJ3MbZoBQBItISooGQFAEjJ3sXYohUAINESooKSFQAgJXsXY4tWYBGAHB383A+oaT7tev3BHV33sCJ++RW4udly/Nb535+M37bfjbX+z0/DrEt60LMBEvhpZfI3KrBRKB0ihPqIDywG+Ko/OabfgDw5RYbQq6iiswBCflfc2jdj7Z8QkQJEjxIMxiMKBALCOCKJPFFK+Sk7IBEHqwUdeQlApEKDUU8AIJH+yf5AZFZAyJnj0keTAkU6gBEVMPlSIASQ2CNgA9qQ9Eg2QMQCN9fRmpIq11LXlG9WK/+MXOwBe0ErCSnJ8wESO3P8HfGoQGIgSilcUz0jgAj7ZXIlISV7FkDE3xEfeXtN2BFSOtdRzxgg0q9BZ3q0XicgI186AiAzsjgGiPxbnkEfC4pVIw8g0rMHAIn1exr7cUBk3/LM9A58HkDkZ4+xTx3fmbZ9TxMBqHVUgeFPZKfwSZbrkFyAyM4e3ksDnzvGEmtGiIcA8Y/+WPsq3bPQj6rGtAtAYtSD7akCAIQXEUk+aokMwnNGSisAwlMXgPB0U2cFQHguAyA83dRZARCeywAITzd1VgCE5zIAwtNNnRUA4bkMgPB0U2cFQHguAyA83dRZARCeywAITzd1VgCE5zIAwtNNnRUA4bkMgPB0U2cFQHguAyA83dRZARCeywAITzd1VgCE5zIAwtNNnRUA4bkMgPB0U2cFQHguAyA83dRZARCeywAITzd1VgCE5zIAwtNNnRUA4bkMgPB0U2cFQHguAyA83dRZARCeywAITzd1VgCE5zIAwtNNnRUA4bkMgPB0U2cFQHguAyA83dRZARCeywAITzd1VgCE5zIAwtNNnRUA4bkMgPB0U2cFQHguAyA83dRZARCeywAITzd1VgCE5zIAwtNNnRUA4bkMgPB0U2cFQHguAyA83dRZARCeywAITzd1VgCE5zIAwtNNnRUA4bkMgPB0U2cFQHguAyA83dRZARCeywAITzd1VgCE5zIAwtNNnRUA4bkMgPB0U2cFQHguAyA83dRZARCeywAITzd1VgCE5zIAwtNNndUQIE9Pd6Zt36XHYzcbK13neX3JG/ANusfHd2PtnehgmuabXa+353W6RM4Q7XuplQ0Dcmva9j/RYQ+0JdqGMSYPIKvVb2PMs2Tnh2YPACKpMrGukaAVX0UUBYj0rD7mCOm2iDFSdfExv0ivIpx7sC8vb6n1zpNBnp5kUywASR0XvPrHAbk31r7yKr5iNbDEFqt/X1EWQLrrELll1tZuNt+GhMASSzpECPWNT1x+kvQX6reEGq8XzbS88o3nA6TPIvECNc0Pu15/AJDoMJOvYCJwhSav0QlSelDZAOmySOz1QcDMEd2GtMI11Rfin9iVxMQEKS13VkCOIPFrUWqqfbabzZ8pAQDIlEIJ/z8EkH4l8ZNxV3NrmuZhbPWQYmTZAdlDQhGJJAwASREmgXUGAHKoyVGW3M592JeXH4G9EC02CyBfIj0+3pum+W7a9vZsI3FrrP0wzvn15mTWOFYEgIjGB60yAiBfE+Vud9fFgHN+I/l4VeE3gbvbuNQYoHV6vPSsgJwFdifOtd1xyoABCEUt4bJEQM5b77KKMbe5l1FjKiwGEClXARApJRn1RALCaDG5CQBJLnFFDQCQ5TsbGWRGHwGQGcUPbBqABAqVohgASaGqbJ0ARFZPUm0AhCTXLIUByCyy940CkBnFD2wagAQKlaIYAEmhqmydAERWT1JtAIQk1yyFAcgssmOJNaPspKYBCEku2cLIILJ6pqgNgKRQNbBOABIo1IzFAMiM4gOQGcUPbBqABAqVohgASaGqbJ379wxkz2CS7WK5tQEQHb51q5UHhPrGoo7BLbmXmY7iySlBcU/zevGSnOSY0yta28p0FE9OeUoFRPYMppwe0drWjK/FppSsSEC6LPLr16tx7j6leKj7SIECs4cfXbmAUA4FQKTHKZD5KJ64ztKsiwWkyyL8I2ZoKtZbmnTijEaZigbk4JBub8S5n1dOT9Hos7n7vPWnzfhTZ+Y8bSSXCFUAcizm/uSMaX39cTSShy0fWmyawXOFpztlDPPQtemqA/oVe+LMdCeWV6I6QEJd4PyZXfKARJ8rK3gI+LEU0f0K1VVbOQAy4DEAoi2U0/QXgAAQrwAyyEAcABAAAkBGkg8AASAABIDQ16e4BqFrVqIFMggyCDIIMgh9bkMGoWtWogUyCDIIMggyCH1uQwaha1aiBTIIMggyCDIIfW5DBqFrVqIFMggyCDIIMgh9bkMGoWtWogUyCDIIMggyCH1uQwaha1aiBTIIMggyCDIIfW5DBqFrVqIFMggyCDIIMgh9bkMGoWtWogUyCDIIMggyCH1uQwaha1aiBTIIMggyCDIIfW5L8iEege9nLLVfdIV1WCCDDGWQ/thS2Q/xyAAi3y9jnms4JZGDJAAZUU38OyNCH5gR/0CQUL84Abh0GwCSExChTwSIgyvUr6UHO6d/AGQMEMllluAHZkS/wyiw7OMEnhYbADLhKamzcO1mI6q1UL9wouKE/0WdpmVWoPSzm613u1dj7R3F7qRsgg/MLLVfbI0WaghAAhyzX9K8M7+cm+wOUVS/cGEe4PmCP8EWNHpCIcbXqrJ8fWmp/SJIu+iiyCBE9wQsbbbGmLfc+wpL7RdR3sUVByARLtkHpf8S1T+maT7tev0RUZ2Y6VL7JTbAjBUBkIxioyl9CgAQfT5DjzMqAEAyio2m9CkAQPT5DD3OqAAAySg2mtKnAADR5zP0OKMCACSj2GhKnwIARJ/P0OOMCgCQjGKjKX0KABB9PkOPMyoAQDKKjab0KQBA9PkMPc6owP8BJINSUI2RfdAAAAAASUVORK5CYII=" parent="1" vertex="1">
          <mxGeometry x="-50" y="677.5200000000001" width="28" height="28" as="geometry" />
        </mxCell>
        <mxCell id="aqfIlqZua8wNAoRfI1L8-5" value="" style="endArrow=classic;html=1;rounded=0;" parent="1" edge="1">
          <mxGeometry width="50" height="50" relative="1" as="geometry">
            <mxPoint x="-150" y="638.3500000000001" as="sourcePoint" />
            <mxPoint x="-150" y="928.4100000000001" as="targetPoint" />
          </mxGeometry>
        </mxCell>
        <mxCell id="aqfIlqZua8wNAoRfI1L8-53" style="rounded=0;orthogonalLoop=1;jettySize=auto;html=1;exitX=0.5;exitY=1;exitDx=0;exitDy=0;entryX=0.5;entryY=0;entryDx=0;entryDy=0;" parent="1" source="aqfIlqZua8wNAoRfI1L8-6" target="aqfIlqZua8wNAoRfI1L8-7" edge="1">
          <mxGeometry relative="1" as="geometry" />
        </mxCell>
        <mxCell id="aqfIlqZua8wNAoRfI1L8-54" style="rounded=0;orthogonalLoop=1;jettySize=auto;html=1;exitX=1;exitY=0.75;exitDx=0;exitDy=0;entryX=0.25;entryY=0;entryDx=0;entryDy=0;" parent="1" source="aqfIlqZua8wNAoRfI1L8-6" target="aqfIlqZua8wNAoRfI1L8-4" edge="1">
          <mxGeometry relative="1" as="geometry" />
        </mxCell>
        <mxCell id="aqfIlqZua8wNAoRfI1L8-6" value="" style="shape=image;verticalLabelPosition=bottom;verticalAlign=top;imageAspect=0;aspect=fixed;image=data:image/png,iVBORw0KGgoAAAANSUhEUgAAAMgAAADICAYAAACtWK6eAAAAAXNSR0IArs4c6QAADXhJREFUeF7tnVt227oOhkllIDsdSdORNHmIm1k0nYW385CckSQZyfZELJ5FyU59k0SAICWQv1/a1RK8/MBHUKJEWYMfFIACgwpYaAMFoMCwAgAE0QEFRhQAIAgPKABAEANQgKcAMghPN1hVogAAqcTRGCZPAQDC0w1WlSgAQCpxNIbJUwCA8HSDVSUKAJBKHI1h8hQAIDzdYFWJAgDkiqPd4+O9ubnZ2vX6o4Y4cE9Pd2a3u7UvL281jJcyRgByplYHh7Wv+39+tpvNH4qg2sp2cLTte9dv5x4AyakHAcg5IMcBY8zWNM0Pu15vtQV+SH/d09Otadv/vsoCkAvZAMglILdmt3s11t7t/2trN5tvIQGnrYx7fHyvYZwxfgEg165BzmdWY4pbarnV6rcx5vlr+H2mrOKaiwIMABlQ6yyA/FLroZQAulhaFTgBUCAYKwtAhgDxWaTQpdbJ0sq5D/vy8kMqoEqrB4CMePRiprX2zf7774PmIMDSiuY9ADKh19ltX9VLrZNbuv24i7u2ooX/dGkAMq2RKeVuD5ZWAc4+KwJAAjRLudTq6v77O/y923eR3H9xv369Gufuj+5afZOsP0BGlUUASKDbzpZaZr+BGHRbtINgt7sz1v5jrPWbc7dH+w8hPeg3Kq3t22vbT8qjMBdLK9zSDdG8lzy4JAqas1l4cJd9n3F+Guc8FIcNxxQKbo1z2w6cpvkcug3tViu/W95nJ9y1IvkBgBDk2ge+f26pD7aju1pfUBxvvhHqFiraw9K2n4dnqkq5fhLSh1wNACFKdrFcsfbtZG1PrC9h8R6W0+sO7JYTBQcgRMG6Vcr5BS+jjuwmWFqxJAcgBNn2F9vHDzISrBdRVPU+zhwKApAA1TswnPu90KVUwAguigCUQNUAyIRQF49mBAqrolgBj86k1hmADCi8vxj3bxYeb+Sl9scc9ftbxX/wJuF16QHIFV2KzhrDCOK5rCvaAJAjUQq4CI/NQEW/YswRB4DsVbvyEhFHzxJscAF/5EUA4vc1Tg9qKCHIY8fgn/16K/1ElxCRqgcEcAyGCSCp/WHFCDi64PEPCHbhtdv5p3P9IQjLuePl3MfhIcauf03znbmPU/XFe7UZhA3HwN7BQh5W7NPBwOPsFw9bhqwx+jLVQlIlIGw4Jp5nWsRdsInD35g3I6q9cK8OEGaAHGbmybfwouoPn9GHSgYdcsfc56nyFnB9gJyeJkgKSbvZBOnlVitHqliqcOCjI+wMakwQgFLDWUI9QQ5fQkcl+sCcOfumCY+Ln7zBJ9Hx8DqCrhWislwghOFdXnbJagCJmDUPHgyePWfLIIEQX7xfT4vRqq5H6gEkYmn1FT8Bhx1EBh8tVC9LB0Es8MJXUDuxg1mCfRWARC2tTr00GRhn74Dn9/HEEkggk/ZjqmSpVQsgchfNfgPu5sYfZH3yzZBF3OLtQ3dwB1z4Ef4q7moVD4hg9jjOBl+nh3RnXfW/v58SyJ83rrV42scURxBVkEVqAEQueywj8JfUi+KzSNGAJMoeSwrQ+ftSeBYpHZC/JwrOH0ql9mDyxoXmgRcLyMy3WzXHBL3vAbe/6ZUuw6JcQDQe7raMmKD3InCDkl7x/BblAnJ8YPP8Opfeg2KXWUUCguXVDDwWuswqExAsr/ITUujdLACSP5TKbLHQ65AyAcH1xxwQFnkdUiog2D2fA5GmmXzjco5uxbRZHCBiT6vGqFqrbYEX6mUCstv5I3jwy6/A/0o7BLs4QPLHBFosWQEAUrJ3MbZoBQBItISooGQFAEjJ3sXYohUAINESooKSFQAgJXsXY4tWYBGAHB383A+oaT7tev3BHV33sCJ++RW4udly/Nb535+M37bfjbX+z0/DrEt60LMBEvhpZfI3KrBRKB0ihPqIDywG+Ko/OabfgDw5RYbQq6iiswBCflfc2jdj7Z8QkQJEjxIMxiMKBALCOCKJPFFK+Sk7IBEHqwUdeQlApEKDUU8AIJH+yf5AZFZAyJnj0keTAkU6gBEVMPlSIASQ2CNgA9qQ9Eg2QMQCN9fRmpIq11LXlG9WK/+MXOwBe0ErCSnJ8wESO3P8HfGoQGIgSilcUz0jgAj7ZXIlISV7FkDE3xEfeXtN2BFSOtdRzxgg0q9BZ3q0XicgI186AiAzsjgGiPxbnkEfC4pVIw8g0rMHAIn1exr7cUBk3/LM9A58HkDkZ4+xTx3fmbZ9TxMBqHVUgeFPZKfwSZbrkFyAyM4e3ksDnzvGEmtGiIcA8Y/+WPsq3bPQj6rGtAtAYtSD7akCAIQXEUk+aokMwnNGSisAwlMXgPB0U2cFQHguAyA83dRZARCeywAITzd1VgCE5zIAwtNNnRUA4bkMgPB0U2cFQHguAyA83dRZARCeywAITzd1VgCE5zIAwtNNnRUA4bkMgPB0U2cFQHguAyA83dRZARCeywAITzd1VgCE5zIAwtNNnRUA4bkMgPB0U2cFQHguAyA83dRZARCeywAITzd1VgCE5zIAwtNNnRUA4bkMgPB0U2cFQHguAyA83dRZARCeywAITzd1VgCE5zIAwtNNnRUA4bkMgPB0U2cFQHguAyA83dRZARCeywAITzd1VgCE5zIAwtNNnRUA4bkMgPB0U2cFQHguAyA83dRZARCeywAITzd1VgCE5zIAwtNNnRUA4bkMgPB0U2cFQHguAyA83dRZARCeywAITzd1VgCE5zIAwtNNnRUA4bkMgPB0U2cFQHguAyA83dRZARCeywAITzd1VgCE5zIAwtNNnRUA4bkMgPB0U2cFQHguAyA83dRZARCeywAITzd1VgCE5zIAwtNNndUQIE9Pd6Zt36XHYzcbK13neX3JG/ANusfHd2PtnehgmuabXa+353W6RM4Q7XuplQ0Dcmva9j/RYQ+0JdqGMSYPIKvVb2PMs2Tnh2YPACKpMrGukaAVX0UUBYj0rD7mCOm2iDFSdfExv0ivIpx7sC8vb6n1zpNBnp5kUywASR0XvPrHAbk31r7yKr5iNbDEFqt/X1EWQLrrELll1tZuNt+GhMASSzpECPWNT1x+kvQX6reEGq8XzbS88o3nA6TPIvECNc0Pu15/AJDoMJOvYCJwhSav0QlSelDZAOmySOz1QcDMEd2GtMI11Rfin9iVxMQEKS13VkCOIPFrUWqqfbabzZ8pAQDIlEIJ/z8EkH4l8ZNxV3NrmuZhbPWQYmTZAdlDQhGJJAwASREmgXUGAHKoyVGW3M592JeXH4G9EC02CyBfIj0+3pum+W7a9vZsI3FrrP0wzvn15mTWOFYEgIjGB60yAiBfE+Vud9fFgHN+I/l4VeE3gbvbuNQYoHV6vPSsgJwFdifOtd1xyoABCEUt4bJEQM5b77KKMbe5l1FjKiwGEClXARApJRn1RALCaDG5CQBJLnFFDQCQ5TsbGWRGHwGQGcUPbBqABAqVohgASaGqbJ0ARFZPUm0AhCTXLIUByCyy940CkBnFD2wagAQKlaIYAEmhqmydAERWT1JtAIQk1yyFAcgssmOJNaPspKYBCEku2cLIILJ6pqgNgKRQNbBOABIo1IzFAMiM4gOQGcUPbBqABAqVohgASaGqbJ379wxkz2CS7WK5tQEQHb51q5UHhPrGoo7BLbmXmY7iySlBcU/zevGSnOSY0yta28p0FE9OeUoFRPYMppwe0drWjK/FppSsSEC6LPLr16tx7j6leKj7SIECs4cfXbmAUA4FQKTHKZD5KJ64ztKsiwWkyyL8I2ZoKtZbmnTijEaZigbk4JBub8S5n1dOT9Hos7n7vPWnzfhTZ+Y8bSSXCFUAcizm/uSMaX39cTSShy0fWmyawXOFpztlDPPQtemqA/oVe+LMdCeWV6I6QEJd4PyZXfKARJ8rK3gI+LEU0f0K1VVbOQAy4DEAoi2U0/QXgAAQrwAyyEAcABAAAkBGkg8AASAABIDQ16e4BqFrVqIFMggyCDIIMgh9bkMGoWtWogUyCDIIMggyCH1uQwaha1aiBTIIMggyCDIIfW5DBqFrVqIFMggyCDIIMgh9bkMGoWtWogUyCDIIMggyCH1uQwaha1aiBTIIMggyCDIIfW5DBqFrVqIFMggyCDIIMgh9bkMGoWtWogUyCDIIMggyCH1uQwaha1aiBTIIMggyCDIIfW5L8iEege9nLLVfdIV1WCCDDGWQ/thS2Q/xyAAi3y9jnms4JZGDJAAZUU38OyNCH5gR/0CQUL84Abh0GwCSExChTwSIgyvUr6UHO6d/AGQMEMllluAHZkS/wyiw7OMEnhYbADLhKamzcO1mI6q1UL9wouKE/0WdpmVWoPSzm613u1dj7R3F7qRsgg/MLLVfbI0WaghAAhyzX9K8M7+cm+wOUVS/cGEe4PmCP8EWNHpCIcbXqrJ8fWmp/SJIu+iiyCBE9wQsbbbGmLfc+wpL7RdR3sUVByARLtkHpf8S1T+maT7tev0RUZ2Y6VL7JTbAjBUBkIxioyl9CgAQfT5DjzMqAEAyio2m9CkAQPT5DD3OqAAAySg2mtKnAADR5zP0OKMCACSj2GhKnwIARJ/P0OOMCgCQjGKjKX0KABB9PkOPMyoAQDKKjab0KQBA9PkMPc6owP8BJINSUI2RfdAAAAAASUVORK5CYII=" parent="1" vertex="1">
          <mxGeometry x="-90" y="642.19" width="28" height="28" as="geometry" />
        </mxCell>
        <mxCell id="aqfIlqZua8wNAoRfI1L8-7" value="" style="shape=image;verticalLabelPosition=bottom;verticalAlign=top;imageAspect=0;aspect=fixed;image=data:image/png,iVBORw0KGgoAAAANSUhEUgAAAMgAAADICAYAAACtWK6eAAAAAXNSR0IArs4c6QAADXhJREFUeF7tnVt227oOhkllIDsdSdORNHmIm1k0nYW385CckSQZyfZELJ5FyU59k0SAICWQv1/a1RK8/MBHUKJEWYMfFIACgwpYaAMFoMCwAgAE0QEFRhQAIAgPKABAEANQgKcAMghPN1hVogAAqcTRGCZPAQDC0w1WlSgAQCpxNIbJUwCA8HSDVSUKAJBKHI1h8hQAIDzdYFWJAgDkiqPd4+O9ubnZ2vX6o4Y4cE9Pd2a3u7UvL281jJcyRgByplYHh7Wv+39+tpvNH4qg2sp2cLTte9dv5x4AyakHAcg5IMcBY8zWNM0Pu15vtQV+SH/d09Otadv/vsoCkAvZAMglILdmt3s11t7t/2trN5tvIQGnrYx7fHyvYZwxfgEg165BzmdWY4pbarnV6rcx5vlr+H2mrOKaiwIMABlQ6yyA/FLroZQAulhaFTgBUCAYKwtAhgDxWaTQpdbJ0sq5D/vy8kMqoEqrB4CMePRiprX2zf7774PmIMDSiuY9ADKh19ltX9VLrZNbuv24i7u2ooX/dGkAMq2RKeVuD5ZWAc4+KwJAAjRLudTq6v77O/y923eR3H9xv369Gufuj+5afZOsP0BGlUUASKDbzpZaZr+BGHRbtINgt7sz1v5jrPWbc7dH+w8hPeg3Kq3t22vbT8qjMBdLK9zSDdG8lzy4JAqas1l4cJd9n3F+Guc8FIcNxxQKbo1z2w6cpvkcug3tViu/W95nJ9y1IvkBgBDk2ge+f26pD7aju1pfUBxvvhHqFiraw9K2n4dnqkq5fhLSh1wNACFKdrFcsfbtZG1PrC9h8R6W0+sO7JYTBQcgRMG6Vcr5BS+jjuwmWFqxJAcgBNn2F9vHDzISrBdRVPU+zhwKApAA1TswnPu90KVUwAguigCUQNUAyIRQF49mBAqrolgBj86k1hmADCi8vxj3bxYeb+Sl9scc9ftbxX/wJuF16QHIFV2KzhrDCOK5rCvaAJAjUQq4CI/NQEW/YswRB4DsVbvyEhFHzxJscAF/5EUA4vc1Tg9qKCHIY8fgn/16K/1ElxCRqgcEcAyGCSCp/WHFCDi64PEPCHbhtdv5p3P9IQjLuePl3MfhIcauf03znbmPU/XFe7UZhA3HwN7BQh5W7NPBwOPsFw9bhqwx+jLVQlIlIGw4Jp5nWsRdsInD35g3I6q9cK8OEGaAHGbmybfwouoPn9GHSgYdcsfc56nyFnB9gJyeJkgKSbvZBOnlVitHqliqcOCjI+wMakwQgFLDWUI9QQ5fQkcl+sCcOfumCY+Ln7zBJ9Hx8DqCrhWislwghOFdXnbJagCJmDUPHgyePWfLIIEQX7xfT4vRqq5H6gEkYmn1FT8Bhx1EBh8tVC9LB0Es8MJXUDuxg1mCfRWARC2tTr00GRhn74Dn9/HEEkggk/ZjqmSpVQsgchfNfgPu5sYfZH3yzZBF3OLtQ3dwB1z4Ef4q7moVD4hg9jjOBl+nh3RnXfW/v58SyJ83rrV42scURxBVkEVqAEQueywj8JfUi+KzSNGAJMoeSwrQ+ftSeBYpHZC/JwrOH0ql9mDyxoXmgRcLyMy3WzXHBL3vAbe/6ZUuw6JcQDQe7raMmKD3InCDkl7x/BblAnJ8YPP8Opfeg2KXWUUCguXVDDwWuswqExAsr/ITUujdLACSP5TKbLHQ65AyAcH1xxwQFnkdUiog2D2fA5GmmXzjco5uxbRZHCBiT6vGqFqrbYEX6mUCstv5I3jwy6/A/0o7BLs4QPLHBFosWQEAUrJ3MbZoBQBItISooGQFAEjJ3sXYohUAINESooKSFQAgJXsXY4tWYBGAHB383A+oaT7tev3BHV33sCJ++RW4udly/Nb535+M37bfjbX+z0/DrEt60LMBEvhpZfI3KrBRKB0ihPqIDywG+Ko/OabfgDw5RYbQq6iiswBCflfc2jdj7Z8QkQJEjxIMxiMKBALCOCKJPFFK+Sk7IBEHqwUdeQlApEKDUU8AIJH+yf5AZFZAyJnj0keTAkU6gBEVMPlSIASQ2CNgA9qQ9Eg2QMQCN9fRmpIq11LXlG9WK/+MXOwBe0ErCSnJ8wESO3P8HfGoQGIgSilcUz0jgAj7ZXIlISV7FkDE3xEfeXtN2BFSOtdRzxgg0q9BZ3q0XicgI186AiAzsjgGiPxbnkEfC4pVIw8g0rMHAIn1exr7cUBk3/LM9A58HkDkZ4+xTx3fmbZ9TxMBqHVUgeFPZKfwSZbrkFyAyM4e3ksDnzvGEmtGiIcA8Y/+WPsq3bPQj6rGtAtAYtSD7akCAIQXEUk+aokMwnNGSisAwlMXgPB0U2cFQHguAyA83dRZARCeywAITzd1VgCE5zIAwtNNnRUA4bkMgPB0U2cFQHguAyA83dRZARCeywAITzd1VgCE5zIAwtNNnRUA4bkMgPB0U2cFQHguAyA83dRZARCeywAITzd1VgCE5zIAwtNNnRUA4bkMgPB0U2cFQHguAyA83dRZARCeywAITzd1VgCE5zIAwtNNnRUA4bkMgPB0U2cFQHguAyA83dRZARCeywAITzd1VgCE5zIAwtNNnRUA4bkMgPB0U2cFQHguAyA83dRZARCeywAITzd1VgCE5zIAwtNNnRUA4bkMgPB0U2cFQHguAyA83dRZARCeywAITzd1VgCE5zIAwtNNnRUA4bkMgPB0U2cFQHguAyA83dRZARCeywAITzd1VgCE5zIAwtNNnRUA4bkMgPB0U2cFQHguAyA83dRZARCeywAITzd1VgCE5zIAwtNNnRUA4bkMgPB0U2cFQHguAyA83dRZARCeywAITzd1VgCE5zIAwtNNndUQIE9Pd6Zt36XHYzcbK13neX3JG/ANusfHd2PtnehgmuabXa+353W6RM4Q7XuplQ0Dcmva9j/RYQ+0JdqGMSYPIKvVb2PMs2Tnh2YPACKpMrGukaAVX0UUBYj0rD7mCOm2iDFSdfExv0ivIpx7sC8vb6n1zpNBnp5kUywASR0XvPrHAbk31r7yKr5iNbDEFqt/X1EWQLrrELll1tZuNt+GhMASSzpECPWNT1x+kvQX6reEGq8XzbS88o3nA6TPIvECNc0Pu15/AJDoMJOvYCJwhSav0QlSelDZAOmySOz1QcDMEd2GtMI11Rfin9iVxMQEKS13VkCOIPFrUWqqfbabzZ8pAQDIlEIJ/z8EkH4l8ZNxV3NrmuZhbPWQYmTZAdlDQhGJJAwASREmgXUGAHKoyVGW3M592JeXH4G9EC02CyBfIj0+3pum+W7a9vZsI3FrrP0wzvn15mTWOFYEgIjGB60yAiBfE+Vud9fFgHN+I/l4VeE3gbvbuNQYoHV6vPSsgJwFdifOtd1xyoABCEUt4bJEQM5b77KKMbe5l1FjKiwGEClXARApJRn1RALCaDG5CQBJLnFFDQCQ5TsbGWRGHwGQGcUPbBqABAqVohgASaGqbJ0ARFZPUm0AhCTXLIUByCyy940CkBnFD2wagAQKlaIYAEmhqmydAERWT1JtAIQk1yyFAcgssmOJNaPspKYBCEku2cLIILJ6pqgNgKRQNbBOABIo1IzFAMiM4gOQGcUPbBqABAqVohgASaGqbJ379wxkz2CS7WK5tQEQHb51q5UHhPrGoo7BLbmXmY7iySlBcU/zevGSnOSY0yta28p0FE9OeUoFRPYMppwe0drWjK/FppSsSEC6LPLr16tx7j6leKj7SIECs4cfXbmAUA4FQKTHKZD5KJ64ztKsiwWkyyL8I2ZoKtZbmnTijEaZigbk4JBub8S5n1dOT9Hos7n7vPWnzfhTZ+Y8bSSXCFUAcizm/uSMaX39cTSShy0fWmyawXOFpztlDPPQtemqA/oVe+LMdCeWV6I6QEJd4PyZXfKARJ8rK3gI+LEU0f0K1VVbOQAy4DEAoi2U0/QXgAAQrwAyyEAcABAAAkBGkg8AASAABIDQ16e4BqFrVqIFMggyCDIIMgh9bkMGoWtWogUyCDIIMggyCH1uQwaha1aiBTIIMggyCDIIfW5DBqFrVqIFMggyCDIIMgh9bkMGoWtWogUyCDIIMggyCH1uQwaha1aiBTIIMggyCDIIfW5DBqFrVqIFMggyCDIIMgh9bkMGoWtWogUyCDIIMggyCH1uQwaha1aiBTIIMggyCDIIfW5L8iEege9nLLVfdIV1WCCDDGWQ/thS2Q/xyAAi3y9jnms4JZGDJAAZUU38OyNCH5gR/0CQUL84Abh0GwCSExChTwSIgyvUr6UHO6d/AGQMEMllluAHZkS/wyiw7OMEnhYbADLhKamzcO1mI6q1UL9wouKE/0WdpmVWoPSzm613u1dj7R3F7qRsgg/MLLVfbI0WaghAAhyzX9K8M7+cm+wOUVS/cGEe4PmCP8EWNHpCIcbXqrJ8fWmp/SJIu+iiyCBE9wQsbbbGmLfc+wpL7RdR3sUVByARLtkHpf8S1T+maT7tev0RUZ2Y6VL7JTbAjBUBkIxioyl9CgAQfT5DjzMqAEAyio2m9CkAQPT5DD3OqAAAySg2mtKnAADR5zP0OKMCACSj2GhKnwIARJ/P0OOMCgCQjGKjKX0KABB9PkOPMyoAQDKKjab0KQBA9PkMPc6owP8BJINSUI2RfdAAAAAASUVORK5CYII=" parent="1" vertex="1">
          <mxGeometry x="-100" y="711.58" width="28" height="28" as="geometry" />
        </mxCell>
        <mxCell id="aqfIlqZua8wNAoRfI1L8-58" style="rounded=0;orthogonalLoop=1;jettySize=auto;html=1;exitX=0.5;exitY=1;exitDx=0;exitDy=0;entryX=0.5;entryY=0;entryDx=0;entryDy=0;" parent="1" source="aqfIlqZua8wNAoRfI1L8-8" target="aqfIlqZua8wNAoRfI1L8-14" edge="1">
          <mxGeometry relative="1" as="geometry" />
        </mxCell>
        <mxCell id="aqfIlqZua8wNAoRfI1L8-8" value="" style="shape=image;verticalLabelPosition=bottom;verticalAlign=top;imageAspect=0;aspect=fixed;image=data:image/png,iVBORw0KGgoAAAANSUhEUgAAAMgAAADICAYAAACtWK6eAAAAAXNSR0IArs4c6QAADXhJREFUeF7tnVt227oOhkllIDsdSdORNHmIm1k0nYW385CckSQZyfZELJ5FyU59k0SAICWQv1/a1RK8/MBHUKJEWYMfFIACgwpYaAMFoMCwAgAE0QEFRhQAIAgPKABAEANQgKcAMghPN1hVogAAqcTRGCZPAQDC0w1WlSgAQCpxNIbJUwCA8HSDVSUKAJBKHI1h8hQAIDzdYFWJAgDkiqPd4+O9ubnZ2vX6o4Y4cE9Pd2a3u7UvL281jJcyRgByplYHh7Wv+39+tpvNH4qg2sp2cLTte9dv5x4AyakHAcg5IMcBY8zWNM0Pu15vtQV+SH/d09Otadv/vsoCkAvZAMglILdmt3s11t7t/2trN5tvIQGnrYx7fHyvYZwxfgEg165BzmdWY4pbarnV6rcx5vlr+H2mrOKaiwIMABlQ6yyA/FLroZQAulhaFTgBUCAYKwtAhgDxWaTQpdbJ0sq5D/vy8kMqoEqrB4CMePRiprX2zf7774PmIMDSiuY9ADKh19ltX9VLrZNbuv24i7u2ooX/dGkAMq2RKeVuD5ZWAc4+KwJAAjRLudTq6v77O/y923eR3H9xv369Gufuj+5afZOsP0BGlUUASKDbzpZaZr+BGHRbtINgt7sz1v5jrPWbc7dH+w8hPeg3Kq3t22vbT8qjMBdLK9zSDdG8lzy4JAqas1l4cJd9n3F+Guc8FIcNxxQKbo1z2w6cpvkcug3tViu/W95nJ9y1IvkBgBDk2ge+f26pD7aju1pfUBxvvhHqFiraw9K2n4dnqkq5fhLSh1wNACFKdrFcsfbtZG1PrC9h8R6W0+sO7JYTBQcgRMG6Vcr5BS+jjuwmWFqxJAcgBNn2F9vHDzISrBdRVPU+zhwKApAA1TswnPu90KVUwAguigCUQNUAyIRQF49mBAqrolgBj86k1hmADCi8vxj3bxYeb+Sl9scc9ftbxX/wJuF16QHIFV2KzhrDCOK5rCvaAJAjUQq4CI/NQEW/YswRB4DsVbvyEhFHzxJscAF/5EUA4vc1Tg9qKCHIY8fgn/16K/1ElxCRqgcEcAyGCSCp/WHFCDi64PEPCHbhtdv5p3P9IQjLuePl3MfhIcauf03znbmPU/XFe7UZhA3HwN7BQh5W7NPBwOPsFw9bhqwx+jLVQlIlIGw4Jp5nWsRdsInD35g3I6q9cK8OEGaAHGbmybfwouoPn9GHSgYdcsfc56nyFnB9gJyeJkgKSbvZBOnlVitHqliqcOCjI+wMakwQgFLDWUI9QQ5fQkcl+sCcOfumCY+Ln7zBJ9Hx8DqCrhWislwghOFdXnbJagCJmDUPHgyePWfLIIEQX7xfT4vRqq5H6gEkYmn1FT8Bhx1EBh8tVC9LB0Es8MJXUDuxg1mCfRWARC2tTr00GRhn74Dn9/HEEkggk/ZjqmSpVQsgchfNfgPu5sYfZH3yzZBF3OLtQ3dwB1z4Ef4q7moVD4hg9jjOBl+nh3RnXfW/v58SyJ83rrV42scURxBVkEVqAEQueywj8JfUi+KzSNGAJMoeSwrQ+ftSeBYpHZC/JwrOH0ql9mDyxoXmgRcLyMy3WzXHBL3vAbe/6ZUuw6JcQDQe7raMmKD3InCDkl7x/BblAnJ8YPP8Opfeg2KXWUUCguXVDDwWuswqExAsr/ITUujdLACSP5TKbLHQ65AyAcH1xxwQFnkdUiog2D2fA5GmmXzjco5uxbRZHCBiT6vGqFqrbYEX6mUCstv5I3jwy6/A/0o7BLs4QPLHBFosWQEAUrJ3MbZoBQBItISooGQFAEjJ3sXYohUAINESooKSFQAgJXsXY4tWYBGAHB383A+oaT7tev3BHV33sCJ++RW4udly/Nb535+M37bfjbX+z0/DrEt60LMBEvhpZfI3KrBRKB0ihPqIDywG+Ko/OabfgDw5RYbQq6iiswBCflfc2jdj7Z8QkQJEjxIMxiMKBALCOCKJPFFK+Sk7IBEHqwUdeQlApEKDUU8AIJH+yf5AZFZAyJnj0keTAkU6gBEVMPlSIASQ2CNgA9qQ9Eg2QMQCN9fRmpIq11LXlG9WK/+MXOwBe0ErCSnJ8wESO3P8HfGoQGIgSilcUz0jgAj7ZXIlISV7FkDE3xEfeXtN2BFSOtdRzxgg0q9BZ3q0XicgI186AiAzsjgGiPxbnkEfC4pVIw8g0rMHAIn1exr7cUBk3/LM9A58HkDkZ4+xTx3fmbZ9TxMBqHVUgeFPZKfwSZbrkFyAyM4e3ksDnzvGEmtGiIcA8Y/+WPsq3bPQj6rGtAtAYtSD7akCAIQXEUk+aokMwnNGSisAwlMXgPB0U2cFQHguAyA83dRZARCeywAITzd1VgCE5zIAwtNNnRUA4bkMgPB0U2cFQHguAyA83dRZARCeywAITzd1VgCE5zIAwtNNnRUA4bkMgPB0U2cFQHguAyA83dRZARCeywAITzd1VgCE5zIAwtNNnRUA4bkMgPB0U2cFQHguAyA83dRZARCeywAITzd1VgCE5zIAwtNNnRUA4bkMgPB0U2cFQHguAyA83dRZARCeywAITzd1VgCE5zIAwtNNnRUA4bkMgPB0U2cFQHguAyA83dRZARCeywAITzd1VgCE5zIAwtNNnRUA4bkMgPB0U2cFQHguAyA83dRZARCeywAITzd1VgCE5zIAwtNNnRUA4bkMgPB0U2cFQHguAyA83dRZARCeywAITzd1VgCE5zIAwtNNnRUA4bkMgPB0U2cFQHguAyA83dRZARCeywAITzd1VgCE5zIAwtNNnRUA4bkMgPB0U2cFQHguAyA83dRZARCeywAITzd1VgCE5zIAwtNNndUQIE9Pd6Zt36XHYzcbK13neX3JG/ANusfHd2PtnehgmuabXa+353W6RM4Q7XuplQ0Dcmva9j/RYQ+0JdqGMSYPIKvVb2PMs2Tnh2YPACKpMrGukaAVX0UUBYj0rD7mCOm2iDFSdfExv0ivIpx7sC8vb6n1zpNBnp5kUywASR0XvPrHAbk31r7yKr5iNbDEFqt/X1EWQLrrELll1tZuNt+GhMASSzpECPWNT1x+kvQX6reEGq8XzbS88o3nA6TPIvECNc0Pu15/AJDoMJOvYCJwhSav0QlSelDZAOmySOz1QcDMEd2GtMI11Rfin9iVxMQEKS13VkCOIPFrUWqqfbabzZ8pAQDIlEIJ/z8EkH4l8ZNxV3NrmuZhbPWQYmTZAdlDQhGJJAwASREmgXUGAHKoyVGW3M592JeXH4G9EC02CyBfIj0+3pum+W7a9vZsI3FrrP0wzvn15mTWOFYEgIjGB60yAiBfE+Vud9fFgHN+I/l4VeE3gbvbuNQYoHV6vPSsgJwFdifOtd1xyoABCEUt4bJEQM5b77KKMbe5l1FjKiwGEClXARApJRn1RALCaDG5CQBJLnFFDQCQ5TsbGWRGHwGQGcUPbBqABAqVohgASaGqbJ0ARFZPUm0AhCTXLIUByCyy940CkBnFD2wagAQKlaIYAEmhqmydAERWT1JtAIQk1yyFAcgssmOJNaPspKYBCEku2cLIILJ6pqgNgKRQNbBOABIo1IzFAMiM4gOQGcUPbBqABAqVohgASaGqbJ379wxkz2CS7WK5tQEQHb51q5UHhPrGoo7BLbmXmY7iySlBcU/zevGSnOSY0yta28p0FE9OeUoFRPYMppwe0drWjK/FppSsSEC6LPLr16tx7j6leKj7SIECs4cfXbmAUA4FQKTHKZD5KJ64ztKsiwWkyyL8I2ZoKtZbmnTijEaZigbk4JBub8S5n1dOT9Hos7n7vPWnzfhTZ+Y8bSSXCFUAcizm/uSMaX39cTSShy0fWmyawXOFpztlDPPQtemqA/oVe+LMdCeWV6I6QEJd4PyZXfKARJ8rK3gI+LEU0f0K1VVbOQAy4DEAoi2U0/QXgAAQrwAyyEAcABAAAkBGkg8AASAABIDQ16e4BqFrVqIFMggyCDIIMgh9bkMGoWtWogUyCDIIMggyCH1uQwaha1aiBTIIMggyCDIIfW5DBqFrVqIFMggyCDIIMgh9bkMGoWtWogUyCDIIMggyCH1uQwaha1aiBTIIMggyCDIIfW5DBqFrVqIFMggyCDIIMgh9bkMGoWtWogUyCDIIMggyCH1uQwaha1aiBTIIMggyCDIIfW5L8iEege9nLLVfdIV1WCCDDGWQ/thS2Q/xyAAi3y9jnms4JZGDJAAZUU38OyNCH5gR/0CQUL84Abh0GwCSExChTwSIgyvUr6UHO6d/AGQMEMllluAHZkS/wyiw7OMEnhYbADLhKamzcO1mI6q1UL9wouKE/0WdpmVWoPSzm613u1dj7R3F7qRsgg/MLLVfbI0WaghAAhyzX9K8M7+cm+wOUVS/cGEe4PmCP8EWNHpCIcbXqrJ8fWmp/SJIu+iiyCBE9wQsbbbGmLfc+wpL7RdR3sUVByARLtkHpf8S1T+maT7tev0RUZ2Y6VL7JTbAjBUBkIxioyl9CgAQfT5DjzMqAEAyio2m9CkAQPT5DD3OqAAAySg2mtKnAADR5zP0OKMCACSj2GhKnwIARJ/P0OOMCgCQjGKjKX0KABB9PkOPMyoAQDKKjab0KQBA9PkMPc6owP8BJINSUI2RfdAAAAAASUVORK5CYII=" parent="1" vertex="1">
          <mxGeometry x="-30" y="726.97" width="28" height="28" as="geometry" />
        </mxCell>
        <mxCell id="aqfIlqZua8wNAoRfI1L8-55" style="rounded=0;orthogonalLoop=1;jettySize=auto;html=1;exitX=0.5;exitY=1;exitDx=0;exitDy=0;" parent="1" source="aqfIlqZua8wNAoRfI1L8-9" target="aqfIlqZua8wNAoRfI1L8-8" edge="1">
          <mxGeometry relative="1" as="geometry" />
        </mxCell>
        <mxCell id="aqfIlqZua8wNAoRfI1L8-9" value="" style="shape=image;verticalLabelPosition=bottom;verticalAlign=top;imageAspect=0;aspect=fixed;image=data:image/png,iVBORw0KGgoAAAANSUhEUgAAAMgAAADICAYAAACtWK6eAAAAAXNSR0IArs4c6QAADXhJREFUeF7tnVt227oOhkllIDsdSdORNHmIm1k0nYW385CckSQZyfZELJ5FyU59k0SAICWQv1/a1RK8/MBHUKJEWYMfFIACgwpYaAMFoMCwAgAE0QEFRhQAIAgPKABAEANQgKcAMghPN1hVogAAqcTRGCZPAQDC0w1WlSgAQCpxNIbJUwCA8HSDVSUKAJBKHI1h8hQAIDzdYFWJAgDkiqPd4+O9ubnZ2vX6o4Y4cE9Pd2a3u7UvL281jJcyRgByplYHh7Wv+39+tpvNH4qg2sp2cLTte9dv5x4AyakHAcg5IMcBY8zWNM0Pu15vtQV+SH/d09Otadv/vsoCkAvZAMglILdmt3s11t7t/2trN5tvIQGnrYx7fHyvYZwxfgEg165BzmdWY4pbarnV6rcx5vlr+H2mrOKaiwIMABlQ6yyA/FLroZQAulhaFTgBUCAYKwtAhgDxWaTQpdbJ0sq5D/vy8kMqoEqrB4CMePRiprX2zf7774PmIMDSiuY9ADKh19ltX9VLrZNbuv24i7u2ooX/dGkAMq2RKeVuD5ZWAc4+KwJAAjRLudTq6v77O/y923eR3H9xv369Gufuj+5afZOsP0BGlUUASKDbzpZaZr+BGHRbtINgt7sz1v5jrPWbc7dH+w8hPeg3Kq3t22vbT8qjMBdLK9zSDdG8lzy4JAqas1l4cJd9n3F+Guc8FIcNxxQKbo1z2w6cpvkcug3tViu/W95nJ9y1IvkBgBDk2ge+f26pD7aju1pfUBxvvhHqFiraw9K2n4dnqkq5fhLSh1wNACFKdrFcsfbtZG1PrC9h8R6W0+sO7JYTBQcgRMG6Vcr5BS+jjuwmWFqxJAcgBNn2F9vHDzISrBdRVPU+zhwKApAA1TswnPu90KVUwAguigCUQNUAyIRQF49mBAqrolgBj86k1hmADCi8vxj3bxYeb+Sl9scc9ftbxX/wJuF16QHIFV2KzhrDCOK5rCvaAJAjUQq4CI/NQEW/YswRB4DsVbvyEhFHzxJscAF/5EUA4vc1Tg9qKCHIY8fgn/16K/1ElxCRqgcEcAyGCSCp/WHFCDi64PEPCHbhtdv5p3P9IQjLuePl3MfhIcauf03znbmPU/XFe7UZhA3HwN7BQh5W7NPBwOPsFw9bhqwx+jLVQlIlIGw4Jp5nWsRdsInD35g3I6q9cK8OEGaAHGbmybfwouoPn9GHSgYdcsfc56nyFnB9gJyeJkgKSbvZBOnlVitHqliqcOCjI+wMakwQgFLDWUI9QQ5fQkcl+sCcOfumCY+Ln7zBJ9Hx8DqCrhWislwghOFdXnbJagCJmDUPHgyePWfLIIEQX7xfT4vRqq5H6gEkYmn1FT8Bhx1EBh8tVC9LB0Es8MJXUDuxg1mCfRWARC2tTr00GRhn74Dn9/HEEkggk/ZjqmSpVQsgchfNfgPu5sYfZH3yzZBF3OLtQ3dwB1z4Ef4q7moVD4hg9jjOBl+nh3RnXfW/v58SyJ83rrV42scURxBVkEVqAEQueywj8JfUi+KzSNGAJMoeSwrQ+ftSeBYpHZC/JwrOH0ql9mDyxoXmgRcLyMy3WzXHBL3vAbe/6ZUuw6JcQDQe7raMmKD3InCDkl7x/BblAnJ8YPP8Opfeg2KXWUUCguXVDDwWuswqExAsr/ITUujdLACSP5TKbLHQ65AyAcH1xxwQFnkdUiog2D2fA5GmmXzjco5uxbRZHCBiT6vGqFqrbYEX6mUCstv5I3jwy6/A/0o7BLs4QPLHBFosWQEAUrJ3MbZoBQBItISooGQFAEjJ3sXYohUAINESooKSFQAgJXsXY4tWYBGAHB383A+oaT7tev3BHV33sCJ++RW4udly/Nb535+M37bfjbX+z0/DrEt60LMBEvhpZfI3KrBRKB0ihPqIDywG+Ko/OabfgDw5RYbQq6iiswBCflfc2jdj7Z8QkQJEjxIMxiMKBALCOCKJPFFK+Sk7IBEHqwUdeQlApEKDUU8AIJH+yf5AZFZAyJnj0keTAkU6gBEVMPlSIASQ2CNgA9qQ9Eg2QMQCN9fRmpIq11LXlG9WK/+MXOwBe0ErCSnJ8wESO3P8HfGoQGIgSilcUz0jgAj7ZXIlISV7FkDE3xEfeXtN2BFSOtdRzxgg0q9BZ3q0XicgI186AiAzsjgGiPxbnkEfC4pVIw8g0rMHAIn1exr7cUBk3/LM9A58HkDkZ4+xTx3fmbZ9TxMBqHVUgeFPZKfwSZbrkFyAyM4e3ksDnzvGEmtGiIcA8Y/+WPsq3bPQj6rGtAtAYtSD7akCAIQXEUk+aokMwnNGSisAwlMXgPB0U2cFQHguAyA83dRZARCeywAITzd1VgCE5zIAwtNNnRUA4bkMgPB0U2cFQHguAyA83dRZARCeywAITzd1VgCE5zIAwtNNnRUA4bkMgPB0U2cFQHguAyA83dRZARCeywAITzd1VgCE5zIAwtNNnRUA4bkMgPB0U2cFQHguAyA83dRZARCeywAITzd1VgCE5zIAwtNNnRUA4bkMgPB0U2cFQHguAyA83dRZARCeywAITzd1VgCE5zIAwtNNnRUA4bkMgPB0U2cFQHguAyA83dRZARCeywAITzd1VgCE5zIAwtNNnRUA4bkMgPB0U2cFQHguAyA83dRZARCeywAITzd1VgCE5zIAwtNNnRUA4bkMgPB0U2cFQHguAyA83dRZARCeywAITzd1VgCE5zIAwtNNnRUA4bkMgPB0U2cFQHguAyA83dRZARCeywAITzd1VgCE5zIAwtNNnRUA4bkMgPB0U2cFQHguAyA83dRZARCeywAITzd1VgCE5zIAwtNNndUQIE9Pd6Zt36XHYzcbK13neX3JG/ANusfHd2PtnehgmuabXa+353W6RM4Q7XuplQ0Dcmva9j/RYQ+0JdqGMSYPIKvVb2PMs2Tnh2YPACKpMrGukaAVX0UUBYj0rD7mCOm2iDFSdfExv0ivIpx7sC8vb6n1zpNBnp5kUywASR0XvPrHAbk31r7yKr5iNbDEFqt/X1EWQLrrELll1tZuNt+GhMASSzpECPWNT1x+kvQX6reEGq8XzbS88o3nA6TPIvECNc0Pu15/AJDoMJOvYCJwhSav0QlSelDZAOmySOz1QcDMEd2GtMI11Rfin9iVxMQEKS13VkCOIPFrUWqqfbabzZ8pAQDIlEIJ/z8EkH4l8ZNxV3NrmuZhbPWQYmTZAdlDQhGJJAwASREmgXUGAHKoyVGW3M592JeXH4G9EC02CyBfIj0+3pum+W7a9vZsI3FrrP0wzvn15mTWOFYEgIjGB60yAiBfE+Vud9fFgHN+I/l4VeE3gbvbuNQYoHV6vPSsgJwFdifOtd1xyoABCEUt4bJEQM5b77KKMbe5l1FjKiwGEClXARApJRn1RALCaDG5CQBJLnFFDQCQ5TsbGWRGHwGQGcUPbBqABAqVohgASaGqbJ0ARFZPUm0AhCTXLIUByCyy940CkBnFD2wagAQKlaIYAEmhqmydAERWT1JtAIQk1yyFAcgssmOJNaPspKYBCEku2cLIILJ6pqgNgKRQNbBOABIo1IzFAMiM4gOQGcUPbBqABAqVohgASaGqbJ379wxkz2CS7WK5tQEQHb51q5UHhPrGoo7BLbmXmY7iySlBcU/zevGSnOSY0yta28p0FE9OeUoFRPYMppwe0drWjK/FppSsSEC6LPLr16tx7j6leKj7SIECs4cfXbmAUA4FQKTHKZD5KJ64ztKsiwWkyyL8I2ZoKtZbmnTijEaZigbk4JBub8S5n1dOT9Hos7n7vPWnzfhTZ+Y8bSSXCFUAcizm/uSMaX39cTSShy0fWmyawXOFpztlDPPQtemqA/oVe+LMdCeWV6I6QEJd4PyZXfKARJ8rK3gI+LEU0f0K1VVbOQAy4DEAoi2U0/QXgAAQrwAyyEAcABAAAkBGkg8AASAABIDQ16e4BqFrVqIFMggyCDIIMgh9bkMGoWtWogUyCDIIMggyCH1uQwaha1aiBTIIMggyCDIIfW5DBqFrVqIFMggyCDIIMgh9bkMGoWtWogUyCDIIMggyCH1uQwaha1aiBTIIMggyCDIIfW5DBqFrVqIFMggyCDIIMgh9bkMGoWtWogUyCDIIMggyCH1uQwaha1aiBTIIMggyCDIIfW5L8iEege9nLLVfdIV1WCCDDGWQ/thS2Q/xyAAi3y9jnms4JZGDJAAZUU38OyNCH5gR/0CQUL84Abh0GwCSExChTwSIgyvUr6UHO6d/AGQMEMllluAHZkS/wyiw7OMEnhYbADLhKamzcO1mI6q1UL9wouKE/0WdpmVWoPSzm613u1dj7R3F7qRsgg/MLLVfbI0WaghAAhyzX9K8M7+cm+wOUVS/cGEe4PmCP8EWNHpCIcbXqrJ8fWmp/SJIu+iiyCBE9wQsbbbGmLfc+wpL7RdR3sUVByARLtkHpf8S1T+maT7tev0RUZ2Y6VL7JTbAjBUBkIxioyl9CgAQfT5DjzMqAEAyio2m9CkAQPT5DD3OqAAAySg2mtKnAADR5zP0OKMCACSj2GhKnwIARJ/P0OOMCgCQjGKjKX0KABB9PkOPMyoAQDKKjab0KQBA9PkMPc6owP8BJINSUI2RfdAAAAAASUVORK5CYII=" parent="1" vertex="1">
          <mxGeometry x="-10" y="648.1300000000001" width="28" height="28" as="geometry" />
        </mxCell>
        <mxCell id="aqfIlqZua8wNAoRfI1L8-60" style="rounded=0;orthogonalLoop=1;jettySize=auto;html=1;exitX=1;exitY=0.75;exitDx=0;exitDy=0;entryX=0.25;entryY=0;entryDx=0;entryDy=0;" parent="1" source="aqfIlqZua8wNAoRfI1L8-11" target="aqfIlqZua8wNAoRfI1L8-3" edge="1">
          <mxGeometry relative="1" as="geometry" />
        </mxCell>
        <mxCell id="aqfIlqZua8wNAoRfI1L8-11" value="" style="shape=image;verticalLabelPosition=bottom;verticalAlign=top;imageAspect=0;aspect=fixed;image=data:image/png,iVBORw0KGgoAAAANSUhEUgAAAMgAAADICAYAAACtWK6eAAAAAXNSR0IArs4c6QAADYtJREFUeF7tnU123LgOhcFy9tHlHfSJex57JYkn9vMq4qwinUzst5JU5rFP76C1kOfiO5RdTllVkggQogTyZtSdECR4gY+g/liO8AcKQIFeBRy0gQJQoF8BAILsgAIDCgAQpAcUACDIASggUwAVRKYbrCpRAIBUEmhMU6YAAJHpBqtKFAAglQQa05QpAEBkusGqEgUASCWBxjRlCgAQmW6wqkQBAHIk0O+/+0+rJ2p+3bhNDXnw11d/vj2h9eOVu69hvpw5ApCOWgEO5+ku/LUnun28dl84glprG+DwK/rRztfRJSB5G0EA0sno/YQhouZpSxf/3LjGWuLH+PvnV78+WdG/u7YA5FA1ANLRpE2aE7ojT+cv/9Q8XLvTmISz1ubsu/9RwzxT4gJAjqh3sLIWuNV6/81/dkS3u+m7LV3Ucs3FAQaA9KjVSaDGbemylASqYQHgQDDUFoD0qFPyVuvN1srR5uHKXWglVGn9AJCBiHZXWvJ0//Afd2k5CbC14kUPgIzotX/bN9zVsrzV6tyhq+I2Ng8H3MUS6VXK3R5srfjhRwWJ0GzKrVboe+fCO6L2v/9H1D530Xz+cva3vyNHn3ZjPW3pVLP/CBlNNgEgkWHrbLWIc1s0QLA6oXPy9IfztKYVrfeeP8R48Pyg0lP76otf0U/OqzDdrRXH9xjnSm4DQBjR7azCvU/ZWyBW9NG5FordA0fGSNFNG3LUeE+b1ZZ+9t2GPvvmw9Py50qFu1bR4j7LhT/RCrxstcJ7S8/JtndX6xWKvYdv0R3rNWxClQkVZvdOVSnXT3oS8XoCIDy9qLtdCZDs7+2Z3U3ZvIVl3zdsrfhyAxC+ZtS94BV0kd8EWyuR5gCEIduRp+sM60U0Nf0cZw4FAUiE6i0Yjj4vdCsVMYODJgAlUjUAMiJU99WMSF1tNCvg1ZmphQYgPQq/XIyHLwtfH+RNHYyZ+m+8oy/4kvC4+gDkiC5FV40eCmv4vFiyAAGQPdUKuAiX5MC+TdGfGEvEASAvqh28byVRswwbXMDvxRGAEB0+/Csj0VNm0Xii+9JPdIkRqHpADp6Mx6hWRxtAUvu7WAlwtMkTXhAMrIRD15ynz4u64+Vos3uJsfVvSx8kz3Fqv3ivtoKI4eh5drCQlxXb2tb3ztXBy5aRlbBmSKoERAzHyPtMS7gLNnb4m/BmRLUX7tUBIkyQdq2N+Qovpf/IBX2oWdQhd8LnPFXeAq4OkM73EaycfLh2UXqdffOe1bFW48hXR8QVlCgKQK3pLKGfqIAvwVENH4Qr5/PQjNfF33zBp+F4ZB+x1wpJVS4SwkiXF9+sGkASVs1dEKNXz9kqSCTE3e/rmVla1fVINYCkbK12CRTzRV5i8jFz9aB5FMQKH3xFjZM6mSXYVwFI0tbqbZRGE0MDxKTEGNkCKVTSZ/cq2WpVAYjqlsfR5umJLrtnSi3hFu8LWL1PwJVf4a/irlbxgChWj/2F/fX0kHDW1fM1/O+fEkiqAHrGb3yc5AiiCqpI8YCoVg+95C2lp+KrSNGATFQ9SklunXkUXkWKBmSu5xE6mWeml9EbF2ZmcsTRYgGZ+Xar5Zxg+x5z+5vd6UIMigVE4V7/QkJkwI3IB5QGZnLgYrmA7B/YbDEytnwudptVJCDYXuWnq9RtVpGAYHuVH5BSn6wDkBlyqcghC70OKRMQXH/MwWCR1yGlAjLPB0tzpOWCxoz54nJB7ka5Uhwgam+rRsmHRvsKlHihXiYgJ+0RPPiTWQFP9N/SDsEuDpDMOYHhClcAgBQeYEwvTQEAkqYfrAtXAIAUHmBML00BAJKmH6wLVwCAFB5gTC9NgUUAsjv4eTeVcGr6rxu3kU4tvKwotYWdXIHVEzWSuIX4vyNab1f0wXla+xX9lPYl9/645WyARP60Mvs3KvCgUDtFGP0xP7+NiFUTRn/a0kX3FBmGV0lNZwGE/a24p/snT19iRIoQPUkwGA8oEAmI4Igk9kKpFafsgCQcrBZ15CUA0UoNQT8RgCTGJ/sLkVkBYVeOwxiNCpQYAEFWwORVgQhAEhbI52EixtCMSDZA1BI319GamirX0tdIbBQWyKBk1E5CS/JsgCSvHL9nPCiQGohaCtfUzwAgynEZ3UloyZ4FEPVvxAe+XlMOhJbOdfQzAIj2Z9C5Xq23CcjALx0BkBlZHAJE+SvP2B8LSlUjCyDaq0fYhz5cu9NjkwcgqSmRYD8MiO5Xnpm+gc8DiPLqEULYV2IBSEKCp5r2ADJRTLJch+QCRHf1CHf7HF0e+3ptomCkpk4d9j2AqF+DvqgZ+6OqKeIDkBT1YPtWAQAiy4gpfqMDFUQWi0mtAIhMXgAi082cFQCRhQyAyHQzZwVAZCEDIDLdzFkBEFnIAIhMN3NWAEQWMgAi082cFQCRhQyAyHQzZwVAZCEDIDLdzFkBEFnIAIhMN3NWAEQWMgAi082cFQCRhQyAyHQzZwVAZCEDIDLdzFkBEFnIAIhMN3NWAEQWMgAi082cFQCRhQyAyHQzZwVAZCEDIDLdzFkBEFnIAIhMN3NWAEQWMgAi082cFQCRhQyAyHQzZwVAZCEDIDLdzFkBEFnIAIhMN3NWAEQWMgAi082cFQCRhQyAyHQzZwVAZCEDIDLdzFkBEFnIAIhMN3NWAEQWMgAi082cFQCRhQyAyHQzZwVAZCEDIDLdzFkBEFnIAIhMN3NWAEQWMgAi082cFQCRhQyAyHQzZwVAZCEDIDLdzFkBEFnIAIhMN3NWAEQWMgAi082cFQCRhQyAyHQzZwVAZCEDIDLdzFkBEFnIAIhMN3NWAEQWMgAi082cFQCRhQyAyHQzZwVAZCEDIDLdzFkBEFnIAIhMN3NWPYD89dWf+xX90J7Pw7Vz2n12+5t8gDDg2Xf/gzyda07maUun/9y4ptvnVMHQ9L3YvnoA+fOrX5+s6F/VefeMpToGEWUB5P03/9kR3Wo637d6ABBNlZl9DSSt+i6iJEDUk3ZAHPWxmDlSdfMhQJR3Ed7R5eOVu59a7ywVRL3EApCp80LW/0Bc3n/3n5ynO1nHh1Z9W2yt/nf9ZAEkDKa4zWoert1pnxCoINopwuhvAJCXRTJcqK8ZPR5vmml7FQbPBoiWQG5LF79u3AaAJKeZfgcjiau0eA0ukNqTygZIcDxZoIiVI3kMbYVr6i8iPqk7ibEFUlvurIDsQRL2oqxS64luH6/dlzEBAMiYQhP+ewQgYSexWtFHwV3Nxm3pcmj3MMXMsgMSJsEUiSUMAJkiTSL7jABk1xNry+1o83DlLiK9UG02CyC7GbR3Nrb0gVa07jxIbMjTxjtqYqrGviIARDU/eJ0xAHldKE/ovM0B1z5I3t9VNJ6ovY3LzQGe08OtZwVk37WwooT/P/Z0nDNhAMJRS7ktE5Du6CEH3hGtc2+jhlRYDCBaoQIgWkoK+kkERDDi5CYAZHKJKxoAgCw/2KggM8YIgMwofuTQACRSqCmaAZApVNXtE4Do6snqDYCw5JqlMQCZRfbnQQHIjOJHDg1AIoWaohkAmUJV3T4BiK6erN4ACEuuWRoDkFlkxxZrRtlZQwMQlly6jVFBdPWcojcAMoWqkX0CkEihZmwGQGYUH4DMKH7k0AAkUqgpmgGQKVTV7VP9gAhd98ruDYDYiO/ZNx8OKWN9sWhjZsv2MtdRPDlVKO5t3iDeFCc55gyK1bFyHcWTU58iAdE+gylnQMyONeNnsVNqViQgbRX529+Ro09Tioe+fytQYvUIsysWENahAMj0JAVyH8WT5CzTuFhAgg7M01OY0qE5EbFOnLGoWNGA7ALSPhtx9PHI6SkWYza3zw05arynzZynjeQSoQpA9sXcnZ4yJvAqHEejeNjybrywVx8be+jfhYeujQ4Z41fqiTOjTiywQXWAxMZgojthyefKph7d2TP/ZL9idbXWDoD0RAyAWEvlafwFIAAkKIAK0pMHAASAAJCB4gNAAAgAASD8/SmuQfialWiBCoIKggqCCsJf21BB+JqVaIEKggqCCoIKwl/bUEH4mpVogQqCCoIKggrCX9tQQfialWiBCoIKggqCCsJf21BB+JqVaIEKggqCCoIKwl/bUEH4mpVogQqCCoIKggrCX9tQQfialWiBCoIKggqCCsJf21BB+JqVaIEKggqCCoIKwl/bUEH4mpVogQqCCoIKggrCX9sm+SEehd/PWKpffIVtWKCC9MRpkh/iUQBkCr880W0NpyRKkAQgA6pp/86I1g/MaP9AkJZfkgRcug0AyQiI1k8EaIOr5dfSk13iHwAZUE11O6P4AzOqfils+ySJZ8UGgIxESuss3Idrp6q1kl84UXEk/qpBs7IqcPxsV+sTuiNP5xy7/bZT/MDMUv2SarRUOwASEZmUX6ua8g5Rkl+OLh+v3H3E9KtuAkAiwy/4taosv760VL8iZV18MwDCDFHE1qbxRPe5nyss1S+mvItrDkASQtKu3id0Tp7+WG3p568bt0noTs10qX6pTTBjRwAko9gYyp4CAMRezOBxRgUASEaxMZQ9BQCIvZjB44wKAJCMYmMoewoAEHsxg8cZFQAgGcXGUPYUACD2YgaPMyoAQDKKjaHsKQBA7MUMHmdUAIBkFBtD2VMAgNiLGTzOqMD/AdgER1AX5I4eAAAAAElFTkSuQmCC" parent="1" vertex="1">
          <mxGeometry x="-90" y="820.6300000000002" width="28" height="28" as="geometry" />
        </mxCell>
        <mxCell id="aqfIlqZua8wNAoRfI1L8-12" value="" style="shape=image;verticalLabelPosition=bottom;verticalAlign=top;imageAspect=0;aspect=fixed;image=data:image/png,iVBORw0KGgoAAAANSUhEUgAAAMgAAADICAYAAACtWK6eAAAAAXNSR0IArs4c6QAADYtJREFUeF7tnU123LgOhcFy9tHlHfSJex57JYkn9vMq4qwinUzst5JU5rFP76C1kOfiO5RdTllVkggQogTyZtSdECR4gY+g/liO8AcKQIFeBRy0gQJQoF8BAILsgAIDCgAQpAcUACDIASggUwAVRKYbrCpRAIBUEmhMU6YAAJHpBqtKFAAglQQa05QpAEBkusGqEgUASCWBxjRlCgAQmW6wqkQBAHIk0O+/+0+rJ2p+3bhNDXnw11d/vj2h9eOVu69hvpw5ApCOWgEO5+ku/LUnun28dl84glprG+DwK/rRztfRJSB5G0EA0sno/YQhouZpSxf/3LjGWuLH+PvnV78+WdG/u7YA5FA1ANLRpE2aE7ojT+cv/9Q8XLvTmISz1ubsu/9RwzxT4gJAjqh3sLIWuNV6/81/dkS3u+m7LV3Ucs3FAQaA9KjVSaDGbemylASqYQHgQDDUFoD0qFPyVuvN1srR5uHKXWglVGn9AJCBiHZXWvJ0//Afd2k5CbC14kUPgIzotX/bN9zVsrzV6tyhq+I2Ng8H3MUS6VXK3R5srfjhRwWJ0GzKrVboe+fCO6L2v/9H1D530Xz+cva3vyNHn3ZjPW3pVLP/CBlNNgEgkWHrbLWIc1s0QLA6oXPy9IfztKYVrfeeP8R48Pyg0lP76otf0U/OqzDdrRXH9xjnSm4DQBjR7azCvU/ZWyBW9NG5FordA0fGSNFNG3LUeE+b1ZZ+9t2GPvvmw9Py50qFu1bR4j7LhT/RCrxstcJ7S8/JtndX6xWKvYdv0R3rNWxClQkVZvdOVSnXT3oS8XoCIDy9qLtdCZDs7+2Z3U3ZvIVl3zdsrfhyAxC+ZtS94BV0kd8EWyuR5gCEIduRp+sM60U0Nf0cZw4FAUiE6i0Yjj4vdCsVMYODJgAlUjUAMiJU99WMSF1tNCvg1ZmphQYgPQq/XIyHLwtfH+RNHYyZ+m+8oy/4kvC4+gDkiC5FV40eCmv4vFiyAAGQPdUKuAiX5MC+TdGfGEvEASAvqh28byVRswwbXMDvxRGAEB0+/Csj0VNm0Xii+9JPdIkRqHpADp6Mx6hWRxtAUvu7WAlwtMkTXhAMrIRD15ynz4u64+Vos3uJsfVvSx8kz3Fqv3ivtoKI4eh5drCQlxXb2tb3ztXBy5aRlbBmSKoERAzHyPtMS7gLNnb4m/BmRLUX7tUBIkyQdq2N+Qovpf/IBX2oWdQhd8LnPFXeAq4OkM73EaycfLh2UXqdffOe1bFW48hXR8QVlCgKQK3pLKGfqIAvwVENH4Qr5/PQjNfF33zBp+F4ZB+x1wpJVS4SwkiXF9+sGkASVs1dEKNXz9kqSCTE3e/rmVla1fVINYCkbK12CRTzRV5i8jFz9aB5FMQKH3xFjZM6mSXYVwFI0tbqbZRGE0MDxKTEGNkCKVTSZ/cq2WpVAYjqlsfR5umJLrtnSi3hFu8LWL1PwJVf4a/irlbxgChWj/2F/fX0kHDW1fM1/O+fEkiqAHrGb3yc5AiiCqpI8YCoVg+95C2lp+KrSNGATFQ9SklunXkUXkWKBmSu5xE6mWeml9EbF2ZmcsTRYgGZ+Xar5Zxg+x5z+5vd6UIMigVE4V7/QkJkwI3IB5QGZnLgYrmA7B/YbDEytnwudptVJCDYXuWnq9RtVpGAYHuVH5BSn6wDkBlyqcghC70OKRMQXH/MwWCR1yGlAjLPB0tzpOWCxoz54nJB7ka5Uhwgam+rRsmHRvsKlHihXiYgJ+0RPPiTWQFP9N/SDsEuDpDMOYHhClcAgBQeYEwvTQEAkqYfrAtXAIAUHmBML00BAJKmH6wLVwCAFB5gTC9NgUUAsjv4eTeVcGr6rxu3kU4tvKwotYWdXIHVEzWSuIX4vyNab1f0wXla+xX9lPYl9/645WyARP60Mvs3KvCgUDtFGP0xP7+NiFUTRn/a0kX3FBmGV0lNZwGE/a24p/snT19iRIoQPUkwGA8oEAmI4Igk9kKpFafsgCQcrBZ15CUA0UoNQT8RgCTGJ/sLkVkBYVeOwxiNCpQYAEFWwORVgQhAEhbI52EixtCMSDZA1BI319GamirX0tdIbBQWyKBk1E5CS/JsgCSvHL9nPCiQGohaCtfUzwAgynEZ3UloyZ4FEPVvxAe+XlMOhJbOdfQzAIj2Z9C5Xq23CcjALx0BkBlZHAJE+SvP2B8LSlUjCyDaq0fYhz5cu9NjkwcgqSmRYD8MiO5Xnpm+gc8DiPLqEULYV2IBSEKCp5r2ADJRTLJch+QCRHf1CHf7HF0e+3ptomCkpk4d9j2AqF+DvqgZ+6OqKeIDkBT1YPtWAQAiy4gpfqMDFUQWi0mtAIhMXgAi082cFQCRhQyAyHQzZwVAZCEDIDLdzFkBEFnIAIhMN3NWAEQWMgAi082cFQCRhQyAyHQzZwVAZCEDIDLdzFkBEFnIAIhMN3NWAEQWMgAi082cFQCRhQyAyHQzZwVAZCEDIDLdzFkBEFnIAIhMN3NWAEQWMgAi082cFQCRhQyAyHQzZwVAZCEDIDLdzFkBEFnIAIhMN3NWAEQWMgAi082cFQCRhQyAyHQzZwVAZCEDIDLdzFkBEFnIAIhMN3NWAEQWMgAi082cFQCRhQyAyHQzZwVAZCEDIDLdzFkBEFnIAIhMN3NWAEQWMgAi082cFQCRhQyAyHQzZwVAZCEDIDLdzFkBEFnIAIhMN3NWAEQWMgAi082cFQCRhQyAyHQzZwVAZCEDIDLdzFkBEFnIAIhMN3NWAEQWMgAi082cFQCRhQyAyHQzZwVAZCEDIDLdzFkBEFnIAIhMN3NWAEQWMgAi082cFQCRhQyAyHQzZwVAZCEDIDLdzFkBEFnIAIhMN3NWPYD89dWf+xX90J7Pw7Vz2n12+5t8gDDg2Xf/gzyda07maUun/9y4ptvnVMHQ9L3YvnoA+fOrX5+s6F/VefeMpToGEWUB5P03/9kR3Wo637d6ABBNlZl9DSSt+i6iJEDUk3ZAHPWxmDlSdfMhQJR3Ed7R5eOVu59a7ywVRL3EApCp80LW/0Bc3n/3n5ynO1nHh1Z9W2yt/nf9ZAEkDKa4zWoert1pnxCoINopwuhvAJCXRTJcqK8ZPR5vmml7FQbPBoiWQG5LF79u3AaAJKeZfgcjiau0eA0ukNqTygZIcDxZoIiVI3kMbYVr6i8iPqk7ibEFUlvurIDsQRL2oqxS64luH6/dlzEBAMiYQhP+ewQgYSexWtFHwV3Nxm3pcmj3MMXMsgMSJsEUiSUMAJkiTSL7jABk1xNry+1o83DlLiK9UG02CyC7GbR3Nrb0gVa07jxIbMjTxjtqYqrGviIARDU/eJ0xAHldKE/ovM0B1z5I3t9VNJ6ovY3LzQGe08OtZwVk37WwooT/P/Z0nDNhAMJRS7ktE5Du6CEH3hGtc2+jhlRYDCBaoQIgWkoK+kkERDDi5CYAZHKJKxoAgCw/2KggM8YIgMwofuTQACRSqCmaAZApVNXtE4Do6snqDYCw5JqlMQCZRfbnQQHIjOJHDg1AIoWaohkAmUJV3T4BiK6erN4ACEuuWRoDkFlkxxZrRtlZQwMQlly6jVFBdPWcojcAMoWqkX0CkEihZmwGQGYUH4DMKH7k0AAkUqgpmgGQKVTV7VP9gAhd98ruDYDYiO/ZNx8OKWN9sWhjZsv2MtdRPDlVKO5t3iDeFCc55gyK1bFyHcWTU58iAdE+gylnQMyONeNnsVNqViQgbRX529+Ro09Tioe+fytQYvUIsysWENahAMj0JAVyH8WT5CzTuFhAgg7M01OY0qE5EbFOnLGoWNGA7ALSPhtx9PHI6SkWYza3zw05arynzZynjeQSoQpA9sXcnZ4yJvAqHEejeNjybrywVx8be+jfhYeujQ4Z41fqiTOjTiywQXWAxMZgojthyefKph7d2TP/ZL9idbXWDoD0RAyAWEvlafwFIAAkKIAK0pMHAASAAJCB4gNAAAgAASD8/SmuQfialWiBCoIKggqCCsJf21BB+JqVaIEKggqCCoIKwl/bUEH4mpVogQqCCoIKggrCX9tQQfialWiBCoIKggqCCsJf21BB+JqVaIEKggqCCoIKwl/bUEH4mpVogQqCCoIKggrCX9tQQfialWiBCoIKggqCCsJf21BB+JqVaIEKggqCCoIKwl/bUEH4mpVogQqCCoIKggrCX9sm+SEehd/PWKpffIVtWKCC9MRpkh/iUQBkCr880W0NpyRKkAQgA6pp/86I1g/MaP9AkJZfkgRcug0AyQiI1k8EaIOr5dfSk13iHwAZUE11O6P4AzOqfils+ySJZ8UGgIxESuss3Idrp6q1kl84UXEk/qpBs7IqcPxsV+sTuiNP5xy7/bZT/MDMUv2SarRUOwASEZmUX6ua8g5Rkl+OLh+v3H3E9KtuAkAiwy/4taosv760VL8iZV18MwDCDFHE1qbxRPe5nyss1S+mvItrDkASQtKu3id0Tp7+WG3p568bt0noTs10qX6pTTBjRwAko9gYyp4CAMRezOBxRgUASEaxMZQ9BQCIvZjB44wKAJCMYmMoewoAEHsxg8cZFQAgGcXGUPYUACD2YgaPMyoAQDKKjaHsKQBA7MUMHmdUAIBkFBtD2VMAgNiLGTzOqMD/AdgER1AX5I4eAAAAAElFTkSuQmCC" parent="1" vertex="1">
          <mxGeometry x="-90" y="880.3800000000001" width="28" height="28" as="geometry" />
        </mxCell>
        <mxCell id="aqfIlqZua8wNAoRfI1L8-13" value="" style="shape=image;verticalLabelPosition=bottom;verticalAlign=top;imageAspect=0;aspect=fixed;image=data:image/png,iVBORw0KGgoAAAANSUhEUgAAAMgAAADICAYAAACtWK6eAAAAAXNSR0IArs4c6QAADYtJREFUeF7tnU123LgOhcFy9tHlHfSJex57JYkn9vMq4qwinUzst5JU5rFP76C1kOfiO5RdTllVkggQogTyZtSdECR4gY+g/liO8AcKQIFeBRy0gQJQoF8BAILsgAIDCgAQpAcUACDIASggUwAVRKYbrCpRAIBUEmhMU6YAAJHpBqtKFAAglQQa05QpAEBkusGqEgUASCWBxjRlCgAQmW6wqkQBAHIk0O+/+0+rJ2p+3bhNDXnw11d/vj2h9eOVu69hvpw5ApCOWgEO5+ku/LUnun28dl84glprG+DwK/rRztfRJSB5G0EA0sno/YQhouZpSxf/3LjGWuLH+PvnV78+WdG/u7YA5FA1ANLRpE2aE7ojT+cv/9Q8XLvTmISz1ubsu/9RwzxT4gJAjqh3sLIWuNV6/81/dkS3u+m7LV3Ucs3FAQaA9KjVSaDGbemylASqYQHgQDDUFoD0qFPyVuvN1srR5uHKXWglVGn9AJCBiHZXWvJ0//Afd2k5CbC14kUPgIzotX/bN9zVsrzV6tyhq+I2Ng8H3MUS6VXK3R5srfjhRwWJ0GzKrVboe+fCO6L2v/9H1D530Xz+cva3vyNHn3ZjPW3pVLP/CBlNNgEgkWHrbLWIc1s0QLA6oXPy9IfztKYVrfeeP8R48Pyg0lP76otf0U/OqzDdrRXH9xjnSm4DQBjR7azCvU/ZWyBW9NG5FordA0fGSNFNG3LUeE+b1ZZ+9t2GPvvmw9Py50qFu1bR4j7LhT/RCrxstcJ7S8/JtndX6xWKvYdv0R3rNWxClQkVZvdOVSnXT3oS8XoCIDy9qLtdCZDs7+2Z3U3ZvIVl3zdsrfhyAxC+ZtS94BV0kd8EWyuR5gCEIduRp+sM60U0Nf0cZw4FAUiE6i0Yjj4vdCsVMYODJgAlUjUAMiJU99WMSF1tNCvg1ZmphQYgPQq/XIyHLwtfH+RNHYyZ+m+8oy/4kvC4+gDkiC5FV40eCmv4vFiyAAGQPdUKuAiX5MC+TdGfGEvEASAvqh28byVRswwbXMDvxRGAEB0+/Csj0VNm0Xii+9JPdIkRqHpADp6Mx6hWRxtAUvu7WAlwtMkTXhAMrIRD15ynz4u64+Vos3uJsfVvSx8kz3Fqv3ivtoKI4eh5drCQlxXb2tb3ztXBy5aRlbBmSKoERAzHyPtMS7gLNnb4m/BmRLUX7tUBIkyQdq2N+Qovpf/IBX2oWdQhd8LnPFXeAq4OkM73EaycfLh2UXqdffOe1bFW48hXR8QVlCgKQK3pLKGfqIAvwVENH4Qr5/PQjNfF33zBp+F4ZB+x1wpJVS4SwkiXF9+sGkASVs1dEKNXz9kqSCTE3e/rmVla1fVINYCkbK12CRTzRV5i8jFz9aB5FMQKH3xFjZM6mSXYVwFI0tbqbZRGE0MDxKTEGNkCKVTSZ/cq2WpVAYjqlsfR5umJLrtnSi3hFu8LWL1PwJVf4a/irlbxgChWj/2F/fX0kHDW1fM1/O+fEkiqAHrGb3yc5AiiCqpI8YCoVg+95C2lp+KrSNGATFQ9SklunXkUXkWKBmSu5xE6mWeml9EbF2ZmcsTRYgGZ+Xar5Zxg+x5z+5vd6UIMigVE4V7/QkJkwI3IB5QGZnLgYrmA7B/YbDEytnwudptVJCDYXuWnq9RtVpGAYHuVH5BSn6wDkBlyqcghC70OKRMQXH/MwWCR1yGlAjLPB0tzpOWCxoz54nJB7ka5Uhwgam+rRsmHRvsKlHihXiYgJ+0RPPiTWQFP9N/SDsEuDpDMOYHhClcAgBQeYEwvTQEAkqYfrAtXAIAUHmBML00BAJKmH6wLVwCAFB5gTC9NgUUAsjv4eTeVcGr6rxu3kU4tvKwotYWdXIHVEzWSuIX4vyNab1f0wXla+xX9lPYl9/645WyARP60Mvs3KvCgUDtFGP0xP7+NiFUTRn/a0kX3FBmGV0lNZwGE/a24p/snT19iRIoQPUkwGA8oEAmI4Igk9kKpFafsgCQcrBZ15CUA0UoNQT8RgCTGJ/sLkVkBYVeOwxiNCpQYAEFWwORVgQhAEhbI52EixtCMSDZA1BI319GamirX0tdIbBQWyKBk1E5CS/JsgCSvHL9nPCiQGohaCtfUzwAgynEZ3UloyZ4FEPVvxAe+XlMOhJbOdfQzAIj2Z9C5Xq23CcjALx0BkBlZHAJE+SvP2B8LSlUjCyDaq0fYhz5cu9NjkwcgqSmRYD8MiO5Xnpm+gc8DiPLqEULYV2IBSEKCp5r2ADJRTLJch+QCRHf1CHf7HF0e+3ptomCkpk4d9j2AqF+DvqgZ+6OqKeIDkBT1YPtWAQAiy4gpfqMDFUQWi0mtAIhMXgAi082cFQCRhQyAyHQzZwVAZCEDIDLdzFkBEFnIAIhMN3NWAEQWMgAi082cFQCRhQyAyHQzZwVAZCEDIDLdzFkBEFnIAIhMN3NWAEQWMgAi082cFQCRhQyAyHQzZwVAZCEDIDLdzFkBEFnIAIhMN3NWAEQWMgAi082cFQCRhQyAyHQzZwVAZCEDIDLdzFkBEFnIAIhMN3NWAEQWMgAi082cFQCRhQyAyHQzZwVAZCEDIDLdzFkBEFnIAIhMN3NWAEQWMgAi082cFQCRhQyAyHQzZwVAZCEDIDLdzFkBEFnIAIhMN3NWAEQWMgAi082cFQCRhQyAyHQzZwVAZCEDIDLdzFkBEFnIAIhMN3NWAEQWMgAi082cFQCRhQyAyHQzZwVAZCEDIDLdzFkBEFnIAIhMN3NWAEQWMgAi082cFQCRhQyAyHQzZwVAZCEDIDLdzFkBEFnIAIhMN3NWAEQWMgAi082cFQCRhQyAyHQzZwVAZCEDIDLdzFkBEFnIAIhMN3NWPYD89dWf+xX90J7Pw7Vz2n12+5t8gDDg2Xf/gzyda07maUun/9y4ptvnVMHQ9L3YvnoA+fOrX5+s6F/VefeMpToGEWUB5P03/9kR3Wo637d6ABBNlZl9DSSt+i6iJEDUk3ZAHPWxmDlSdfMhQJR3Ed7R5eOVu59a7ywVRL3EApCp80LW/0Bc3n/3n5ynO1nHh1Z9W2yt/nf9ZAEkDKa4zWoert1pnxCoINopwuhvAJCXRTJcqK8ZPR5vmml7FQbPBoiWQG5LF79u3AaAJKeZfgcjiau0eA0ukNqTygZIcDxZoIiVI3kMbYVr6i8iPqk7ibEFUlvurIDsQRL2oqxS64luH6/dlzEBAMiYQhP+ewQgYSexWtFHwV3Nxm3pcmj3MMXMsgMSJsEUiSUMAJkiTSL7jABk1xNry+1o83DlLiK9UG02CyC7GbR3Nrb0gVa07jxIbMjTxjtqYqrGviIARDU/eJ0xAHldKE/ovM0B1z5I3t9VNJ6ovY3LzQGe08OtZwVk37WwooT/P/Z0nDNhAMJRS7ktE5Du6CEH3hGtc2+jhlRYDCBaoQIgWkoK+kkERDDi5CYAZHKJKxoAgCw/2KggM8YIgMwofuTQACRSqCmaAZApVNXtE4Do6snqDYCw5JqlMQCZRfbnQQHIjOJHDg1AIoWaohkAmUJV3T4BiK6erN4ACEuuWRoDkFlkxxZrRtlZQwMQlly6jVFBdPWcojcAMoWqkX0CkEihZmwGQGYUH4DMKH7k0AAkUqgpmgGQKVTV7VP9gAhd98ruDYDYiO/ZNx8OKWN9sWhjZsv2MtdRPDlVKO5t3iDeFCc55gyK1bFyHcWTU58iAdE+gylnQMyONeNnsVNqViQgbRX529+Ro09Tioe+fytQYvUIsysWENahAMj0JAVyH8WT5CzTuFhAgg7M01OY0qE5EbFOnLGoWNGA7ALSPhtx9PHI6SkWYza3zw05arynzZynjeQSoQpA9sXcnZ4yJvAqHEejeNjybrywVx8be+jfhYeujQ4Z41fqiTOjTiywQXWAxMZgojthyefKph7d2TP/ZL9idbXWDoD0RAyAWEvlafwFIAAkKIAK0pMHAASAAJCB4gNAAAgAASD8/SmuQfialWiBCoIKggqCCsJf21BB+JqVaIEKggqCCoIKwl/bUEH4mpVogQqCCoIKggrCX9tQQfialWiBCoIKggqCCsJf21BB+JqVaIEKggqCCoIKwl/bUEH4mpVogQqCCoIKggrCX9tQQfialWiBCoIKggqCCsJf21BB+JqVaIEKggqCCoIKwl/bUEH4mpVogQqCCoIKggrCX9sm+SEehd/PWKpffIVtWKCC9MRpkh/iUQBkCr880W0NpyRKkAQgA6pp/86I1g/MaP9AkJZfkgRcug0AyQiI1k8EaIOr5dfSk13iHwAZUE11O6P4AzOqfils+ySJZ8UGgIxESuss3Idrp6q1kl84UXEk/qpBs7IqcPxsV+sTuiNP5xy7/bZT/MDMUv2SarRUOwASEZmUX6ua8g5Rkl+OLh+v3H3E9KtuAkAiwy/4taosv760VL8iZV18MwDCDFHE1qbxRPe5nyss1S+mvItrDkASQtKu3id0Tp7+WG3p568bt0noTs10qX6pTTBjRwAko9gYyp4CAMRezOBxRgUASEaxMZQ9BQCIvZjB44wKAJCMYmMoewoAEHsxg8cZFQAgGcXGUPYUACD2YgaPMyoAQDKKjaHsKQBA7MUMHmdUAIBkFBtD2VMAgNiLGTzOqMD/AdgER1AX5I4eAAAAAElFTkSuQmCC" parent="1" vertex="1">
          <mxGeometry x="-2" y="880.3800000000001" width="28" height="28" as="geometry" />
        </mxCell>
        <mxCell id="aqfIlqZua8wNAoRfI1L8-59" style="rounded=0;orthogonalLoop=1;jettySize=auto;html=1;exitX=0.5;exitY=1;exitDx=0;exitDy=0;" parent="1" source="aqfIlqZua8wNAoRfI1L8-14" target="aqfIlqZua8wNAoRfI1L8-13" edge="1">
          <mxGeometry relative="1" as="geometry" />
        </mxCell>
        <mxCell id="aqfIlqZua8wNAoRfI1L8-14" value="" style="shape=image;verticalLabelPosition=bottom;verticalAlign=top;imageAspect=0;aspect=fixed;image=data:image/png,iVBORw0KGgoAAAANSUhEUgAAAMgAAADICAYAAACtWK6eAAAAAXNSR0IArs4c6QAADYtJREFUeF7tnU123LgOhcFy9tHlHfSJex57JYkn9vMq4qwinUzst5JU5rFP76C1kOfiO5RdTllVkggQogTyZtSdECR4gY+g/liO8AcKQIFeBRy0gQJQoF8BAILsgAIDCgAQpAcUACDIASggUwAVRKYbrCpRAIBUEmhMU6YAAJHpBqtKFAAglQQa05QpAEBkusGqEgUASCWBxjRlCgAQmW6wqkQBAHIk0O+/+0+rJ2p+3bhNDXnw11d/vj2h9eOVu69hvpw5ApCOWgEO5+ku/LUnun28dl84glprG+DwK/rRztfRJSB5G0EA0sno/YQhouZpSxf/3LjGWuLH+PvnV78+WdG/u7YA5FA1ANLRpE2aE7ojT+cv/9Q8XLvTmISz1ubsu/9RwzxT4gJAjqh3sLIWuNV6/81/dkS3u+m7LV3Ucs3FAQaA9KjVSaDGbemylASqYQHgQDDUFoD0qFPyVuvN1srR5uHKXWglVGn9AJCBiHZXWvJ0//Afd2k5CbC14kUPgIzotX/bN9zVsrzV6tyhq+I2Ng8H3MUS6VXK3R5srfjhRwWJ0GzKrVboe+fCO6L2v/9H1D530Xz+cva3vyNHn3ZjPW3pVLP/CBlNNgEgkWHrbLWIc1s0QLA6oXPy9IfztKYVrfeeP8R48Pyg0lP76otf0U/OqzDdrRXH9xjnSm4DQBjR7azCvU/ZWyBW9NG5FordA0fGSNFNG3LUeE+b1ZZ+9t2GPvvmw9Py50qFu1bR4j7LhT/RCrxstcJ7S8/JtndX6xWKvYdv0R3rNWxClQkVZvdOVSnXT3oS8XoCIDy9qLtdCZDs7+2Z3U3ZvIVl3zdsrfhyAxC+ZtS94BV0kd8EWyuR5gCEIduRp+sM60U0Nf0cZw4FAUiE6i0Yjj4vdCsVMYODJgAlUjUAMiJU99WMSF1tNCvg1ZmphQYgPQq/XIyHLwtfH+RNHYyZ+m+8oy/4kvC4+gDkiC5FV40eCmv4vFiyAAGQPdUKuAiX5MC+TdGfGEvEASAvqh28byVRswwbXMDvxRGAEB0+/Csj0VNm0Xii+9JPdIkRqHpADp6Mx6hWRxtAUvu7WAlwtMkTXhAMrIRD15ynz4u64+Vos3uJsfVvSx8kz3Fqv3ivtoKI4eh5drCQlxXb2tb3ztXBy5aRlbBmSKoERAzHyPtMS7gLNnb4m/BmRLUX7tUBIkyQdq2N+Qovpf/IBX2oWdQhd8LnPFXeAq4OkM73EaycfLh2UXqdffOe1bFW48hXR8QVlCgKQK3pLKGfqIAvwVENH4Qr5/PQjNfF33zBp+F4ZB+x1wpJVS4SwkiXF9+sGkASVs1dEKNXz9kqSCTE3e/rmVla1fVINYCkbK12CRTzRV5i8jFz9aB5FMQKH3xFjZM6mSXYVwFI0tbqbZRGE0MDxKTEGNkCKVTSZ/cq2WpVAYjqlsfR5umJLrtnSi3hFu8LWL1PwJVf4a/irlbxgChWj/2F/fX0kHDW1fM1/O+fEkiqAHrGb3yc5AiiCqpI8YCoVg+95C2lp+KrSNGATFQ9SklunXkUXkWKBmSu5xE6mWeml9EbF2ZmcsTRYgGZ+Xar5Zxg+x5z+5vd6UIMigVE4V7/QkJkwI3IB5QGZnLgYrmA7B/YbDEytnwudptVJCDYXuWnq9RtVpGAYHuVH5BSn6wDkBlyqcghC70OKRMQXH/MwWCR1yGlAjLPB0tzpOWCxoz54nJB7ka5Uhwgam+rRsmHRvsKlHihXiYgJ+0RPPiTWQFP9N/SDsEuDpDMOYHhClcAgBQeYEwvTQEAkqYfrAtXAIAUHmBML00BAJKmH6wLVwCAFB5gTC9NgUUAsjv4eTeVcGr6rxu3kU4tvKwotYWdXIHVEzWSuIX4vyNab1f0wXla+xX9lPYl9/645WyARP60Mvs3KvCgUDtFGP0xP7+NiFUTRn/a0kX3FBmGV0lNZwGE/a24p/snT19iRIoQPUkwGA8oEAmI4Igk9kKpFafsgCQcrBZ15CUA0UoNQT8RgCTGJ/sLkVkBYVeOwxiNCpQYAEFWwORVgQhAEhbI52EixtCMSDZA1BI319GamirX0tdIbBQWyKBk1E5CS/JsgCSvHL9nPCiQGohaCtfUzwAgynEZ3UloyZ4FEPVvxAe+XlMOhJbOdfQzAIj2Z9C5Xq23CcjALx0BkBlZHAJE+SvP2B8LSlUjCyDaq0fYhz5cu9NjkwcgqSmRYD8MiO5Xnpm+gc8DiPLqEULYV2IBSEKCp5r2ADJRTLJch+QCRHf1CHf7HF0e+3ptomCkpk4d9j2AqF+DvqgZ+6OqKeIDkBT1YPtWAQAiy4gpfqMDFUQWi0mtAIhMXgAi082cFQCRhQyAyHQzZwVAZCEDIDLdzFkBEFnIAIhMN3NWAEQWMgAi082cFQCRhQyAyHQzZwVAZCEDIDLdzFkBEFnIAIhMN3NWAEQWMgAi082cFQCRhQyAyHQzZwVAZCEDIDLdzFkBEFnIAIhMN3NWAEQWMgAi082cFQCRhQyAyHQzZwVAZCEDIDLdzFkBEFnIAIhMN3NWAEQWMgAi082cFQCRhQyAyHQzZwVAZCEDIDLdzFkBEFnIAIhMN3NWAEQWMgAi082cFQCRhQyAyHQzZwVAZCEDIDLdzFkBEFnIAIhMN3NWAEQWMgAi082cFQCRhQyAyHQzZwVAZCEDIDLdzFkBEFnIAIhMN3NWAEQWMgAi082cFQCRhQyAyHQzZwVAZCEDIDLdzFkBEFnIAIhMN3NWAEQWMgAi082cFQCRhQyAyHQzZwVAZCEDIDLdzFkBEFnIAIhMN3NWAEQWMgAi082cFQCRhQyAyHQzZwVAZCEDIDLdzFkBEFnIAIhMN3NWPYD89dWf+xX90J7Pw7Vz2n12+5t8gDDg2Xf/gzyda07maUun/9y4ptvnVMHQ9L3YvnoA+fOrX5+s6F/VefeMpToGEWUB5P03/9kR3Wo637d6ABBNlZl9DSSt+i6iJEDUk3ZAHPWxmDlSdfMhQJR3Ed7R5eOVu59a7ywVRL3EApCp80LW/0Bc3n/3n5ynO1nHh1Z9W2yt/nf9ZAEkDKa4zWoert1pnxCoINopwuhvAJCXRTJcqK8ZPR5vmml7FQbPBoiWQG5LF79u3AaAJKeZfgcjiau0eA0ukNqTygZIcDxZoIiVI3kMbYVr6i8iPqk7ibEFUlvurIDsQRL2oqxS64luH6/dlzEBAMiYQhP+ewQgYSexWtFHwV3Nxm3pcmj3MMXMsgMSJsEUiSUMAJkiTSL7jABk1xNry+1o83DlLiK9UG02CyC7GbR3Nrb0gVa07jxIbMjTxjtqYqrGviIARDU/eJ0xAHldKE/ovM0B1z5I3t9VNJ6ovY3LzQGe08OtZwVk37WwooT/P/Z0nDNhAMJRS7ktE5Du6CEH3hGtc2+jhlRYDCBaoQIgWkoK+kkERDDi5CYAZHKJKxoAgCw/2KggM8YIgMwofuTQACRSqCmaAZApVNXtE4Do6snqDYCw5JqlMQCZRfbnQQHIjOJHDg1AIoWaohkAmUJV3T4BiK6erN4ACEuuWRoDkFlkxxZrRtlZQwMQlly6jVFBdPWcojcAMoWqkX0CkEihZmwGQGYUH4DMKH7k0AAkUqgpmgGQKVTV7VP9gAhd98ruDYDYiO/ZNx8OKWN9sWhjZsv2MtdRPDlVKO5t3iDeFCc55gyK1bFyHcWTU58iAdE+gylnQMyONeNnsVNqViQgbRX529+Ro09Tioe+fytQYvUIsysWENahAMj0JAVyH8WT5CzTuFhAgg7M01OY0qE5EbFOnLGoWNGA7ALSPhtx9PHI6SkWYza3zw05arynzZynjeQSoQpA9sXcnZ4yJvAqHEejeNjybrywVx8be+jfhYeujQ4Z41fqiTOjTiywQXWAxMZgojthyefKph7d2TP/ZL9idbXWDoD0RAyAWEvlafwFIAAkKIAK0pMHAASAAJCB4gNAAAgAASD8/SmuQfialWiBCoIKggqCCsJf21BB+JqVaIEKggqCCoIKwl/bUEH4mpVogQqCCoIKggrCX9tQQfialWiBCoIKggqCCsJf21BB+JqVaIEKggqCCoIKwl/bUEH4mpVogQqCCoIKggrCX9tQQfialWiBCoIKggqCCsJf21BB+JqVaIEKggqCCoIKwl/bUEH4mpVogQqCCoIKggrCX9sm+SEehd/PWKpffIVtWKCC9MRpkh/iUQBkCr880W0NpyRKkAQgA6pp/86I1g/MaP9AkJZfkgRcug0AyQiI1k8EaIOr5dfSk13iHwAZUE11O6P4AzOqfils+ySJZ8UGgIxESuss3Idrp6q1kl84UXEk/qpBs7IqcPxsV+sTuiNP5xy7/bZT/MDMUv2SarRUOwASEZmUX6ua8g5Rkl+OLh+v3H3E9KtuAkAiwy/4taosv760VL8iZV18MwDCDFHE1qbxRPe5nyss1S+mvItrDkASQtKu3id0Tp7+WG3p568bt0noTs10qX6pTTBjRwAko9gYyp4CAMRezOBxRgUASEaxMZQ9BQCIvZjB44wKAJCMYmMoewoAEHsxg8cZFQAgGcXGUPYUACD2YgaPMyoAQDKKjaHsKQBA7MUMHmdUAIBkFBtD2VMAgNiLGTzOqMD/AdgER1AX5I4eAAAAAElFTkSuQmCC" parent="1" vertex="1">
          <mxGeometry x="-22" y="808.9500000000002" width="28" height="28" as="geometry" />
        </mxCell>
        <mxCell id="aqfIlqZua8wNAoRfI1L8-29" value="" style="shape=image;verticalLabelPosition=bottom;verticalAlign=top;imageAspect=0;aspect=fixed;image=data:image/png,iVBORw0KGgoAAAANSUhEUgAAAMgAAADICAYAAACtWK6eAAAAAXNSR0IArs4c6QAADXhJREFUeF7tnVt227oOhkllIDsdSdORNHmIm1k0nYW385CckSQZyfZELJ5FyU59k0SAICWQv1/a1RK8/MBHUKJEWYMfFIACgwpYaAMFoMCwAgAE0QEFRhQAIAgPKABAEANQgKcAMghPN1hVogAAqcTRGCZPAQDC0w1WlSgAQCpxNIbJUwCA8HSDVSUKAJBKHI1h8hQAIDzdYFWJAgDkiqPd4+O9ubnZ2vX6o4Y4cE9Pd2a3u7UvL281jJcyRgByplYHh7Wv+39+tpvNH4qg2sp2cLTte9dv5x4AyakHAcg5IMcBY8zWNM0Pu15vtQV+SH/d09Otadv/vsoCkAvZAMglILdmt3s11t7t/2trN5tvIQGnrYx7fHyvYZwxfgEg165BzmdWY4pbarnV6rcx5vlr+H2mrOKaiwIMABlQ6yyA/FLroZQAulhaFTgBUCAYKwtAhgDxWaTQpdbJ0sq5D/vy8kMqoEqrB4CMePRiprX2zf7774PmIMDSiuY9ADKh19ltX9VLrZNbuv24i7u2ooX/dGkAMq2RKeVuD5ZWAc4+KwJAAjRLudTq6v77O/y923eR3H9xv369Gufuj+5afZOsP0BGlUUASKDbzpZaZr+BGHRbtINgt7sz1v5jrPWbc7dH+w8hPeg3Kq3t22vbT8qjMBdLK9zSDdG8lzy4JAqas1l4cJd9n3F+Guc8FIcNxxQKbo1z2w6cpvkcug3tViu/W95nJ9y1IvkBgBDk2ge+f26pD7aju1pfUBxvvhHqFiraw9K2n4dnqkq5fhLSh1wNACFKdrFcsfbtZG1PrC9h8R6W0+sO7JYTBQcgRMG6Vcr5BS+jjuwmWFqxJAcgBNn2F9vHDzISrBdRVPU+zhwKApAA1TswnPu90KVUwAguigCUQNUAyIRQF49mBAqrolgBj86k1hmADCi8vxj3bxYeb+Sl9scc9ftbxX/wJuF16QHIFV2KzhrDCOK5rCvaAJAjUQq4CI/NQEW/YswRB4DsVbvyEhFHzxJscAF/5EUA4vc1Tg9qKCHIY8fgn/16K/1ElxCRqgcEcAyGCSCp/WHFCDi64PEPCHbhtdv5p3P9IQjLuePl3MfhIcauf03znbmPU/XFe7UZhA3HwN7BQh5W7NPBwOPsFw9bhqwx+jLVQlIlIGw4Jp5nWsRdsInD35g3I6q9cK8OEGaAHGbmybfwouoPn9GHSgYdcsfc56nyFnB9gJyeJkgKSbvZBOnlVitHqliqcOCjI+wMakwQgFLDWUI9QQ5fQkcl+sCcOfumCY+Ln7zBJ9Hx8DqCrhWislwghOFdXnbJagCJmDUPHgyePWfLIIEQX7xfT4vRqq5H6gEkYmn1FT8Bhx1EBh8tVC9LB0Es8MJXUDuxg1mCfRWARC2tTr00GRhn74Dn9/HEEkggk/ZjqmSpVQsgchfNfgPu5sYfZH3yzZBF3OLtQ3dwB1z4Ef4q7moVD4hg9jjOBl+nh3RnXfW/v58SyJ83rrV42scURxBVkEVqAEQueywj8JfUi+KzSNGAJMoeSwrQ+ftSeBYpHZC/JwrOH0ql9mDyxoXmgRcLyMy3WzXHBL3vAbe/6ZUuw6JcQDQe7raMmKD3InCDkl7x/BblAnJ8YPP8Opfeg2KXWUUCguXVDDwWuswqExAsr/ITUujdLACSP5TKbLHQ65AyAcH1xxwQFnkdUiog2D2fA5GmmXzjco5uxbRZHCBiT6vGqFqrbYEX6mUCstv5I3jwy6/A/0o7BLs4QPLHBFosWQEAUrJ3MbZoBQBItISooGQFAEjJ3sXYohUAINESooKSFQAgJXsXY4tWYBGAHB383A+oaT7tev3BHV33sCJ++RW4udly/Nb535+M37bfjbX+z0/DrEt60LMBEvhpZfI3KrBRKB0ihPqIDywG+Ko/OabfgDw5RYbQq6iiswBCflfc2jdj7Z8QkQJEjxIMxiMKBALCOCKJPFFK+Sk7IBEHqwUdeQlApEKDUU8AIJH+yf5AZFZAyJnj0keTAkU6gBEVMPlSIASQ2CNgA9qQ9Eg2QMQCN9fRmpIq11LXlG9WK/+MXOwBe0ErCSnJ8wESO3P8HfGoQGIgSilcUz0jgAj7ZXIlISV7FkDE3xEfeXtN2BFSOtdRzxgg0q9BZ3q0XicgI186AiAzsjgGiPxbnkEfC4pVIw8g0rMHAIn1exr7cUBk3/LM9A58HkDkZ4+xTx3fmbZ9TxMBqHVUgeFPZKfwSZbrkFyAyM4e3ksDnzvGEmtGiIcA8Y/+WPsq3bPQj6rGtAtAYtSD7akCAIQXEUk+aokMwnNGSisAwlMXgPB0U2cFQHguAyA83dRZARCeywAITzd1VgCE5zIAwtNNnRUA4bkMgPB0U2cFQHguAyA83dRZARCeywAITzd1VgCE5zIAwtNNnRUA4bkMgPB0U2cFQHguAyA83dRZARCeywAITzd1VgCE5zIAwtNNnRUA4bkMgPB0U2cFQHguAyA83dRZARCeywAITzd1VgCE5zIAwtNNnRUA4bkMgPB0U2cFQHguAyA83dRZARCeywAITzd1VgCE5zIAwtNNnRUA4bkMgPB0U2cFQHguAyA83dRZARCeywAITzd1VgCE5zIAwtNNnRUA4bkMgPB0U2cFQHguAyA83dRZARCeywAITzd1VgCE5zIAwtNNnRUA4bkMgPB0U2cFQHguAyA83dRZARCeywAITzd1VgCE5zIAwtNNnRUA4bkMgPB0U2cFQHguAyA83dRZARCeywAITzd1VgCE5zIAwtNNnRUA4bkMgPB0U2cFQHguAyA83dRZARCeywAITzd1VgCE5zIAwtNNndUQIE9Pd6Zt36XHYzcbK13neX3JG/ANusfHd2PtnehgmuabXa+353W6RM4Q7XuplQ0Dcmva9j/RYQ+0JdqGMSYPIKvVb2PMs2Tnh2YPACKpMrGukaAVX0UUBYj0rD7mCOm2iDFSdfExv0ivIpx7sC8vb6n1zpNBnp5kUywASR0XvPrHAbk31r7yKr5iNbDEFqt/X1EWQLrrELll1tZuNt+GhMASSzpECPWNT1x+kvQX6reEGq8XzbS88o3nA6TPIvECNc0Pu15/AJDoMJOvYCJwhSav0QlSelDZAOmySOz1QcDMEd2GtMI11Rfin9iVxMQEKS13VkCOIPFrUWqqfbabzZ8pAQDIlEIJ/z8EkH4l8ZNxV3NrmuZhbPWQYmTZAdlDQhGJJAwASREmgXUGAHKoyVGW3M592JeXH4G9EC02CyBfIj0+3pum+W7a9vZsI3FrrP0wzvn15mTWOFYEgIjGB60yAiBfE+Vud9fFgHN+I/l4VeE3gbvbuNQYoHV6vPSsgJwFdifOtd1xyoABCEUt4bJEQM5b77KKMbe5l1FjKiwGEClXARApJRn1RALCaDG5CQBJLnFFDQCQ5TsbGWRGHwGQGcUPbBqABAqVohgASaGqbJ0ARFZPUm0AhCTXLIUByCyy940CkBnFD2wagAQKlaIYAEmhqmydAERWT1JtAIQk1yyFAcgssmOJNaPspKYBCEku2cLIILJ6pqgNgKRQNbBOABIo1IzFAMiM4gOQGcUPbBqABAqVohgASaGqbJ379wxkz2CS7WK5tQEQHb51q5UHhPrGoo7BLbmXmY7iySlBcU/zevGSnOSY0yta28p0FE9OeUoFRPYMppwe0drWjK/FppSsSEC6LPLr16tx7j6leKj7SIECs4cfXbmAUA4FQKTHKZD5KJ64ztKsiwWkyyL8I2ZoKtZbmnTijEaZigbk4JBub8S5n1dOT9Hos7n7vPWnzfhTZ+Y8bSSXCFUAcizm/uSMaX39cTSShy0fWmyawXOFpztlDPPQtemqA/oVe+LMdCeWV6I6QEJd4PyZXfKARJ8rK3gI+LEU0f0K1VVbOQAy4DEAoi2U0/QXgAAQrwAyyEAcABAAAkBGkg8AASAABIDQ16e4BqFrVqIFMggyCDIIMgh9bkMGoWtWogUyCDIIMggyCH1uQwaha1aiBTIIMggyCDIIfW5DBqFrVqIFMggyCDIIMgh9bkMGoWtWogUyCDIIMggyCH1uQwaha1aiBTIIMggyCDIIfW5DBqFrVqIFMggyCDIIMgh9bkMGoWtWogUyCDIIMggyCH1uQwaha1aiBTIIMggyCDIIfW5L8iEege9nLLVfdIV1WCCDDGWQ/thS2Q/xyAAi3y9jnms4JZGDJAAZUU38OyNCH5gR/0CQUL84Abh0GwCSExChTwSIgyvUr6UHO6d/AGQMEMllluAHZkS/wyiw7OMEnhYbADLhKamzcO1mI6q1UL9wouKE/0WdpmVWoPSzm613u1dj7R3F7qRsgg/MLLVfbI0WaghAAhyzX9K8M7+cm+wOUVS/cGEe4PmCP8EWNHpCIcbXqrJ8fWmp/SJIu+iiyCBE9wQsbbbGmLfc+wpL7RdR3sUVByARLtkHpf8S1T+maT7tev0RUZ2Y6VL7JTbAjBUBkIxioyl9CgAQfT5DjzMqAEAyio2m9CkAQPT5DD3OqAAAySg2mtKnAADR5zP0OKMCACSj2GhKnwIARJ/P0OOMCgCQjGKjKX0KABB9PkOPMyoAQDKKjab0KQBA9PkMPc6owP8BJINSUI2RfdAAAAAASUVORK5CYII=" parent="1" vertex="1">
          <mxGeometry x="-149" y="639.6" width="28" height="28" as="geometry" />
        </mxCell>
        <mxCell id="aqfIlqZua8wNAoRfI1L8-30" value="" style="shape=image;verticalLabelPosition=bottom;verticalAlign=top;imageAspect=0;aspect=fixed;image=data:image/png,iVBORw0KGgoAAAANSUhEUgAAAMgAAADICAYAAACtWK6eAAAAAXNSR0IArs4c6QAADXhJREFUeF7tnVt227oOhkllIDsdSdORNHmIm1k0nYW385CckSQZyfZELJ5FyU59k0SAICWQv1/a1RK8/MBHUKJEWYMfFIACgwpYaAMFoMCwAgAE0QEFRhQAIAgPKABAEANQgKcAMghPN1hVogAAqcTRGCZPAQDC0w1WlSgAQCpxNIbJUwCA8HSDVSUKAJBKHI1h8hQAIDzdYFWJAgDkiqPd4+O9ubnZ2vX6o4Y4cE9Pd2a3u7UvL281jJcyRgByplYHh7Wv+39+tpvNH4qg2sp2cLTte9dv5x4AyakHAcg5IMcBY8zWNM0Pu15vtQV+SH/d09Otadv/vsoCkAvZAMglILdmt3s11t7t/2trN5tvIQGnrYx7fHyvYZwxfgEg165BzmdWY4pbarnV6rcx5vlr+H2mrOKaiwIMABlQ6yyA/FLroZQAulhaFTgBUCAYKwtAhgDxWaTQpdbJ0sq5D/vy8kMqoEqrB4CMePRiprX2zf7774PmIMDSiuY9ADKh19ltX9VLrZNbuv24i7u2ooX/dGkAMq2RKeVuD5ZWAc4+KwJAAjRLudTq6v77O/y923eR3H9xv369Gufuj+5afZOsP0BGlUUASKDbzpZaZr+BGHRbtINgt7sz1v5jrPWbc7dH+w8hPeg3Kq3t22vbT8qjMBdLK9zSDdG8lzy4JAqas1l4cJd9n3F+Guc8FIcNxxQKbo1z2w6cpvkcug3tViu/W95nJ9y1IvkBgBDk2ge+f26pD7aju1pfUBxvvhHqFiraw9K2n4dnqkq5fhLSh1wNACFKdrFcsfbtZG1PrC9h8R6W0+sO7JYTBQcgRMG6Vcr5BS+jjuwmWFqxJAcgBNn2F9vHDzISrBdRVPU+zhwKApAA1TswnPu90KVUwAguigCUQNUAyIRQF49mBAqrolgBj86k1hmADCi8vxj3bxYeb+Sl9scc9ftbxX/wJuF16QHIFV2KzhrDCOK5rCvaAJAjUQq4CI/NQEW/YswRB4DsVbvyEhFHzxJscAF/5EUA4vc1Tg9qKCHIY8fgn/16K/1ElxCRqgcEcAyGCSCp/WHFCDi64PEPCHbhtdv5p3P9IQjLuePl3MfhIcauf03znbmPU/XFe7UZhA3HwN7BQh5W7NPBwOPsFw9bhqwx+jLVQlIlIGw4Jp5nWsRdsInD35g3I6q9cK8OEGaAHGbmybfwouoPn9GHSgYdcsfc56nyFnB9gJyeJkgKSbvZBOnlVitHqliqcOCjI+wMakwQgFLDWUI9QQ5fQkcl+sCcOfumCY+Ln7zBJ9Hx8DqCrhWislwghOFdXnbJagCJmDUPHgyePWfLIIEQX7xfT4vRqq5H6gEkYmn1FT8Bhx1EBh8tVC9LB0Es8MJXUDuxg1mCfRWARC2tTr00GRhn74Dn9/HEEkggk/ZjqmSpVQsgchfNfgPu5sYfZH3yzZBF3OLtQ3dwB1z4Ef4q7moVD4hg9jjOBl+nh3RnXfW/v58SyJ83rrV42scURxBVkEVqAEQueywj8JfUi+KzSNGAJMoeSwrQ+ftSeBYpHZC/JwrOH0ql9mDyxoXmgRcLyMy3WzXHBL3vAbe/6ZUuw6JcQDQe7raMmKD3InCDkl7x/BblAnJ8YPP8Opfeg2KXWUUCguXVDDwWuswqExAsr/ITUujdLACSP5TKbLHQ65AyAcH1xxwQFnkdUiog2D2fA5GmmXzjco5uxbRZHCBiT6vGqFqrbYEX6mUCstv5I3jwy6/A/0o7BLs4QPLHBFosWQEAUrJ3MbZoBQBItISooGQFAEjJ3sXYohUAINESooKSFQAgJXsXY4tWYBGAHB383A+oaT7tev3BHV33sCJ++RW4udly/Nb535+M37bfjbX+z0/DrEt60LMBEvhpZfI3KrBRKB0ihPqIDywG+Ko/OabfgDw5RYbQq6iiswBCflfc2jdj7Z8QkQJEjxIMxiMKBALCOCKJPFFK+Sk7IBEHqwUdeQlApEKDUU8AIJH+yf5AZFZAyJnj0keTAkU6gBEVMPlSIASQ2CNgA9qQ9Eg2QMQCN9fRmpIq11LXlG9WK/+MXOwBe0ErCSnJ8wESO3P8HfGoQGIgSilcUz0jgAj7ZXIlISV7FkDE3xEfeXtN2BFSOtdRzxgg0q9BZ3q0XicgI186AiAzsjgGiPxbnkEfC4pVIw8g0rMHAIn1exr7cUBk3/LM9A58HkDkZ4+xTx3fmbZ9TxMBqHVUgeFPZKfwSZbrkFyAyM4e3ksDnzvGEmtGiIcA8Y/+WPsq3bPQj6rGtAtAYtSD7akCAIQXEUk+aokMwnNGSisAwlMXgPB0U2cFQHguAyA83dRZARCeywAITzd1VgCE5zIAwtNNnRUA4bkMgPB0U2cFQHguAyA83dRZARCeywAITzd1VgCE5zIAwtNNnRUA4bkMgPB0U2cFQHguAyA83dRZARCeywAITzd1VgCE5zIAwtNNnRUA4bkMgPB0U2cFQHguAyA83dRZARCeywAITzd1VgCE5zIAwtNNnRUA4bkMgPB0U2cFQHguAyA83dRZARCeywAITzd1VgCE5zIAwtNNnRUA4bkMgPB0U2cFQHguAyA83dRZARCeywAITzd1VgCE5zIAwtNNnRUA4bkMgPB0U2cFQHguAyA83dRZARCeywAITzd1VgCE5zIAwtNNnRUA4bkMgPB0U2cFQHguAyA83dRZARCeywAITzd1VgCE5zIAwtNNnRUA4bkMgPB0U2cFQHguAyA83dRZARCeywAITzd1VgCE5zIAwtNNnRUA4bkMgPB0U2cFQHguAyA83dRZARCeywAITzd1VgCE5zIAwtNNndUQIE9Pd6Zt36XHYzcbK13neX3JG/ANusfHd2PtnehgmuabXa+353W6RM4Q7XuplQ0Dcmva9j/RYQ+0JdqGMSYPIKvVb2PMs2Tnh2YPACKpMrGukaAVX0UUBYj0rD7mCOm2iDFSdfExv0ivIpx7sC8vb6n1zpNBnp5kUywASR0XvPrHAbk31r7yKr5iNbDEFqt/X1EWQLrrELll1tZuNt+GhMASSzpECPWNT1x+kvQX6reEGq8XzbS88o3nA6TPIvECNc0Pu15/AJDoMJOvYCJwhSav0QlSelDZAOmySOz1QcDMEd2GtMI11Rfin9iVxMQEKS13VkCOIPFrUWqqfbabzZ8pAQDIlEIJ/z8EkH4l8ZNxV3NrmuZhbPWQYmTZAdlDQhGJJAwASREmgXUGAHKoyVGW3M592JeXH4G9EC02CyBfIj0+3pum+W7a9vZsI3FrrP0wzvn15mTWOFYEgIjGB60yAiBfE+Vud9fFgHN+I/l4VeE3gbvbuNQYoHV6vPSsgJwFdifOtd1xyoABCEUt4bJEQM5b77KKMbe5l1FjKiwGEClXARApJRn1RALCaDG5CQBJLnFFDQCQ5TsbGWRGHwGQGcUPbBqABAqVohgASaGqbJ0ARFZPUm0AhCTXLIUByCyy940CkBnFD2wagAQKlaIYAEmhqmydAERWT1JtAIQk1yyFAcgssmOJNaPspKYBCEku2cLIILJ6pqgNgKRQNbBOABIo1IzFAMiM4gOQGcUPbBqABAqVohgASaGqbJ379wxkz2CS7WK5tQEQHb51q5UHhPrGoo7BLbmXmY7iySlBcU/zevGSnOSY0yta28p0FE9OeUoFRPYMppwe0drWjK/FppSsSEC6LPLr16tx7j6leKj7SIECs4cfXbmAUA4FQKTHKZD5KJ64ztKsiwWkyyL8I2ZoKtZbmnTijEaZigbk4JBub8S5n1dOT9Hos7n7vPWnzfhTZ+Y8bSSXCFUAcizm/uSMaX39cTSShy0fWmyawXOFpztlDPPQtemqA/oVe+LMdCeWV6I6QEJd4PyZXfKARJ8rK3gI+LEU0f0K1VVbOQAy4DEAoi2U0/QXgAAQrwAyyEAcABAAAkBGkg8AASAABIDQ16e4BqFrVqIFMggyCDIIMgh9bkMGoWtWogUyCDIIMggyCH1uQwaha1aiBTIIMggyCDIIfW5DBqFrVqIFMggyCDIIMgh9bkMGoWtWogUyCDIIMggyCH1uQwaha1aiBTIIMggyCDIIfW5DBqFrVqIFMggyCDIIMgh9bkMGoWtWogUyCDIIMggyCH1uQwaha1aiBTIIMggyCDIIfW5L8iEege9nLLVfdIV1WCCDDGWQ/thS2Q/xyAAi3y9jnms4JZGDJAAZUU38OyNCH5gR/0CQUL84Abh0GwCSExChTwSIgyvUr6UHO6d/AGQMEMllluAHZkS/wyiw7OMEnhYbADLhKamzcO1mI6q1UL9wouKE/0WdpmVWoPSzm613u1dj7R3F7qRsgg/MLLVfbI0WaghAAhyzX9K8M7+cm+wOUVS/cGEe4PmCP8EWNHpCIcbXqrJ8fWmp/SJIu+iiyCBE9wQsbbbGmLfc+wpL7RdR3sUVByARLtkHpf8S1T+maT7tev0RUZ2Y6VL7JTbAjBUBkIxioyl9CgAQfT5DjzMqAEAyio2m9CkAQPT5DD3OqAAAySg2mtKnAADR5zP0OKMCACSj2GhKnwIARJ/P0OOMCgCQjGKjKX0KABB9PkOPMyoAQDKKjab0KQBA9PkMPc6owP8BJINSUI2RfdAAAAAASUVORK5CYII=" parent="1" vertex="1">
          <mxGeometry x="-149" y="670.35" width="28" height="28" as="geometry" />
        </mxCell>
        <mxCell id="aqfIlqZua8wNAoRfI1L8-31" value="" style="shape=image;verticalLabelPosition=bottom;verticalAlign=top;imageAspect=0;aspect=fixed;image=data:image/png,iVBORw0KGgoAAAANSUhEUgAAAMgAAADICAYAAACtWK6eAAAAAXNSR0IArs4c6QAADXhJREFUeF7tnVt227oOhkllIDsdSdORNHmIm1k0nYW385CckSQZyfZELJ5FyU59k0SAICWQv1/a1RK8/MBHUKJEWYMfFIACgwpYaAMFoMCwAgAE0QEFRhQAIAgPKABAEANQgKcAMghPN1hVogAAqcTRGCZPAQDC0w1WlSgAQCpxNIbJUwCA8HSDVSUKAJBKHI1h8hQAIDzdYFWJAgDkiqPd4+O9ubnZ2vX6o4Y4cE9Pd2a3u7UvL281jJcyRgByplYHh7Wv+39+tpvNH4qg2sp2cLTte9dv5x4AyakHAcg5IMcBY8zWNM0Pu15vtQV+SH/d09Otadv/vsoCkAvZAMglILdmt3s11t7t/2trN5tvIQGnrYx7fHyvYZwxfgEg165BzmdWY4pbarnV6rcx5vlr+H2mrOKaiwIMABlQ6yyA/FLroZQAulhaFTgBUCAYKwtAhgDxWaTQpdbJ0sq5D/vy8kMqoEqrB4CMePRiprX2zf7774PmIMDSiuY9ADKh19ltX9VLrZNbuv24i7u2ooX/dGkAMq2RKeVuD5ZWAc4+KwJAAjRLudTq6v77O/y923eR3H9xv369Gufuj+5afZOsP0BGlUUASKDbzpZaZr+BGHRbtINgt7sz1v5jrPWbc7dH+w8hPeg3Kq3t22vbT8qjMBdLK9zSDdG8lzy4JAqas1l4cJd9n3F+Guc8FIcNxxQKbo1z2w6cpvkcug3tViu/W95nJ9y1IvkBgBDk2ge+f26pD7aju1pfUBxvvhHqFiraw9K2n4dnqkq5fhLSh1wNACFKdrFcsfbtZG1PrC9h8R6W0+sO7JYTBQcgRMG6Vcr5BS+jjuwmWFqxJAcgBNn2F9vHDzISrBdRVPU+zhwKApAA1TswnPu90KVUwAguigCUQNUAyIRQF49mBAqrolgBj86k1hmADCi8vxj3bxYeb+Sl9scc9ftbxX/wJuF16QHIFV2KzhrDCOK5rCvaAJAjUQq4CI/NQEW/YswRB4DsVbvyEhFHzxJscAF/5EUA4vc1Tg9qKCHIY8fgn/16K/1ElxCRqgcEcAyGCSCp/WHFCDi64PEPCHbhtdv5p3P9IQjLuePl3MfhIcauf03znbmPU/XFe7UZhA3HwN7BQh5W7NPBwOPsFw9bhqwx+jLVQlIlIGw4Jp5nWsRdsInD35g3I6q9cK8OEGaAHGbmybfwouoPn9GHSgYdcsfc56nyFnB9gJyeJkgKSbvZBOnlVitHqliqcOCjI+wMakwQgFLDWUI9QQ5fQkcl+sCcOfumCY+Ln7zBJ9Hx8DqCrhWislwghOFdXnbJagCJmDUPHgyePWfLIIEQX7xfT4vRqq5H6gEkYmn1FT8Bhx1EBh8tVC9LB0Es8MJXUDuxg1mCfRWARC2tTr00GRhn74Dn9/HEEkggk/ZjqmSpVQsgchfNfgPu5sYfZH3yzZBF3OLtQ3dwB1z4Ef4q7moVD4hg9jjOBl+nh3RnXfW/v58SyJ83rrV42scURxBVkEVqAEQueywj8JfUi+KzSNGAJMoeSwrQ+ftSeBYpHZC/JwrOH0ql9mDyxoXmgRcLyMy3WzXHBL3vAbe/6ZUuw6JcQDQe7raMmKD3InCDkl7x/BblAnJ8YPP8Opfeg2KXWUUCguXVDDwWuswqExAsr/ITUujdLACSP5TKbLHQ65AyAcH1xxwQFnkdUiog2D2fA5GmmXzjco5uxbRZHCBiT6vGqFqrbYEX6mUCstv5I3jwy6/A/0o7BLs4QPLHBFosWQEAUrJ3MbZoBQBItISooGQFAEjJ3sXYohUAINESooKSFQAgJXsXY4tWYBGAHB383A+oaT7tev3BHV33sCJ++RW4udly/Nb535+M37bfjbX+z0/DrEt60LMBEvhpZfI3KrBRKB0ihPqIDywG+Ko/OabfgDw5RYbQq6iiswBCflfc2jdj7Z8QkQJEjxIMxiMKBALCOCKJPFFK+Sk7IBEHqwUdeQlApEKDUU8AIJH+yf5AZFZAyJnj0keTAkU6gBEVMPlSIASQ2CNgA9qQ9Eg2QMQCN9fRmpIq11LXlG9WK/+MXOwBe0ErCSnJ8wESO3P8HfGoQGIgSilcUz0jgAj7ZXIlISV7FkDE3xEfeXtN2BFSOtdRzxgg0q9BZ3q0XicgI186AiAzsjgGiPxbnkEfC4pVIw8g0rMHAIn1exr7cUBk3/LM9A58HkDkZ4+xTx3fmbZ9TxMBqHVUgeFPZKfwSZbrkFyAyM4e3ksDnzvGEmtGiIcA8Y/+WPsq3bPQj6rGtAtAYtSD7akCAIQXEUk+aokMwnNGSisAwlMXgPB0U2cFQHguAyA83dRZARCeywAITzd1VgCE5zIAwtNNnRUA4bkMgPB0U2cFQHguAyA83dRZARCeywAITzd1VgCE5zIAwtNNnRUA4bkMgPB0U2cFQHguAyA83dRZARCeywAITzd1VgCE5zIAwtNNnRUA4bkMgPB0U2cFQHguAyA83dRZARCeywAITzd1VgCE5zIAwtNNnRUA4bkMgPB0U2cFQHguAyA83dRZARCeywAITzd1VgCE5zIAwtNNnRUA4bkMgPB0U2cFQHguAyA83dRZARCeywAITzd1VgCE5zIAwtNNnRUA4bkMgPB0U2cFQHguAyA83dRZARCeywAITzd1VgCE5zIAwtNNnRUA4bkMgPB0U2cFQHguAyA83dRZARCeywAITzd1VgCE5zIAwtNNnRUA4bkMgPB0U2cFQHguAyA83dRZARCeywAITzd1VgCE5zIAwtNNnRUA4bkMgPB0U2cFQHguAyA83dRZARCeywAITzd1VgCE5zIAwtNNndUQIE9Pd6Zt36XHYzcbK13neX3JG/ANusfHd2PtnehgmuabXa+353W6RM4Q7XuplQ0Dcmva9j/RYQ+0JdqGMSYPIKvVb2PMs2Tnh2YPACKpMrGukaAVX0UUBYj0rD7mCOm2iDFSdfExv0ivIpx7sC8vb6n1zpNBnp5kUywASR0XvPrHAbk31r7yKr5iNbDEFqt/X1EWQLrrELll1tZuNt+GhMASSzpECPWNT1x+kvQX6reEGq8XzbS88o3nA6TPIvECNc0Pu15/AJDoMJOvYCJwhSav0QlSelDZAOmySOz1QcDMEd2GtMI11Rfin9iVxMQEKS13VkCOIPFrUWqqfbabzZ8pAQDIlEIJ/z8EkH4l8ZNxV3NrmuZhbPWQYmTZAdlDQhGJJAwASREmgXUGAHKoyVGW3M592JeXH4G9EC02CyBfIj0+3pum+W7a9vZsI3FrrP0wzvn15mTWOFYEgIjGB60yAiBfE+Vud9fFgHN+I/l4VeE3gbvbuNQYoHV6vPSsgJwFdifOtd1xyoABCEUt4bJEQM5b77KKMbe5l1FjKiwGEClXARApJRn1RALCaDG5CQBJLnFFDQCQ5TsbGWRGHwGQGcUPbBqABAqVohgASaGqbJ0ARFZPUm0AhCTXLIUByCyy940CkBnFD2wagAQKlaIYAEmhqmydAERWT1JtAIQk1yyFAcgssmOJNaPspKYBCEku2cLIILJ6pqgNgKRQNbBOABIo1IzFAMiM4gOQGcUPbBqABAqVohgASaGqbJ379wxkz2CS7WK5tQEQHb51q5UHhPrGoo7BLbmXmY7iySlBcU/zevGSnOSY0yta28p0FE9OeUoFRPYMppwe0drWjK/FppSsSEC6LPLr16tx7j6leKj7SIECs4cfXbmAUA4FQKTHKZD5KJ64ztKsiwWkyyL8I2ZoKtZbmnTijEaZigbk4JBub8S5n1dOT9Hos7n7vPWnzfhTZ+Y8bSSXCFUAcizm/uSMaX39cTSShy0fWmyawXOFpztlDPPQtemqA/oVe+LMdCeWV6I6QEJd4PyZXfKARJ8rK3gI+LEU0f0K1VVbOQAy4DEAoi2U0/QXgAAQrwAyyEAcABAAAkBGkg8AASAABIDQ16e4BqFrVqIFMggyCDIIMgh9bkMGoWtWogUyCDIIMggyCH1uQwaha1aiBTIIMggyCDIIfW5DBqFrVqIFMggyCDIIMgh9bkMGoWtWogUyCDIIMggyCH1uQwaha1aiBTIIMggyCDIIfW5DBqFrVqIFMggyCDIIMgh9bkMGoWtWogUyCDIIMggyCH1uQwaha1aiBTIIMggyCDIIfW5L8iEege9nLLVfdIV1WCCDDGWQ/thS2Q/xyAAi3y9jnms4JZGDJAAZUU38OyNCH5gR/0CQUL84Abh0GwCSExChTwSIgyvUr6UHO6d/AGQMEMllluAHZkS/wyiw7OMEnhYbADLhKamzcO1mI6q1UL9wouKE/0WdpmVWoPSzm613u1dj7R3F7qRsgg/MLLVfbI0WaghAAhyzX9K8M7+cm+wOUVS/cGEe4PmCP8EWNHpCIcbXqrJ8fWmp/SJIu+iiyCBE9wQsbbbGmLfc+wpL7RdR3sUVByARLtkHpf8S1T+maT7tev0RUZ2Y6VL7JTbAjBUBkIxioyl9CgAQfT5DjzMqAEAyio2m9CkAQPT5DD3OqAAAySg2mtKnAADR5zP0OKMCACSj2GhKnwIARJ/P0OOMCgCQjGKjKX0KABB9PkOPMyoAQDKKjab0KQBA9PkMPc6owP8BJINSUI2RfdAAAAAASUVORK5CYII=" parent="1" vertex="1">
          <mxGeometry x="-149" y="704.54" width="28" height="28" as="geometry" />
        </mxCell>
        <mxCell id="aqfIlqZua8wNAoRfI1L8-32" value="" style="shape=image;verticalLabelPosition=bottom;verticalAlign=top;imageAspect=0;aspect=fixed;image=data:image/png,iVBORw0KGgoAAAANSUhEUgAAAMgAAADICAYAAACtWK6eAAAAAXNSR0IArs4c6QAADXhJREFUeF7tnVt227oOhkllIDsdSdORNHmIm1k0nYW385CckSQZyfZELJ5FyU59k0SAICWQv1/a1RK8/MBHUKJEWYMfFIACgwpYaAMFoMCwAgAE0QEFRhQAIAgPKABAEANQgKcAMghPN1hVogAAqcTRGCZPAQDC0w1WlSgAQCpxNIbJUwCA8HSDVSUKAJBKHI1h8hQAIDzdYFWJAgDkiqPd4+O9ubnZ2vX6o4Y4cE9Pd2a3u7UvL281jJcyRgByplYHh7Wv+39+tpvNH4qg2sp2cLTte9dv5x4AyakHAcg5IMcBY8zWNM0Pu15vtQV+SH/d09Otadv/vsoCkAvZAMglILdmt3s11t7t/2trN5tvIQGnrYx7fHyvYZwxfgEg165BzmdWY4pbarnV6rcx5vlr+H2mrOKaiwIMABlQ6yyA/FLroZQAulhaFTgBUCAYKwtAhgDxWaTQpdbJ0sq5D/vy8kMqoEqrB4CMePRiprX2zf7774PmIMDSiuY9ADKh19ltX9VLrZNbuv24i7u2ooX/dGkAMq2RKeVuD5ZWAc4+KwJAAjRLudTq6v77O/y923eR3H9xv369Gufuj+5afZOsP0BGlUUASKDbzpZaZr+BGHRbtINgt7sz1v5jrPWbc7dH+w8hPeg3Kq3t22vbT8qjMBdLK9zSDdG8lzy4JAqas1l4cJd9n3F+Guc8FIcNxxQKbo1z2w6cpvkcug3tViu/W95nJ9y1IvkBgBDk2ge+f26pD7aju1pfUBxvvhHqFiraw9K2n4dnqkq5fhLSh1wNACFKdrFcsfbtZG1PrC9h8R6W0+sO7JYTBQcgRMG6Vcr5BS+jjuwmWFqxJAcgBNn2F9vHDzISrBdRVPU+zhwKApAA1TswnPu90KVUwAguigCUQNUAyIRQF49mBAqrolgBj86k1hmADCi8vxj3bxYeb+Sl9scc9ftbxX/wJuF16QHIFV2KzhrDCOK5rCvaAJAjUQq4CI/NQEW/YswRB4DsVbvyEhFHzxJscAF/5EUA4vc1Tg9qKCHIY8fgn/16K/1ElxCRqgcEcAyGCSCp/WHFCDi64PEPCHbhtdv5p3P9IQjLuePl3MfhIcauf03znbmPU/XFe7UZhA3HwN7BQh5W7NPBwOPsFw9bhqwx+jLVQlIlIGw4Jp5nWsRdsInD35g3I6q9cK8OEGaAHGbmybfwouoPn9GHSgYdcsfc56nyFnB9gJyeJkgKSbvZBOnlVitHqliqcOCjI+wMakwQgFLDWUI9QQ5fQkcl+sCcOfumCY+Ln7zBJ9Hx8DqCrhWislwghOFdXnbJagCJmDUPHgyePWfLIIEQX7xfT4vRqq5H6gEkYmn1FT8Bhx1EBh8tVC9LB0Es8MJXUDuxg1mCfRWARC2tTr00GRhn74Dn9/HEEkggk/ZjqmSpVQsgchfNfgPu5sYfZH3yzZBF3OLtQ3dwB1z4Ef4q7moVD4hg9jjOBl+nh3RnXfW/v58SyJ83rrV42scURxBVkEVqAEQueywj8JfUi+KzSNGAJMoeSwrQ+ftSeBYpHZC/JwrOH0ql9mDyxoXmgRcLyMy3WzXHBL3vAbe/6ZUuw6JcQDQe7raMmKD3InCDkl7x/BblAnJ8YPP8Opfeg2KXWUUCguXVDDwWuswqExAsr/ITUujdLACSP5TKbLHQ65AyAcH1xxwQFnkdUiog2D2fA5GmmXzjco5uxbRZHCBiT6vGqFqrbYEX6mUCstv5I3jwy6/A/0o7BLs4QPLHBFosWQEAUrJ3MbZoBQBItISooGQFAEjJ3sXYohUAINESooKSFQAgJXsXY4tWYBGAHB383A+oaT7tev3BHV33sCJ++RW4udly/Nb535+M37bfjbX+z0/DrEt60LMBEvhpZfI3KrBRKB0ihPqIDywG+Ko/OabfgDw5RYbQq6iiswBCflfc2jdj7Z8QkQJEjxIMxiMKBALCOCKJPFFK+Sk7IBEHqwUdeQlApEKDUU8AIJH+yf5AZFZAyJnj0keTAkU6gBEVMPlSIASQ2CNgA9qQ9Eg2QMQCN9fRmpIq11LXlG9WK/+MXOwBe0ErCSnJ8wESO3P8HfGoQGIgSilcUz0jgAj7ZXIlISV7FkDE3xEfeXtN2BFSOtdRzxgg0q9BZ3q0XicgI186AiAzsjgGiPxbnkEfC4pVIw8g0rMHAIn1exr7cUBk3/LM9A58HkDkZ4+xTx3fmbZ9TxMBqHVUgeFPZKfwSZbrkFyAyM4e3ksDnzvGEmtGiIcA8Y/+WPsq3bPQj6rGtAtAYtSD7akCAIQXEUk+aokMwnNGSisAwlMXgPB0U2cFQHguAyA83dRZARCeywAITzd1VgCE5zIAwtNNnRUA4bkMgPB0U2cFQHguAyA83dRZARCeywAITzd1VgCE5zIAwtNNnRUA4bkMgPB0U2cFQHguAyA83dRZARCeywAITzd1VgCE5zIAwtNNnRUA4bkMgPB0U2cFQHguAyA83dRZARCeywAITzd1VgCE5zIAwtNNnRUA4bkMgPB0U2cFQHguAyA83dRZARCeywAITzd1VgCE5zIAwtNNnRUA4bkMgPB0U2cFQHguAyA83dRZARCeywAITzd1VgCE5zIAwtNNnRUA4bkMgPB0U2cFQHguAyA83dRZARCeywAITzd1VgCE5zIAwtNNnRUA4bkMgPB0U2cFQHguAyA83dRZARCeywAITzd1VgCE5zIAwtNNnRUA4bkMgPB0U2cFQHguAyA83dRZARCeywAITzd1VgCE5zIAwtNNnRUA4bkMgPB0U2cFQHguAyA83dRZARCeywAITzd1VgCE5zIAwtNNndUQIE9Pd6Zt36XHYzcbK13neX3JG/ANusfHd2PtnehgmuabXa+353W6RM4Q7XuplQ0Dcmva9j/RYQ+0JdqGMSYPIKvVb2PMs2Tnh2YPACKpMrGukaAVX0UUBYj0rD7mCOm2iDFSdfExv0ivIpx7sC8vb6n1zpNBnp5kUywASR0XvPrHAbk31r7yKr5iNbDEFqt/X1EWQLrrELll1tZuNt+GhMASSzpECPWNT1x+kvQX6reEGq8XzbS88o3nA6TPIvECNc0Pu15/AJDoMJOvYCJwhSav0QlSelDZAOmySOz1QcDMEd2GtMI11Rfin9iVxMQEKS13VkCOIPFrUWqqfbabzZ8pAQDIlEIJ/z8EkH4l8ZNxV3NrmuZhbPWQYmTZAdlDQhGJJAwASREmgXUGAHKoyVGW3M592JeXH4G9EC02CyBfIj0+3pum+W7a9vZsI3FrrP0wzvn15mTWOFYEgIjGB60yAiBfE+Vud9fFgHN+I/l4VeE3gbvbuNQYoHV6vPSsgJwFdifOtd1xyoABCEUt4bJEQM5b77KKMbe5l1FjKiwGEClXARApJRn1RALCaDG5CQBJLnFFDQCQ5TsbGWRGHwGQGcUPbBqABAqVohgASaGqbJ0ARFZPUm0AhCTXLIUByCyy940CkBnFD2wagAQKlaIYAEmhqmydAERWT1JtAIQk1yyFAcgssmOJNaPspKYBCEku2cLIILJ6pqgNgKRQNbBOABIo1IzFAMiM4gOQGcUPbBqABAqVohgASaGqbJ379wxkz2CS7WK5tQEQHb51q5UHhPrGoo7BLbmXmY7iySlBcU/zevGSnOSY0yta28p0FE9OeUoFRPYMppwe0drWjK/FppSsSEC6LPLr16tx7j6leKj7SIECs4cfXbmAUA4FQKTHKZD5KJ64ztKsiwWkyyL8I2ZoKtZbmnTijEaZigbk4JBub8S5n1dOT9Hos7n7vPWnzfhTZ+Y8bSSXCFUAcizm/uSMaX39cTSShy0fWmyawXOFpztlDPPQtemqA/oVe+LMdCeWV6I6QEJd4PyZXfKARJ8rK3gI+LEU0f0K1VVbOQAy4DEAoi2U0/QXgAAQrwAyyEAcABAAAkBGkg8AASAABIDQ16e4BqFrVqIFMggyCDIIMgh9bkMGoWtWogUyCDIIMggyCH1uQwaha1aiBTIIMggyCDIIfW5DBqFrVqIFMggyCDIIMgh9bkMGoWtWogUyCDIIMggyCH1uQwaha1aiBTIIMggyCDIIfW5DBqFrVqIFMggyCDIIMgh9bkMGoWtWogUyCDIIMggyCH1uQwaha1aiBTIIMggyCDIIfW5L8iEege9nLLVfdIV1WCCDDGWQ/thS2Q/xyAAi3y9jnms4JZGDJAAZUU38OyNCH5gR/0CQUL84Abh0GwCSExChTwSIgyvUr6UHO6d/AGQMEMllluAHZkS/wyiw7OMEnhYbADLhKamzcO1mI6q1UL9wouKE/0WdpmVWoPSzm613u1dj7R3F7qRsgg/MLLVfbI0WaghAAhyzX9K8M7+cm+wOUVS/cGEe4PmCP8EWNHpCIcbXqrJ8fWmp/SJIu+iiyCBE9wQsbbbGmLfc+wpL7RdR3sUVByARLtkHpf8S1T+maT7tev0RUZ2Y6VL7JTbAjBUBkIxioyl9CgAQfT5DjzMqAEAyio2m9CkAQPT5DD3OqAAAySg2mtKnAADR5zP0OKMCACSj2GhKnwIARJ/P0OOMCgCQjGKjKX0KABB9PkOPMyoAQDKKjab0KQBA9PkMPc6owP8BJINSUI2RfdAAAAAASUVORK5CYII=" parent="1" vertex="1">
          <mxGeometry x="-149" y="737.78" width="28" height="28" as="geometry" />
        </mxCell>
        <mxCell id="aqfIlqZua8wNAoRfI1L8-33" value="" style="shape=image;verticalLabelPosition=bottom;verticalAlign=top;imageAspect=0;aspect=fixed;image=data:image/png,iVBORw0KGgoAAAANSUhEUgAAAMgAAADICAYAAACtWK6eAAAAAXNSR0IArs4c6QAADYtJREFUeF7tnU123LgOhcFy9tHlHfSJex57JYkn9vMq4qwinUzst5JU5rFP76C1kOfiO5RdTllVkggQogTyZtSdECR4gY+g/liO8AcKQIFeBRy0gQJQoF8BAILsgAIDCgAQpAcUACDIASggUwAVRKYbrCpRAIBUEmhMU6YAAJHpBqtKFAAglQQa05QpAEBkusGqEgUASCWBxjRlCgAQmW6wqkQBAHIk0O+/+0+rJ2p+3bhNDXnw11d/vj2h9eOVu69hvpw5ApCOWgEO5+ku/LUnun28dl84glprG+DwK/rRztfRJSB5G0EA0sno/YQhouZpSxf/3LjGWuLH+PvnV78+WdG/u7YA5FA1ANLRpE2aE7ojT+cv/9Q8XLvTmISz1ubsu/9RwzxT4gJAjqh3sLIWuNV6/81/dkS3u+m7LV3Ucs3FAQaA9KjVSaDGbemylASqYQHgQDDUFoD0qFPyVuvN1srR5uHKXWglVGn9AJCBiHZXWvJ0//Afd2k5CbC14kUPgIzotX/bN9zVsrzV6tyhq+I2Ng8H3MUS6VXK3R5srfjhRwWJ0GzKrVboe+fCO6L2v/9H1D530Xz+cva3vyNHn3ZjPW3pVLP/CBlNNgEgkWHrbLWIc1s0QLA6oXPy9IfztKYVrfeeP8R48Pyg0lP76otf0U/OqzDdrRXH9xjnSm4DQBjR7azCvU/ZWyBW9NG5FordA0fGSNFNG3LUeE+b1ZZ+9t2GPvvmw9Py50qFu1bR4j7LhT/RCrxstcJ7S8/JtndX6xWKvYdv0R3rNWxClQkVZvdOVSnXT3oS8XoCIDy9qLtdCZDs7+2Z3U3ZvIVl3zdsrfhyAxC+ZtS94BV0kd8EWyuR5gCEIduRp+sM60U0Nf0cZw4FAUiE6i0Yjj4vdCsVMYODJgAlUjUAMiJU99WMSF1tNCvg1ZmphQYgPQq/XIyHLwtfH+RNHYyZ+m+8oy/4kvC4+gDkiC5FV40eCmv4vFiyAAGQPdUKuAiX5MC+TdGfGEvEASAvqh28byVRswwbXMDvxRGAEB0+/Csj0VNm0Xii+9JPdIkRqHpADp6Mx6hWRxtAUvu7WAlwtMkTXhAMrIRD15ynz4u64+Vos3uJsfVvSx8kz3Fqv3ivtoKI4eh5drCQlxXb2tb3ztXBy5aRlbBmSKoERAzHyPtMS7gLNnb4m/BmRLUX7tUBIkyQdq2N+Qovpf/IBX2oWdQhd8LnPFXeAq4OkM73EaycfLh2UXqdffOe1bFW48hXR8QVlCgKQK3pLKGfqIAvwVENH4Qr5/PQjNfF33zBp+F4ZB+x1wpJVS4SwkiXF9+sGkASVs1dEKNXz9kqSCTE3e/rmVla1fVINYCkbK12CRTzRV5i8jFz9aB5FMQKH3xFjZM6mSXYVwFI0tbqbZRGE0MDxKTEGNkCKVTSZ/cq2WpVAYjqlsfR5umJLrtnSi3hFu8LWL1PwJVf4a/irlbxgChWj/2F/fX0kHDW1fM1/O+fEkiqAHrGb3yc5AiiCqpI8YCoVg+95C2lp+KrSNGATFQ9SklunXkUXkWKBmSu5xE6mWeml9EbF2ZmcsTRYgGZ+Xar5Zxg+x5z+5vd6UIMigVE4V7/QkJkwI3IB5QGZnLgYrmA7B/YbDEytnwudptVJCDYXuWnq9RtVpGAYHuVH5BSn6wDkBlyqcghC70OKRMQXH/MwWCR1yGlAjLPB0tzpOWCxoz54nJB7ka5Uhwgam+rRsmHRvsKlHihXiYgJ+0RPPiTWQFP9N/SDsEuDpDMOYHhClcAgBQeYEwvTQEAkqYfrAtXAIAUHmBML00BAJKmH6wLVwCAFB5gTC9NgUUAsjv4eTeVcGr6rxu3kU4tvKwotYWdXIHVEzWSuIX4vyNab1f0wXla+xX9lPYl9/645WyARP60Mvs3KvCgUDtFGP0xP7+NiFUTRn/a0kX3FBmGV0lNZwGE/a24p/snT19iRIoQPUkwGA8oEAmI4Igk9kKpFafsgCQcrBZ15CUA0UoNQT8RgCTGJ/sLkVkBYVeOwxiNCpQYAEFWwORVgQhAEhbI52EixtCMSDZA1BI319GamirX0tdIbBQWyKBk1E5CS/JsgCSvHL9nPCiQGohaCtfUzwAgynEZ3UloyZ4FEPVvxAe+XlMOhJbOdfQzAIj2Z9C5Xq23CcjALx0BkBlZHAJE+SvP2B8LSlUjCyDaq0fYhz5cu9NjkwcgqSmRYD8MiO5Xnpm+gc8DiPLqEULYV2IBSEKCp5r2ADJRTLJch+QCRHf1CHf7HF0e+3ptomCkpk4d9j2AqF+DvqgZ+6OqKeIDkBT1YPtWAQAiy4gpfqMDFUQWi0mtAIhMXgAi082cFQCRhQyAyHQzZwVAZCEDIDLdzFkBEFnIAIhMN3NWAEQWMgAi082cFQCRhQyAyHQzZwVAZCEDIDLdzFkBEFnIAIhMN3NWAEQWMgAi082cFQCRhQyAyHQzZwVAZCEDIDLdzFkBEFnIAIhMN3NWAEQWMgAi082cFQCRhQyAyHQzZwVAZCEDIDLdzFkBEFnIAIhMN3NWAEQWMgAi082cFQCRhQyAyHQzZwVAZCEDIDLdzFkBEFnIAIhMN3NWAEQWMgAi082cFQCRhQyAyHQzZwVAZCEDIDLdzFkBEFnIAIhMN3NWAEQWMgAi082cFQCRhQyAyHQzZwVAZCEDIDLdzFkBEFnIAIhMN3NWAEQWMgAi082cFQCRhQyAyHQzZwVAZCEDIDLdzFkBEFnIAIhMN3NWAEQWMgAi082cFQCRhQyAyHQzZwVAZCEDIDLdzFkBEFnIAIhMN3NWAEQWMgAi082cFQCRhQyAyHQzZwVAZCEDIDLdzFkBEFnIAIhMN3NWPYD89dWf+xX90J7Pw7Vz2n12+5t8gDDg2Xf/gzyda07maUun/9y4ptvnVMHQ9L3YvnoA+fOrX5+s6F/VefeMpToGEWUB5P03/9kR3Wo637d6ABBNlZl9DSSt+i6iJEDUk3ZAHPWxmDlSdfMhQJR3Ed7R5eOVu59a7ywVRL3EApCp80LW/0Bc3n/3n5ynO1nHh1Z9W2yt/nf9ZAEkDKa4zWoert1pnxCoINopwuhvAJCXRTJcqK8ZPR5vmml7FQbPBoiWQG5LF79u3AaAJKeZfgcjiau0eA0ukNqTygZIcDxZoIiVI3kMbYVr6i8iPqk7ibEFUlvurIDsQRL2oqxS64luH6/dlzEBAMiYQhP+ewQgYSexWtFHwV3Nxm3pcmj3MMXMsgMSJsEUiSUMAJkiTSL7jABk1xNry+1o83DlLiK9UG02CyC7GbR3Nrb0gVa07jxIbMjTxjtqYqrGviIARDU/eJ0xAHldKE/ovM0B1z5I3t9VNJ6ovY3LzQGe08OtZwVk37WwooT/P/Z0nDNhAMJRS7ktE5Du6CEH3hGtc2+jhlRYDCBaoQIgWkoK+kkERDDi5CYAZHKJKxoAgCw/2KggM8YIgMwofuTQACRSqCmaAZApVNXtE4Do6snqDYCw5JqlMQCZRfbnQQHIjOJHDg1AIoWaohkAmUJV3T4BiK6erN4ACEuuWRoDkFlkxxZrRtlZQwMQlly6jVFBdPWcojcAMoWqkX0CkEihZmwGQGYUH4DMKH7k0AAkUqgpmgGQKVTV7VP9gAhd98ruDYDYiO/ZNx8OKWN9sWhjZsv2MtdRPDlVKO5t3iDeFCc55gyK1bFyHcWTU58iAdE+gylnQMyONeNnsVNqViQgbRX529+Ro09Tioe+fytQYvUIsysWENahAMj0JAVyH8WT5CzTuFhAgg7M01OY0qE5EbFOnLGoWNGA7ALSPhtx9PHI6SkWYza3zw05arynzZynjeQSoQpA9sXcnZ4yJvAqHEejeNjybrywVx8be+jfhYeujQ4Z41fqiTOjTiywQXWAxMZgojthyefKph7d2TP/ZL9idbXWDoD0RAyAWEvlafwFIAAkKIAK0pMHAASAAJCB4gNAAAgAASD8/SmuQfialWiBCoIKggqCCsJf21BB+JqVaIEKggqCCoIKwl/bUEH4mpVogQqCCoIKggrCX9tQQfialWiBCoIKggqCCsJf21BB+JqVaIEKggqCCoIKwl/bUEH4mpVogQqCCoIKggrCX9tQQfialWiBCoIKggqCCsJf21BB+JqVaIEKggqCCoIKwl/bUEH4mpVogQqCCoIKggrCX9sm+SEehd/PWKpffIVtWKCC9MRpkh/iUQBkCr880W0NpyRKkAQgA6pp/86I1g/MaP9AkJZfkgRcug0AyQiI1k8EaIOr5dfSk13iHwAZUE11O6P4AzOqfils+ySJZ8UGgIxESuss3Idrp6q1kl84UXEk/qpBs7IqcPxsV+sTuiNP5xy7/bZT/MDMUv2SarRUOwASEZmUX6ua8g5Rkl+OLh+v3H3E9KtuAkAiwy/4taosv760VL8iZV18MwDCDFHE1qbxRPe5nyss1S+mvItrDkASQtKu3id0Tp7+WG3p568bt0noTs10qX6pTTBjRwAko9gYyp4CAMRezOBxRgUASEaxMZQ9BQCIvZjB44wKAJCMYmMoewoAEHsxg8cZFQAgGcXGUPYUACD2YgaPMyoAQDKKjaHsKQBA7MUMHmdUAIBkFBtD2VMAgNiLGTzOqMD/AdgER1AX5I4eAAAAAElFTkSuQmCC" parent="1" vertex="1">
          <mxGeometry x="-149" y="812.6000000000001" width="28" height="28" as="geometry" />
        </mxCell>
        <mxCell id="aqfIlqZua8wNAoRfI1L8-34" value="" style="shape=image;verticalLabelPosition=bottom;verticalAlign=top;imageAspect=0;aspect=fixed;image=data:image/png,iVBORw0KGgoAAAANSUhEUgAAAMgAAADICAYAAACtWK6eAAAAAXNSR0IArs4c6QAADYtJREFUeF7tnU123LgOhcFy9tHlHfSJex57JYkn9vMq4qwinUzst5JU5rFP76C1kOfiO5RdTllVkggQogTyZtSdECR4gY+g/liO8AcKQIFeBRy0gQJQoF8BAILsgAIDCgAQpAcUACDIASggUwAVRKYbrCpRAIBUEmhMU6YAAJHpBqtKFAAglQQa05QpAEBkusGqEgUASCWBxjRlCgAQmW6wqkQBAHIk0O+/+0+rJ2p+3bhNDXnw11d/vj2h9eOVu69hvpw5ApCOWgEO5+ku/LUnun28dl84glprG+DwK/rRztfRJSB5G0EA0sno/YQhouZpSxf/3LjGWuLH+PvnV78+WdG/u7YA5FA1ANLRpE2aE7ojT+cv/9Q8XLvTmISz1ubsu/9RwzxT4gJAjqh3sLIWuNV6/81/dkS3u+m7LV3Ucs3FAQaA9KjVSaDGbemylASqYQHgQDDUFoD0qFPyVuvN1srR5uHKXWglVGn9AJCBiHZXWvJ0//Afd2k5CbC14kUPgIzotX/bN9zVsrzV6tyhq+I2Ng8H3MUS6VXK3R5srfjhRwWJ0GzKrVboe+fCO6L2v/9H1D530Xz+cva3vyNHn3ZjPW3pVLP/CBlNNgEgkWHrbLWIc1s0QLA6oXPy9IfztKYVrfeeP8R48Pyg0lP76otf0U/OqzDdrRXH9xjnSm4DQBjR7azCvU/ZWyBW9NG5FordA0fGSNFNG3LUeE+b1ZZ+9t2GPvvmw9Py50qFu1bR4j7LhT/RCrxstcJ7S8/JtndX6xWKvYdv0R3rNWxClQkVZvdOVSnXT3oS8XoCIDy9qLtdCZDs7+2Z3U3ZvIVl3zdsrfhyAxC+ZtS94BV0kd8EWyuR5gCEIduRp+sM60U0Nf0cZw4FAUiE6i0Yjj4vdCsVMYODJgAlUjUAMiJU99WMSF1tNCvg1ZmphQYgPQq/XIyHLwtfH+RNHYyZ+m+8oy/4kvC4+gDkiC5FV40eCmv4vFiyAAGQPdUKuAiX5MC+TdGfGEvEASAvqh28byVRswwbXMDvxRGAEB0+/Csj0VNm0Xii+9JPdIkRqHpADp6Mx6hWRxtAUvu7WAlwtMkTXhAMrIRD15ynz4u64+Vos3uJsfVvSx8kz3Fqv3ivtoKI4eh5drCQlxXb2tb3ztXBy5aRlbBmSKoERAzHyPtMS7gLNnb4m/BmRLUX7tUBIkyQdq2N+Qovpf/IBX2oWdQhd8LnPFXeAq4OkM73EaycfLh2UXqdffOe1bFW48hXR8QVlCgKQK3pLKGfqIAvwVENH4Qr5/PQjNfF33zBp+F4ZB+x1wpJVS4SwkiXF9+sGkASVs1dEKNXz9kqSCTE3e/rmVla1fVINYCkbK12CRTzRV5i8jFz9aB5FMQKH3xFjZM6mSXYVwFI0tbqbZRGE0MDxKTEGNkCKVTSZ/cq2WpVAYjqlsfR5umJLrtnSi3hFu8LWL1PwJVf4a/irlbxgChWj/2F/fX0kHDW1fM1/O+fEkiqAHrGb3yc5AiiCqpI8YCoVg+95C2lp+KrSNGATFQ9SklunXkUXkWKBmSu5xE6mWeml9EbF2ZmcsTRYgGZ+Xar5Zxg+x5z+5vd6UIMigVE4V7/QkJkwI3IB5QGZnLgYrmA7B/YbDEytnwudptVJCDYXuWnq9RtVpGAYHuVH5BSn6wDkBlyqcghC70OKRMQXH/MwWCR1yGlAjLPB0tzpOWCxoz54nJB7ka5Uhwgam+rRsmHRvsKlHihXiYgJ+0RPPiTWQFP9N/SDsEuDpDMOYHhClcAgBQeYEwvTQEAkqYfrAtXAIAUHmBML00BAJKmH6wLVwCAFB5gTC9NgUUAsjv4eTeVcGr6rxu3kU4tvKwotYWdXIHVEzWSuIX4vyNab1f0wXla+xX9lPYl9/645WyARP60Mvs3KvCgUDtFGP0xP7+NiFUTRn/a0kX3FBmGV0lNZwGE/a24p/snT19iRIoQPUkwGA8oEAmI4Igk9kKpFafsgCQcrBZ15CUA0UoNQT8RgCTGJ/sLkVkBYVeOwxiNCpQYAEFWwORVgQhAEhbI52EixtCMSDZA1BI319GamirX0tdIbBQWyKBk1E5CS/JsgCSvHL9nPCiQGohaCtfUzwAgynEZ3UloyZ4FEPVvxAe+XlMOhJbOdfQzAIj2Z9C5Xq23CcjALx0BkBlZHAJE+SvP2B8LSlUjCyDaq0fYhz5cu9NjkwcgqSmRYD8MiO5Xnpm+gc8DiPLqEULYV2IBSEKCp5r2ADJRTLJch+QCRHf1CHf7HF0e+3ptomCkpk4d9j2AqF+DvqgZ+6OqKeIDkBT1YPtWAQAiy4gpfqMDFUQWi0mtAIhMXgAi082cFQCRhQyAyHQzZwVAZCEDIDLdzFkBEFnIAIhMN3NWAEQWMgAi082cFQCRhQyAyHQzZwVAZCEDIDLdzFkBEFnIAIhMN3NWAEQWMgAi082cFQCRhQyAyHQzZwVAZCEDIDLdzFkBEFnIAIhMN3NWAEQWMgAi082cFQCRhQyAyHQzZwVAZCEDIDLdzFkBEFnIAIhMN3NWAEQWMgAi082cFQCRhQyAyHQzZwVAZCEDIDLdzFkBEFnIAIhMN3NWAEQWMgAi082cFQCRhQyAyHQzZwVAZCEDIDLdzFkBEFnIAIhMN3NWAEQWMgAi082cFQCRhQyAyHQzZwVAZCEDIDLdzFkBEFnIAIhMN3NWAEQWMgAi082cFQCRhQyAyHQzZwVAZCEDIDLdzFkBEFnIAIhMN3NWAEQWMgAi082cFQCRhQyAyHQzZwVAZCEDIDLdzFkBEFnIAIhMN3NWAEQWMgAi082cFQCRhQyAyHQzZwVAZCEDIDLdzFkBEFnIAIhMN3NWPYD89dWf+xX90J7Pw7Vz2n12+5t8gDDg2Xf/gzyda07maUun/9y4ptvnVMHQ9L3YvnoA+fOrX5+s6F/VefeMpToGEWUB5P03/9kR3Wo637d6ABBNlZl9DSSt+i6iJEDUk3ZAHPWxmDlSdfMhQJR3Ed7R5eOVu59a7ywVRL3EApCp80LW/0Bc3n/3n5ynO1nHh1Z9W2yt/nf9ZAEkDKa4zWoert1pnxCoINopwuhvAJCXRTJcqK8ZPR5vmml7FQbPBoiWQG5LF79u3AaAJKeZfgcjiau0eA0ukNqTygZIcDxZoIiVI3kMbYVr6i8iPqk7ibEFUlvurIDsQRL2oqxS64luH6/dlzEBAMiYQhP+ewQgYSexWtFHwV3Nxm3pcmj3MMXMsgMSJsEUiSUMAJkiTSL7jABk1xNry+1o83DlLiK9UG02CyC7GbR3Nrb0gVa07jxIbMjTxjtqYqrGviIARDU/eJ0xAHldKE/ovM0B1z5I3t9VNJ6ovY3LzQGe08OtZwVk37WwooT/P/Z0nDNhAMJRS7ktE5Du6CEH3hGtc2+jhlRYDCBaoQIgWkoK+kkERDDi5CYAZHKJKxoAgCw/2KggM8YIgMwofuTQACRSqCmaAZApVNXtE4Do6snqDYCw5JqlMQCZRfbnQQHIjOJHDg1AIoWaohkAmUJV3T4BiK6erN4ACEuuWRoDkFlkxxZrRtlZQwMQlly6jVFBdPWcojcAMoWqkX0CkEihZmwGQGYUH4DMKH7k0AAkUqgpmgGQKVTV7VP9gAhd98ruDYDYiO/ZNx8OKWN9sWhjZsv2MtdRPDlVKO5t3iDeFCc55gyK1bFyHcWTU58iAdE+gylnQMyONeNnsVNqViQgbRX529+Ro09Tioe+fytQYvUIsysWENahAMj0JAVyH8WT5CzTuFhAgg7M01OY0qE5EbFOnLGoWNGA7ALSPhtx9PHI6SkWYza3zw05arynzZynjeQSoQpA9sXcnZ4yJvAqHEejeNjybrywVx8be+jfhYeujQ4Z41fqiTOjTiywQXWAxMZgojthyefKph7d2TP/ZL9idbXWDoD0RAyAWEvlafwFIAAkKIAK0pMHAASAAJCB4gNAAAgAASD8/SmuQfialWiBCoIKggqCCsJf21BB+JqVaIEKggqCCoIKwl/bUEH4mpVogQqCCoIKggrCX9tQQfialWiBCoIKggqCCsJf21BB+JqVaIEKggqCCoIKwl/bUEH4mpVogQqCCoIKggrCX9tQQfialWiBCoIKggqCCsJf21BB+JqVaIEKggqCCoIKwl/bUEH4mpVogQqCCoIKggrCX9sm+SEehd/PWKpffIVtWKCC9MRpkh/iUQBkCr880W0NpyRKkAQgA6pp/86I1g/MaP9AkJZfkgRcug0AyQiI1k8EaIOr5dfSk13iHwAZUE11O6P4AzOqfils+ySJZ8UGgIxESuss3Idrp6q1kl84UXEk/qpBs7IqcPxsV+sTuiNP5xy7/bZT/MDMUv2SarRUOwASEZmUX6ua8g5Rkl+OLh+v3H3E9KtuAkAiwy/4taosv760VL8iZV18MwDCDFHE1qbxRPe5nyss1S+mvItrDkASQtKu3id0Tp7+WG3p568bt0noTs10qX6pTTBjRwAko9gYyp4CAMRezOBxRgUASEaxMZQ9BQCIvZjB44wKAJCMYmMoewoAEHsxg8cZFQAgGcXGUPYUACD2YgaPMyoAQDKKjaHsKQBA7MUMHmdUAIBkFBtD2VMAgNiLGTzOqMD/AdgER1AX5I4eAAAAAElFTkSuQmCC" parent="1" vertex="1">
          <mxGeometry x="-148" y="843.0000000000002" width="28" height="28" as="geometry" />
        </mxCell>
        <mxCell id="aqfIlqZua8wNAoRfI1L8-35" value="" style="shape=image;verticalLabelPosition=bottom;verticalAlign=top;imageAspect=0;aspect=fixed;image=data:image/png,iVBORw0KGgoAAAANSUhEUgAAAMgAAADICAYAAACtWK6eAAAAAXNSR0IArs4c6QAADYtJREFUeF7tnU123LgOhcFy9tHlHfSJex57JYkn9vMq4qwinUzst5JU5rFP76C1kOfiO5RdTllVkggQogTyZtSdECR4gY+g/liO8AcKQIFeBRy0gQJQoF8BAILsgAIDCgAQpAcUACDIASggUwAVRKYbrCpRAIBUEmhMU6YAAJHpBqtKFAAglQQa05QpAEBkusGqEgUASCWBxjRlCgAQmW6wqkQBAHIk0O+/+0+rJ2p+3bhNDXnw11d/vj2h9eOVu69hvpw5ApCOWgEO5+ku/LUnun28dl84glprG+DwK/rRztfRJSB5G0EA0sno/YQhouZpSxf/3LjGWuLH+PvnV78+WdG/u7YA5FA1ANLRpE2aE7ojT+cv/9Q8XLvTmISz1ubsu/9RwzxT4gJAjqh3sLIWuNV6/81/dkS3u+m7LV3Ucs3FAQaA9KjVSaDGbemylASqYQHgQDDUFoD0qFPyVuvN1srR5uHKXWglVGn9AJCBiHZXWvJ0//Afd2k5CbC14kUPgIzotX/bN9zVsrzV6tyhq+I2Ng8H3MUS6VXK3R5srfjhRwWJ0GzKrVboe+fCO6L2v/9H1D530Xz+cva3vyNHn3ZjPW3pVLP/CBlNNgEgkWHrbLWIc1s0QLA6oXPy9IfztKYVrfeeP8R48Pyg0lP76otf0U/OqzDdrRXH9xjnSm4DQBjR7azCvU/ZWyBW9NG5FordA0fGSNFNG3LUeE+b1ZZ+9t2GPvvmw9Py50qFu1bR4j7LhT/RCrxstcJ7S8/JtndX6xWKvYdv0R3rNWxClQkVZvdOVSnXT3oS8XoCIDy9qLtdCZDs7+2Z3U3ZvIVl3zdsrfhyAxC+ZtS94BV0kd8EWyuR5gCEIduRp+sM60U0Nf0cZw4FAUiE6i0Yjj4vdCsVMYODJgAlUjUAMiJU99WMSF1tNCvg1ZmphQYgPQq/XIyHLwtfH+RNHYyZ+m+8oy/4kvC4+gDkiC5FV40eCmv4vFiyAAGQPdUKuAiX5MC+TdGfGEvEASAvqh28byVRswwbXMDvxRGAEB0+/Csj0VNm0Xii+9JPdIkRqHpADp6Mx6hWRxtAUvu7WAlwtMkTXhAMrIRD15ynz4u64+Vos3uJsfVvSx8kz3Fqv3ivtoKI4eh5drCQlxXb2tb3ztXBy5aRlbBmSKoERAzHyPtMS7gLNnb4m/BmRLUX7tUBIkyQdq2N+Qovpf/IBX2oWdQhd8LnPFXeAq4OkM73EaycfLh2UXqdffOe1bFW48hXR8QVlCgKQK3pLKGfqIAvwVENH4Qr5/PQjNfF33zBp+F4ZB+x1wpJVS4SwkiXF9+sGkASVs1dEKNXz9kqSCTE3e/rmVla1fVINYCkbK12CRTzRV5i8jFz9aB5FMQKH3xFjZM6mSXYVwFI0tbqbZRGE0MDxKTEGNkCKVTSZ/cq2WpVAYjqlsfR5umJLrtnSi3hFu8LWL1PwJVf4a/irlbxgChWj/2F/fX0kHDW1fM1/O+fEkiqAHrGb3yc5AiiCqpI8YCoVg+95C2lp+KrSNGATFQ9SklunXkUXkWKBmSu5xE6mWeml9EbF2ZmcsTRYgGZ+Xar5Zxg+x5z+5vd6UIMigVE4V7/QkJkwI3IB5QGZnLgYrmA7B/YbDEytnwudptVJCDYXuWnq9RtVpGAYHuVH5BSn6wDkBlyqcghC70OKRMQXH/MwWCR1yGlAjLPB0tzpOWCxoz54nJB7ka5Uhwgam+rRsmHRvsKlHihXiYgJ+0RPPiTWQFP9N/SDsEuDpDMOYHhClcAgBQeYEwvTQEAkqYfrAtXAIAUHmBML00BAJKmH6wLVwCAFB5gTC9NgUUAsjv4eTeVcGr6rxu3kU4tvKwotYWdXIHVEzWSuIX4vyNab1f0wXla+xX9lPYl9/645WyARP60Mvs3KvCgUDtFGP0xP7+NiFUTRn/a0kX3FBmGV0lNZwGE/a24p/snT19iRIoQPUkwGA8oEAmI4Igk9kKpFafsgCQcrBZ15CUA0UoNQT8RgCTGJ/sLkVkBYVeOwxiNCpQYAEFWwORVgQhAEhbI52EixtCMSDZA1BI319GamirX0tdIbBQWyKBk1E5CS/JsgCSvHL9nPCiQGohaCtfUzwAgynEZ3UloyZ4FEPVvxAe+XlMOhJbOdfQzAIj2Z9C5Xq23CcjALx0BkBlZHAJE+SvP2B8LSlUjCyDaq0fYhz5cu9NjkwcgqSmRYD8MiO5Xnpm+gc8DiPLqEULYV2IBSEKCp5r2ADJRTLJch+QCRHf1CHf7HF0e+3ptomCkpk4d9j2AqF+DvqgZ+6OqKeIDkBT1YPtWAQAiy4gpfqMDFUQWi0mtAIhMXgAi082cFQCRhQyAyHQzZwVAZCEDIDLdzFkBEFnIAIhMN3NWAEQWMgAi082cFQCRhQyAyHQzZwVAZCEDIDLdzFkBEFnIAIhMN3NWAEQWMgAi082cFQCRhQyAyHQzZwVAZCEDIDLdzFkBEFnIAIhMN3NWAEQWMgAi082cFQCRhQyAyHQzZwVAZCEDIDLdzFkBEFnIAIhMN3NWAEQWMgAi082cFQCRhQyAyHQzZwVAZCEDIDLdzFkBEFnIAIhMN3NWAEQWMgAi082cFQCRhQyAyHQzZwVAZCEDIDLdzFkBEFnIAIhMN3NWAEQWMgAi082cFQCRhQyAyHQzZwVAZCEDIDLdzFkBEFnIAIhMN3NWAEQWMgAi082cFQCRhQyAyHQzZwVAZCEDIDLdzFkBEFnIAIhMN3NWAEQWMgAi082cFQCRhQyAyHQzZwVAZCEDIDLdzFkBEFnIAIhMN3NWAEQWMgAi082cFQCRhQyAyHQzZwVAZCEDIDLdzFkBEFnIAIhMN3NWPYD89dWf+xX90J7Pw7Vz2n12+5t8gDDg2Xf/gzyda07maUun/9y4ptvnVMHQ9L3YvnoA+fOrX5+s6F/VefeMpToGEWUB5P03/9kR3Wo637d6ABBNlZl9DSSt+i6iJEDUk3ZAHPWxmDlSdfMhQJR3Ed7R5eOVu59a7ywVRL3EApCp80LW/0Bc3n/3n5ynO1nHh1Z9W2yt/nf9ZAEkDKa4zWoert1pnxCoINopwuhvAJCXRTJcqK8ZPR5vmml7FQbPBoiWQG5LF79u3AaAJKeZfgcjiau0eA0ukNqTygZIcDxZoIiVI3kMbYVr6i8iPqk7ibEFUlvurIDsQRL2oqxS64luH6/dlzEBAMiYQhP+ewQgYSexWtFHwV3Nxm3pcmj3MMXMsgMSJsEUiSUMAJkiTSL7jABk1xNry+1o83DlLiK9UG02CyC7GbR3Nrb0gVa07jxIbMjTxjtqYqrGviIARDU/eJ0xAHldKE/ovM0B1z5I3t9VNJ6ovY3LzQGe08OtZwVk37WwooT/P/Z0nDNhAMJRS7ktE5Du6CEH3hGtc2+jhlRYDCBaoQIgWkoK+kkERDDi5CYAZHKJKxoAgCw/2KggM8YIgMwofuTQACRSqCmaAZApVNXtE4Do6snqDYCw5JqlMQCZRfbnQQHIjOJHDg1AIoWaohkAmUJV3T4BiK6erN4ACEuuWRoDkFlkxxZrRtlZQwMQlly6jVFBdPWcojcAMoWqkX0CkEihZmwGQGYUH4DMKH7k0AAkUqgpmgGQKVTV7VP9gAhd98ruDYDYiO/ZNx8OKWN9sWhjZsv2MtdRPDlVKO5t3iDeFCc55gyK1bFyHcWTU58iAdE+gylnQMyONeNnsVNqViQgbRX529+Ro09Tioe+fytQYvUIsysWENahAMj0JAVyH8WT5CzTuFhAgg7M01OY0qE5EbFOnLGoWNGA7ALSPhtx9PHI6SkWYza3zw05arynzZynjeQSoQpA9sXcnZ4yJvAqHEejeNjybrywVx8be+jfhYeujQ4Z41fqiTOjTiywQXWAxMZgojthyefKph7d2TP/ZL9idbXWDoD0RAyAWEvlafwFIAAkKIAK0pMHAASAAJCB4gNAAAgAASD8/SmuQfialWiBCoIKggqCCsJf21BB+JqVaIEKggqCCoIKwl/bUEH4mpVogQqCCoIKggrCX9tQQfialWiBCoIKggqCCsJf21BB+JqVaIEKggqCCoIKwl/bUEH4mpVogQqCCoIKggrCX9tQQfialWiBCoIKggqCCsJf21BB+JqVaIEKggqCCoIKwl/bUEH4mpVogQqCCoIKggrCX9sm+SEehd/PWKpffIVtWKCC9MRpkh/iUQBkCr880W0NpyRKkAQgA6pp/86I1g/MaP9AkJZfkgRcug0AyQiI1k8EaIOr5dfSk13iHwAZUE11O6P4AzOqfils+ySJZ8UGgIxESuss3Idrp6q1kl84UXEk/qpBs7IqcPxsV+sTuiNP5xy7/bZT/MDMUv2SarRUOwASEZmUX6ua8g5Rkl+OLh+v3H3E9KtuAkAiwy/4taosv760VL8iZV18MwDCDFHE1qbxRPe5nyss1S+mvItrDkASQtKu3id0Tp7+WG3p568bt0noTs10qX6pTTBjRwAko9gYyp4CAMRezOBxRgUASEaxMZQ9BQCIvZjB44wKAJCMYmMoewoAEHsxg8cZFQAgGcXGUPYUACD2YgaPMyoAQDKKjaHsKQBA7MUMHmdUAIBkFBtD2VMAgNiLGTzOqMD/AdgER1AX5I4eAAAAAElFTkSuQmCC" parent="1" vertex="1">
          <mxGeometry x="-148" y="871.0000000000002" width="28" height="28" as="geometry" />
        </mxCell>
        <mxCell id="aqfIlqZua8wNAoRfI1L8-40" value="" style="group;rotation=45;" parent="1" vertex="1" connectable="0">
          <mxGeometry x="-151" y="772" width="34" height="34" as="geometry" />
        </mxCell>
        <mxCell id="aqfIlqZua8wNAoRfI1L8-36" value="" style="shape=waypoint;sketch=0;fillStyle=solid;size=6;pointerEvents=1;points=[];fillColor=none;resizable=0;rotatable=0;perimeter=centerPerimeter;snapToPoint=1;rotation=45;" parent="aqfIlqZua8wNAoRfI1L8-40" vertex="1">
          <mxGeometry x="7" y="-3" width="20" height="20" as="geometry" />
        </mxCell>
        <mxCell id="aqfIlqZua8wNAoRfI1L8-37" value="" style="shape=waypoint;sketch=0;fillStyle=solid;size=6;pointerEvents=1;points=[];fillColor=none;resizable=0;rotatable=0;perimeter=centerPerimeter;snapToPoint=1;rotation=45;" parent="aqfIlqZua8wNAoRfI1L8-40" vertex="1">
          <mxGeometry x="7" y="7" width="20" height="20" as="geometry" />
        </mxCell>
        <mxCell id="aqfIlqZua8wNAoRfI1L8-38" value="" style="shape=waypoint;sketch=0;fillStyle=solid;size=6;pointerEvents=1;points=[];fillColor=none;resizable=0;rotatable=0;perimeter=centerPerimeter;snapToPoint=1;rotation=45;" parent="aqfIlqZua8wNAoRfI1L8-40" vertex="1">
          <mxGeometry x="7" y="17" width="20" height="20" as="geometry" />
        </mxCell>
        <mxCell id="aqfIlqZua8wNAoRfI1L8-41" value="" style="group;rotation=45;" parent="1" vertex="1" connectable="0">
          <mxGeometry x="-95" y="763.84" width="34" height="34" as="geometry" />
        </mxCell>
        <mxCell id="aqfIlqZua8wNAoRfI1L8-42" value="" style="shape=waypoint;sketch=0;fillStyle=solid;size=6;pointerEvents=1;points=[];fillColor=none;resizable=0;rotatable=0;perimeter=centerPerimeter;snapToPoint=1;rotation=45;" parent="aqfIlqZua8wNAoRfI1L8-41" vertex="1">
          <mxGeometry x="7" y="-3" width="20" height="20" as="geometry" />
        </mxCell>
        <mxCell id="aqfIlqZua8wNAoRfI1L8-43" value="" style="shape=waypoint;sketch=0;fillStyle=solid;size=6;pointerEvents=1;points=[];fillColor=none;resizable=0;rotatable=0;perimeter=centerPerimeter;snapToPoint=1;rotation=45;" parent="aqfIlqZua8wNAoRfI1L8-41" vertex="1">
          <mxGeometry x="7" y="7" width="20" height="20" as="geometry" />
        </mxCell>
        <mxCell id="aqfIlqZua8wNAoRfI1L8-44" value="" style="shape=waypoint;sketch=0;fillStyle=solid;size=6;pointerEvents=1;points=[];fillColor=none;resizable=0;rotatable=0;perimeter=centerPerimeter;snapToPoint=1;rotation=45;" parent="aqfIlqZua8wNAoRfI1L8-41" vertex="1">
          <mxGeometry x="7" y="17" width="20" height="20" as="geometry" />
        </mxCell>
        <mxCell id="aqfIlqZua8wNAoRfI1L8-45" value="" style="shape=image;verticalLabelPosition=bottom;verticalAlign=top;imageAspect=0;aspect=fixed;image=data:image/png,iVBORw0KGgoAAAANSUhEUgAAAMgAAADICAYAAACtWK6eAAAAAXNSR0IArs4c6QAADYtJREFUeF7tnU123LgOhcFy9tHlHfSJex57JYkn9vMq4qwinUzst5JU5rFP76C1kOfiO5RdTllVkggQogTyZtSdECR4gY+g/liO8AcKQIFeBRy0gQJQoF8BAILsgAIDCgAQpAcUACDIASggUwAVRKYbrCpRAIBUEmhMU6YAAJHpBqtKFAAglQQa05QpAEBkusGqEgUASCWBxjRlCgAQmW6wqkQBAHIk0O+/+0+rJ2p+3bhNDXnw11d/vj2h9eOVu69hvpw5ApCOWgEO5+ku/LUnun28dl84glprG+DwK/rRztfRJSB5G0EA0sno/YQhouZpSxf/3LjGWuLH+PvnV78+WdG/u7YA5FA1ANLRpE2aE7ojT+cv/9Q8XLvTmISz1ubsu/9RwzxT4gJAjqh3sLIWuNV6/81/dkS3u+m7LV3Ucs3FAQaA9KjVSaDGbemylASqYQHgQDDUFoD0qFPyVuvN1srR5uHKXWglVGn9AJCBiHZXWvJ0//Afd2k5CbC14kUPgIzotX/bN9zVsrzV6tyhq+I2Ng8H3MUS6VXK3R5srfjhRwWJ0GzKrVboe+fCO6L2v/9H1D530Xz+cva3vyNHn3ZjPW3pVLP/CBlNNgEgkWHrbLWIc1s0QLA6oXPy9IfztKYVrfeeP8R48Pyg0lP76otf0U/OqzDdrRXH9xjnSm4DQBjR7azCvU/ZWyBW9NG5FordA0fGSNFNG3LUeE+b1ZZ+9t2GPvvmw9Py50qFu1bR4j7LhT/RCrxstcJ7S8/JtndX6xWKvYdv0R3rNWxClQkVZvdOVSnXT3oS8XoCIDy9qLtdCZDs7+2Z3U3ZvIVl3zdsrfhyAxC+ZtS94BV0kd8EWyuR5gCEIduRp+sM60U0Nf0cZw4FAUiE6i0Yjj4vdCsVMYODJgAlUjUAMiJU99WMSF1tNCvg1ZmphQYgPQq/XIyHLwtfH+RNHYyZ+m+8oy/4kvC4+gDkiC5FV40eCmv4vFiyAAGQPdUKuAiX5MC+TdGfGEvEASAvqh28byVRswwbXMDvxRGAEB0+/Csj0VNm0Xii+9JPdIkRqHpADp6Mx6hWRxtAUvu7WAlwtMkTXhAMrIRD15ynz4u64+Vos3uJsfVvSx8kz3Fqv3ivtoKI4eh5drCQlxXb2tb3ztXBy5aRlbBmSKoERAzHyPtMS7gLNnb4m/BmRLUX7tUBIkyQdq2N+Qovpf/IBX2oWdQhd8LnPFXeAq4OkM73EaycfLh2UXqdffOe1bFW48hXR8QVlCgKQK3pLKGfqIAvwVENH4Qr5/PQjNfF33zBp+F4ZB+x1wpJVS4SwkiXF9+sGkASVs1dEKNXz9kqSCTE3e/rmVla1fVINYCkbK12CRTzRV5i8jFz9aB5FMQKH3xFjZM6mSXYVwFI0tbqbZRGE0MDxKTEGNkCKVTSZ/cq2WpVAYjqlsfR5umJLrtnSi3hFu8LWL1PwJVf4a/irlbxgChWj/2F/fX0kHDW1fM1/O+fEkiqAHrGb3yc5AiiCqpI8YCoVg+95C2lp+KrSNGATFQ9SklunXkUXkWKBmSu5xE6mWeml9EbF2ZmcsTRYgGZ+Xar5Zxg+x5z+5vd6UIMigVE4V7/QkJkwI3IB5QGZnLgYrmA7B/YbDEytnwudptVJCDYXuWnq9RtVpGAYHuVH5BSn6wDkBlyqcghC70OKRMQXH/MwWCR1yGlAjLPB0tzpOWCxoz54nJB7ka5Uhwgam+rRsmHRvsKlHihXiYgJ+0RPPiTWQFP9N/SDsEuDpDMOYHhClcAgBQeYEwvTQEAkqYfrAtXAIAUHmBML00BAJKmH6wLVwCAFB5gTC9NgUUAsjv4eTeVcGr6rxu3kU4tvKwotYWdXIHVEzWSuIX4vyNab1f0wXla+xX9lPYl9/645WyARP60Mvs3KvCgUDtFGP0xP7+NiFUTRn/a0kX3FBmGV0lNZwGE/a24p/snT19iRIoQPUkwGA8oEAmI4Igk9kKpFafsgCQcrBZ15CUA0UoNQT8RgCTGJ/sLkVkBYVeOwxiNCpQYAEFWwORVgQhAEhbI52EixtCMSDZA1BI319GamirX0tdIbBQWyKBk1E5CS/JsgCSvHL9nPCiQGohaCtfUzwAgynEZ3UloyZ4FEPVvxAe+XlMOhJbOdfQzAIj2Z9C5Xq23CcjALx0BkBlZHAJE+SvP2B8LSlUjCyDaq0fYhz5cu9NjkwcgqSmRYD8MiO5Xnpm+gc8DiPLqEULYV2IBSEKCp5r2ADJRTLJch+QCRHf1CHf7HF0e+3ptomCkpk4d9j2AqF+DvqgZ+6OqKeIDkBT1YPtWAQAiy4gpfqMDFUQWi0mtAIhMXgAi082cFQCRhQyAyHQzZwVAZCEDIDLdzFkBEFnIAIhMN3NWAEQWMgAi082cFQCRhQyAyHQzZwVAZCEDIDLdzFkBEFnIAIhMN3NWAEQWMgAi082cFQCRhQyAyHQzZwVAZCEDIDLdzFkBEFnIAIhMN3NWAEQWMgAi082cFQCRhQyAyHQzZwVAZCEDIDLdzFkBEFnIAIhMN3NWAEQWMgAi082cFQCRhQyAyHQzZwVAZCEDIDLdzFkBEFnIAIhMN3NWAEQWMgAi082cFQCRhQyAyHQzZwVAZCEDIDLdzFkBEFnIAIhMN3NWAEQWMgAi082cFQCRhQyAyHQzZwVAZCEDIDLdzFkBEFnIAIhMN3NWAEQWMgAi082cFQCRhQyAyHQzZwVAZCEDIDLdzFkBEFnIAIhMN3NWAEQWMgAi082cFQCRhQyAyHQzZwVAZCEDIDLdzFkBEFnIAIhMN3NWAEQWMgAi082cFQCRhQyAyHQzZwVAZCEDIDLdzFkBEFnIAIhMN3NWPYD89dWf+xX90J7Pw7Vz2n12+5t8gDDg2Xf/gzyda07maUun/9y4ptvnVMHQ9L3YvnoA+fOrX5+s6F/VefeMpToGEWUB5P03/9kR3Wo637d6ABBNlZl9DSSt+i6iJEDUk3ZAHPWxmDlSdfMhQJR3Ed7R5eOVu59a7ywVRL3EApCp80LW/0Bc3n/3n5ynO1nHh1Z9W2yt/nf9ZAEkDKa4zWoert1pnxCoINopwuhvAJCXRTJcqK8ZPR5vmml7FQbPBoiWQG5LF79u3AaAJKeZfgcjiau0eA0ukNqTygZIcDxZoIiVI3kMbYVr6i8iPqk7ibEFUlvurIDsQRL2oqxS64luH6/dlzEBAMiYQhP+ewQgYSexWtFHwV3Nxm3pcmj3MMXMsgMSJsEUiSUMAJkiTSL7jABk1xNry+1o83DlLiK9UG02CyC7GbR3Nrb0gVa07jxIbMjTxjtqYqrGviIARDU/eJ0xAHldKE/ovM0B1z5I3t9VNJ6ovY3LzQGe08OtZwVk37WwooT/P/Z0nDNhAMJRS7ktE5Du6CEH3hGtc2+jhlRYDCBaoQIgWkoK+kkERDDi5CYAZHKJKxoAgCw/2KggM8YIgMwofuTQACRSqCmaAZApVNXtE4Do6snqDYCw5JqlMQCZRfbnQQHIjOJHDg1AIoWaohkAmUJV3T4BiK6erN4ACEuuWRoDkFlkxxZrRtlZQwMQlly6jVFBdPWcojcAMoWqkX0CkEihZmwGQGYUH4DMKH7k0AAkUqgpmgGQKVTV7VP9gAhd98ruDYDYiO/ZNx8OKWN9sWhjZsv2MtdRPDlVKO5t3iDeFCc55gyK1bFyHcWTU58iAdE+gylnQMyONeNnsVNqViQgbRX529+Ro09Tioe+fytQYvUIsysWENahAMj0JAVyH8WT5CzTuFhAgg7M01OY0qE5EbFOnLGoWNGA7ALSPhtx9PHI6SkWYza3zw05arynzZynjeQSoQpA9sXcnZ4yJvAqHEejeNjybrywVx8be+jfhYeujQ4Z41fqiTOjTiywQXWAxMZgojthyefKph7d2TP/ZL9idbXWDoD0RAyAWEvlafwFIAAkKIAK0pMHAASAAJCB4gNAAAgAASD8/SmuQfialWiBCoIKggqCCsJf21BB+JqVaIEKggqCCoIKwl/bUEH4mpVogQqCCoIKggrCX9tQQfialWiBCoIKggqCCsJf21BB+JqVaIEKggqCCoIKwl/bUEH4mpVogQqCCoIKggrCX9tQQfialWiBCoIKggqCCsJf21BB+JqVaIEKggqCCoIKwl/bUEH4mpVogQqCCoIKggrCX9sm+SEehd/PWKpffIVtWKCC9MRpkh/iUQBkCr880W0NpyRKkAQgA6pp/86I1g/MaP9AkJZfkgRcug0AyQiI1k8EaIOr5dfSk13iHwAZUE11O6P4AzOqfils+ySJZ8UGgIxESuss3Idrp6q1kl84UXEk/qpBs7IqcPxsV+sTuiNP5xy7/bZT/MDMUv2SarRUOwASEZmUX6ua8g5Rkl+OLh+v3H3E9KtuAkAiwy/4taosv760VL8iZV18MwDCDFHE1qbxRPe5nyss1S+mvItrDkASQtKu3id0Tp7+WG3p568bt0noTs10qX6pTTBjRwAko9gYyp4CAMRezOBxRgUASEaxMZQ9BQCIvZjB44wKAJCMYmMoewoAEHsxg8cZFQAgGcXGUPYUACD2YgaPMyoAQDKKjaHsKQBA7MUMHmdUAIBkFBtD2VMAgNiLGTzOqMD/AdgER1AX5I4eAAAAAElFTkSuQmCC" parent="1" vertex="1">
          <mxGeometry x="-148" y="899.8100000000002" width="28" height="28" as="geometry" />
        </mxCell>
        <mxCell id="aqfIlqZua8wNAoRfI1L8-48" value="" style="curved=1;endArrow=none;html=1;rounded=0;endFill=0;dashed=1;" parent="1" edge="1">
          <mxGeometry width="50" height="50" relative="1" as="geometry">
            <mxPoint x="29" y="910.0000000000001" as="sourcePoint" />
            <mxPoint x="29" y="910.0000000000001" as="targetPoint" />
            <Array as="points">
              <mxPoint x="-61" y="940.0000000000001" />
              <mxPoint x="-101" y="900.0000000000001" />
              <mxPoint x="-101" y="780.0000000000001" />
              <mxPoint x="-101" y="730" />
              <mxPoint x="-111" y="620" />
              <mxPoint x="29" y="630" />
              <mxPoint x="19" y="770" />
              <mxPoint x="19" y="830.0000000000001" />
              <mxPoint x="39" y="900.0000000000001" />
            </Array>
          </mxGeometry>
        </mxCell>
        <mxCell id="aqfIlqZua8wNAoRfI1L8-49" value="In chronological order" style="text;html=1;strokeColor=none;fillColor=none;align=center;verticalAlign=middle;whiteSpace=wrap;rounded=0;rotation=90;" parent="1" vertex="1">
          <mxGeometry x="-231" y="850" width="130" height="30" as="geometry" />
        </mxCell>
        <mxCell id="aqfIlqZua8wNAoRfI1L8-65" value="" style="endArrow=classic;html=1;rounded=0;strokeWidth=3;" parent="1" edge="1">
          <mxGeometry width="50" height="50" relative="1" as="geometry">
            <mxPoint x="30" y="688" as="sourcePoint" />
            <mxPoint x="70" y="688" as="targetPoint" />
          </mxGeometry>
        </mxCell>
        <mxCell id="aqfIlqZua8wNAoRfI1L8-66" value="" style="endArrow=classic;html=1;rounded=0;strokeWidth=3;" parent="1" edge="1">
          <mxGeometry width="50" height="50" relative="1" as="geometry">
            <mxPoint x="32" y="864" as="sourcePoint" />
            <mxPoint x="72" y="864.4" as="targetPoint" />
          </mxGeometry>
        </mxCell>
        <mxCell id="aqfIlqZua8wNAoRfI1L8-73" style="rounded=0;orthogonalLoop=1;jettySize=auto;html=1;exitX=1;exitY=0.25;exitDx=0;exitDy=0;entryX=0;entryY=0.5;entryDx=0;entryDy=0;" parent="1" source="aqfIlqZua8wNAoRfI1L8-68" target="aqfIlqZua8wNAoRfI1L8-69" edge="1">
          <mxGeometry relative="1" as="geometry" />
        </mxCell>
        <mxCell id="aqfIlqZua8wNAoRfI1L8-74" style="rounded=0;orthogonalLoop=1;jettySize=auto;html=1;exitX=1;exitY=0.75;exitDx=0;exitDy=0;entryX=0;entryY=0.5;entryDx=0;entryDy=0;" parent="1" source="aqfIlqZua8wNAoRfI1L8-68" target="aqfIlqZua8wNAoRfI1L8-70" edge="1">
          <mxGeometry relative="1" as="geometry" />
        </mxCell>
        <mxCell id="aqfIlqZua8wNAoRfI1L8-68" value="" style="shape=image;verticalLabelPosition=bottom;verticalAlign=top;imageAspect=0;image=data:image/png,iVBORw0KGgoAAAANSUhEUgAAAMgAAADICAYAAACtWK6eAAAAAXNSR0IArs4c6QAADXhJREFUeF7tnVty3LoORaV2exzH+XNVy2OIPZIkI4kzkviMJPYYLFf5Lx5It3WLfaUcRdYDAEFKIHd/5UGQ0AYWQb2ossAPCkCBSQVKaAMFoMC0AgAE2QEFZhQAIEgPKABAkANQQKYAKohMN1hlogAAySTQOEyZAgBEphusMlEAgGQSaBymTAEAItMNVpkoAEAyCTQOU6YAAJHpBqtMFAAgI4G+ubn52jTNW13XjznkQVVVt2VZXj0/Pz/kcLycYwQgA7VaOH62/3xf1/UPjqDW2jo4iqL45fwuy/IbIPk7ggBkkNH9hHFV5HQ63b2+vr5ZS3yKv9fX11f7/f531xaAfFQNgAw0aZPGVRA3sxYOkpeXl0+UhLPWpqoqVzmSP06fuACQEfWGM2tRFMkttaqq+u6Oq3f4d7mcc3GAASATavUTyFURt/xIJYFymAA4EMy1BSAT6qS81OovrYqieKzr+k4roVLrB4DMRHQ40zZN8/Dy8vLNchJgacWLHgBZ0Kt/2df6Uqt/hS6Xy9g8HHAVS6RXKld7sLTihx8VhKBZyKWW67tzYb/fn/98PB7P9100778cDoefZVl+7cY6Ho+fNPsnyGiyCQAhhm1wh91ZkS+LOgguLy9vm6b5p2maK/dYR3f/gTK8W9q17c6Pvux2uyfOozAjSyuy7xT/Um4DQBjR7c/Cc3fZ24rzpYXgfCMuxK89J3LwOHCepi5DHw6H3y2Uzg1ctWIEA4AwxHKJf3Fx8atLtv5VrR4U/ZtvjN79m7aV5tFVmO6ZqlTOn/zVkfUAQJi6DZcrDpL+2p7ZXbDmHSwD37C0YioOQJiCuebDE15BF2uYYGklUB2AMEQb3l1nmG6iqfX7OGuICEAIqrfnHt+3uJQiuP+hCUChqwZAFrQaeTSDru7GW6bw6ExoiQHIhMLuZLxpGndz7c+NvNDBWKN/V012u90PvEk4rj4AGdEl5aoxA2Fy77xoTDgApKei9ZNw34RI/RVjiT4ApFVt5CUiiZ7mbXAC/3cIAUhRFCPPKplPdJ8DaCF5SH1HF4pG2QMCOMbTBJD8X5esAZHC0SWPe0DwLGJZXr2/v7v7JFu64uUeYDw/xNj691l4Hyfrk/dsAfGAY/S12y08rNirBaPPXA0ftqQsMdo22UKSJSBSOJYeFd/CVbClzd8kFyNyPnHPDhBJgnQzLeUtPJ/+GTP6aFPqJneS+zy5XgLODpDBe9msnKzrmqRXVVUNq2OlxtRHR6QVlAqg0uFsohtSwDfhqYITkpmzNyz5cfHBG3wKnpO7IJ0r+FQ5KoRkjzfeMBtApLNmFz/O7LlWBVk6R+qOZeT9enKa5nY+khMgfzZqJmfDx4aLb+T5JJ+HX2dTKsS+L3xRx/E9ni3YZwGI59LqT5woieFzjqOREEtLIN9K2quo5neZpOidCyCaJ82Px+Px23BPqS1c4u2qSFmWo4+JaD7Cn8tVreQB0aoe/dmmv3uI2+uqu5lGmZFitRnx0W0/pLoF0VK1inWsIcfJARDN6hEyFub6zqGKJA1IiOphLosDO5x6FUkakBXvRwROy+10T7lwsR1v+Z4kC8ial1v5YTBvsXj52+oRJguI77V+qwFdyW/yUwYr+SceNmVA+hs2iwWC4bICKS+zkgQEy6vlpA7QIsllVpKAYHkVIP0Xukz1ahYAiZ9LqY6Y5HlIqoDg/CMyhqmehyQJyIqPm0dOy20NR3njclseL3uTHCBaT6suS4cWIwokd6KeKiDfkb7xFSjL8t/UNsFODpD4aYERU1YAgKQcXRybtwIAxFtCdJCyAgAk5eji2LwVACDeEqKDlBUAIClHF8fmrcAmAOlt/Nwd0FNd125nctHPPawoMoSRlwLubrokbm383c74n5umudrtdk/SvrwOYMR4NUAon1aWfKMCNwq1U4TeH/eBxaVYtRtPFKfT6W64iwzdK7+WqwDCfVfcCX86nX5QRFoS3U8uWM8pQAWEu0WSZKLUilR0QKQbq1G3vAQgWqnB74cCiE981nggMiog3MoxDBFFIJ8A8FMCFn0FiIB4bQFLGUMzKtEA0UrcJYG0xtEUOZe+CLFxz8jd++hBXUn4jNG3jQmI18zROb0kEADRSg1+P3OAaMaFspLgez9uEQWQAO+IT769phkILZFz6WcOkACvQUd5tN4kIHMzCABZD8cFQLTf8iR9LMhXjSiAaM8eAMQ37GHsF5ZY2nskR3kHPhYg2rOHi/BoiUUFCZP8lF6nAAkRk1jnIVEACfGO+NTnjkMEg5IcaHP+wtXoR3UCnIOe5aZ+VNUnNgDERz3Y/qUAABEmBCqIUDhjZgBEGDAAIhTOmBkAEQYMgAiFM2YGQIQBAyBC4YyZARBhwACIUDhjZgBEGDAAIhTOmBkAEQYMgAiFM2YGQIQBAyBC4YyZARBhwACIUDhjZgBEGDAAIhTOmBkAEQYMgAiFM2YGQIQBAyBC4YyZARBhwACIUDhjZgBEGDAAIhTOmBkAEQYMgAiFM2YGQIQBAyBC4YyZARBhwACIUDhjZgBEGDAAIhTOmBkAEQYMgAiFM2YGQIQBAyBC4YyZARBhwACIUDhjZgBEGDAAIhTOmBkAEQYMgAiFM2YGQIQBAyBC4YyZARBhwACIUDhjZgBEGDAAIhTOmBkAEQYMgAiFM2YGQIQBAyBC4YyZARBhwACIUDhjZgBEGDAAIhTOmBkAEQYMgAiFM2YGQIQBAyBC4YyZARBhwACIUDhjZgBEGDAAIhTOmBkAEQYMgAiFM2YGQIQBAyBC4YyZARBhwACIUDhjZgBEGDAAIhTOmBkAEQYMgAiFM2YGQIQBAyBC4YyZARBhwACIUDhjZlOAVFV1WxTFL+3Dqeu61O5z2F/wAdyAVVU5cZxIar/j8fjp9fX1bdhhqGCoOZ5wR1OAXF9fX+33+9+ahz41luYYrq9YgHwviuJe0/mp2QOAaKrM62suabVXEakBolpiFwKhOhYvRfJuvRAX1VVEWZbfnp+fH0IrHqWCaJdYABI6LWT9z8Xl5ubma9M0P2U9f7SaWmJr9d/1EwWQ9jxEZZnVNM3by8vLpykhsMTSThF6f3OAuEny4uLiV1mWV/Qex1vGWl5FOwdxAykKdFfX9SMA8U0zffulxNWYvJYmSO2jilZB2iridX6wFACNMbQFzqk/Ynx8VxKzE6S23lEB6RLYrUUFpfa+rusfSwJozFJLY+D/5Uuf9nz0C/eqpqsc7sR8bvUQIi7RAemWW/v9niQSVxgAEiJNaH1SKkjXE3PJ/VjX9R3NC91WqwDSHYK7svH+/v65rSZ/biQ6KIqieCzL8o1SNfqSABDdBOH0xgGkmygvLy9vXQ64G8n9VUU7MZ4v43JzgOPzUttVAek752YU9/exu+NLBwFAOAqFa8sFZOhJu/y6ir2MmlNkM4BohQ0VREtJfj++gPBHDG8BQMJrnM0IAMRAqFFB1gsSAFlPe/LIAIQslXpDAKIuqX6HAERfU2qPAISq1IrtAMh64gOQ9bQnjwxAyFKpNwQg6pLqdwhA9DWl9ghAqEqt2A6ArCc+AFlPe/LIAIQslXpDAKIuqX6HAERfU2qPAISq1IrtAMh64gOQ9bQnjwxAyFKpNwQg6pLqd6i9QYS+h+n2CECMxPZwOPwWvLFo5Oi262asrXhiKpDc07xOvBA7OcYMitWxYm3FE1OfJAHR3oMpZkAMj7Xaa7EhNUsSECfY4XBwG0N8DSke+v5PgRSrhzu6ZAFhbgqAXPdTIOpWPH6u8qyTBcTJIN1ihidhvq25O85YVCppQLqAuHsjTdN8Ge6eYjFga/vcQnHedWbN3UZi6ZAFIH0xu91TlgR229FobrbcjefW6ktjz/0/dT8x7hgUv3x3nOH6tIX22QFCFT3ElTCNfWWrqvLduvODBBp+UXW11g6ATEQMgFhL5TD+AhAAUqCCTMMFQAAIAJkpPgAEgAAQAMJfn+IchK9ZihaoIKggqCCoIPy5DRWEr1mKFqggqCCoIKgg/LkNFYSvWYoWqCCoIKggqCD8uQ0VhK9ZihaoIKggqCCoIPy5DRWEr1mKFqggqCCoIKgg/LkNFYSvWYoWqCCoIKggqCD8uQ0VhK9ZihaoIKggqCCoIPy5DRWEr1mKFqggqCCoIKgg/LkNFYSvWYoWqCCoIKggqCD8uS3Eh3g0vp+xVb/4CtuwQAWZiFOID/FoABLCr6Io7nPYJVGCJACZUU37OyNaH5jR/kCQll+SBNy6DQCJCIjWJwK0wdXya+vJLvEPgMyoprycUfvAjKZfGss+SeJZsQEgC5HS2gu3rmtVrTX8wo6Ky5iqBm15OHst2tn6Z1EUtx7eq39gZqt+eWi0SVMAQgiL59eqgl0h8vELJ+aEwKf8CTba4dNbcb9WFevrS1v1i67stluigjDjs7S0acF4iH1fYat+MeXdXHMA4hESl5Ttl6j+KYriqa7rR4/u1Ey36pfaAUbsCIBEFBtD2VMAgNiLGTyOqAAAiSg2hrKnAACxFzN4HFEBABJRbAxlTwEAYi9m8DiiAgAkotgYyp4CAMRezOBxRAUASESxMZQ9BQCIvZjB44gKAJCIYmMoewoAEHsxg8cRFfgfapEmbqTU1RMAAAAASUVORK5CYII=" parent="1" vertex="1">
          <mxGeometry x="-306" y="780.95" width="28" height="28" as="geometry" />
        </mxCell>
        <mxCell id="aqfIlqZua8wNAoRfI1L8-69" value="static analysis tool" style="rounded=0;whiteSpace=wrap;html=1;" parent="1" vertex="1">
          <mxGeometry x="-250" y="686.46" width="60" height="74.87" as="geometry" />
        </mxCell>
        <mxCell id="aqfIlqZua8wNAoRfI1L8-70" value="timestamp" style="rounded=0;whiteSpace=wrap;html=1;" parent="1" vertex="1">
          <mxGeometry x="-255" y="826.1899999999999" width="70" height="22.44" as="geometry" />
        </mxCell>
        <mxCell id="aqfIlqZua8wNAoRfI1L8-76" value="&lt;font style=&quot;font-size: 16px;&quot;&gt;&lt;b&gt;(a) Construction of Android Evolutionary Graph&lt;/b&gt;&lt;/font&gt;" style="text;html=1;strokeColor=none;fillColor=none;align=center;verticalAlign=middle;whiteSpace=wrap;rounded=0;" parent="1" vertex="1">
          <mxGeometry x="-306" y="960" width="366" height="22.19" as="geometry" />
        </mxCell>
        <mxCell id="aqfIlqZua8wNAoRfI1L8-77" value="Sample" style="text;html=1;strokeColor=none;fillColor=none;align=center;verticalAlign=middle;whiteSpace=wrap;rounded=0;" parent="1" vertex="1">
          <mxGeometry x="18" y="657.6" width="60" height="30" as="geometry" />
        </mxCell>
        <mxCell id="aqfIlqZua8wNAoRfI1L8-79" value="Sample" style="text;html=1;strokeColor=none;fillColor=none;align=center;verticalAlign=middle;whiteSpace=wrap;rounded=0;" parent="1" vertex="1">
          <mxGeometry x="18" y="833.6" width="60" height="30" as="geometry" />
        </mxCell>
        <mxCell id="aqfIlqZua8wNAoRfI1L8-80" value="" style="endArrow=none;dashed=1;html=1;rounded=0;strokeWidth=3;" parent="1" edge="1">
          <mxGeometry width="50" height="50" relative="1" as="geometry">
            <mxPoint x="47.5" y="960.2" as="sourcePoint" />
            <mxPoint x="48" y="570" as="targetPoint" />
          </mxGeometry>
        </mxCell>
        <mxCell id="4302Krz3ayCRn5l8homN-6" style="edgeStyle=orthogonalEdgeStyle;rounded=0;orthogonalLoop=1;jettySize=auto;html=1;exitX=0.25;exitY=0;exitDx=0;exitDy=0;entryX=0;entryY=0.25;entryDx=0;entryDy=0;strokeWidth=3;strokeColor=#ff6666;" parent="1" source="4302Krz3ayCRn5l8homN-1" target="EiaWENK0sWJ-y4MaInz0-100" edge="1">
          <mxGeometry relative="1" as="geometry" />
        </mxCell>
        <mxCell id="4302Krz3ayCRn5l8homN-7" style="edgeStyle=orthogonalEdgeStyle;rounded=0;orthogonalLoop=1;jettySize=auto;html=1;exitX=0.75;exitY=0;exitDx=0;exitDy=0;entryX=0;entryY=0.75;entryDx=0;entryDy=0;strokeColor=#3399ff;strokeWidth=3;" parent="1" source="4302Krz3ayCRn5l8homN-1" target="EiaWENK0sWJ-y4MaInz0-100" edge="1">
          <mxGeometry relative="1" as="geometry" />
        </mxCell>
        <mxCell id="4302Krz3ayCRn5l8homN-1" value="$$GRL$$" style="rounded=0;whiteSpace=wrap;html=1;rotation=90;" parent="1" vertex="1">
          <mxGeometry x="575" y="771.4599999999999" width="90" height="18.77" as="geometry" />
        </mxCell>
        <mxCell id="4302Krz3ayCRn5l8homN-8" value="" style="ellipse;whiteSpace=wrap;html=1;fillColor=#FF6666;strokeColor=none;" parent="1" vertex="1">
          <mxGeometry x="-294" y="585" width="35" height="23" as="geometry" />
        </mxCell>
        <mxCell id="4302Krz3ayCRn5l8homN-9" value="" style="ellipse;whiteSpace=wrap;html=1;fillColor=#3399ff;strokeColor=none;" parent="1" vertex="1">
          <mxGeometry x="-157" y="585" width="35" height="23" as="geometry" />
        </mxCell>
        <mxCell id="4302Krz3ayCRn5l8homN-10" value="source domain" style="text;html=1;strokeColor=none;fillColor=none;align=center;verticalAlign=middle;whiteSpace=wrap;rounded=0;" parent="1" vertex="1">
          <mxGeometry x="-258" y="582" width="90" height="30" as="geometry" />
        </mxCell>
        <mxCell id="4302Krz3ayCRn5l8homN-11" value="target domain" style="text;html=1;strokeColor=none;fillColor=none;align=center;verticalAlign=middle;whiteSpace=wrap;rounded=0;" parent="1" vertex="1">
          <mxGeometry x="-118" y="582" width="80" height="30" as="geometry" />
        </mxCell>
      </root>
    </mxGraphModel>
  </diagram>
</mxfile>
